<svg width="800" height="800" xmlns="http://www.w3.org/2000/svg">
<rect width="100%" height="100%" fill="#d3d3d3" />
<circle cx="400.0" cy="400.0" r="116.0" stroke="#777" stroke-width="1.5" fill="none" />
<circle cx="400.0" cy="400.0" r="177.0" stroke="#777" stroke-width="1.5" fill="none" />
<circle cx="400.0" cy="400.0" r="238.0" stroke="#777" stroke-width="1.5" fill="none" />
<circle cx="400.0" cy="400.0" r="299.0" stroke="#777" stroke-width="1.5" fill="none" />
<circle cx="400.0" cy="400.0" r="360.0" stroke="#777" stroke-width="1.5" fill="none" />
<polyline points="400.00,40.00 405.61,43.09 411.12,46.27 416.53,49.54 421.84,52.89 427.05,56.31 432.16,59.82 437.16,63.40 442.06,67.05 446.86,70.77 451.55,74.56 456.13,78.41 460.60,82.33 464.96,86.31 469.22,90.34 473.36,94.43 477.39,98.58 481.31,102.77 485.12,107.01 488.81,111.30 492.40,115.63 495.86,120.01 499.22,124.42 502.45,128.86 505.58,133.34 508.59,137.85 511.48,142.39 514.26,146.95 516.92,151.53 519.47,156.14 521.90,160.76 524.21,165.40 526.41,170.06 528.50,174.72 530.47,179.39 532.32,184.07 534.06,188.75 535.69,193.43 537.20,198.11 538.61,202.79 539.89,207.45 541.07,212.11 542.13,216.76 543.09,221.40 543.93,226.02 544.66,230.62 545.29,235.20 545.81,239.76 546.22,244.29 546.52,248.80 546.72,253.28 546.82,257.72 546.81,262.13 546.71,266.51 546.50,270.85 546.19,275.14 545.78,279.40 545.28,283.61 544.68,287.78 543.98,291.89 543.20,295.96 542.32,299.98 541.35,303.94 540.29,307.85 539.15,311.70 537.91,315.49 536.60,319.22 535.20,322.88 533.72,326.48 532.17,330.02 530.53,333.49 528.82,336.89 527.04,340.22 525.18,343.48 523.25,346.66 521.26,349.77 519.20,352.81 517.07,355.76 514.88,358.64 512.63,361.44 510.32,364.15 507.96,366.79 505.54,369.34 503.06,371.81 500.54,374.19 497.97,376.48 495.35,378.69 492.68,380.81 489.98,382.84 487.23,384.78 484.45,386.62 481.63,388.38 478.77,390.05 475.89,391.62 472.97,393.10 470.03,394.49 467.07,395.78 464.08,396.98 461.07,398.08 458.04,399.09 455.00,400.00" stroke="#1a1a2e" stroke-width="3.5" fill="none" stroke-linecap="round"/>
<polyline points="400.00,40.00 394.39,43.09 388.88,46.27 383.47,49.54 378.16,52.89 372.95,56.31 367.84,59.82 362.84,63.40 357.94,67.05 353.14,70.77 348.45,74.56 343.87,78.41 339.40,82.33 335.04,86.31 330.78,90.34 326.64,94.43 322.61,98.58 318.69,102.77 314.88,107.01 311.19,111.30 307.60,115.63 304.14,120.01 300.78,124.42 297.55,128.86 294.42,133.34 291.41,137.85 288.52,142.39 285.74,146.95 283.08,151.53 280.53,156.14 278.10,160.76 275.79,165.40 273.59,170.06 271.50,174.72 269.53,179.39 267.68,184.07 265.94,188.75 264.31,193.43 262.80,198.11 261.39,202.79 260.11,207.45 258.93,212.11 257.87,216.76 256.91,221.40 256.07,226.02 255.34,230.62 254.71,235.20 254.19,239.76 253.78,244.29 253.48,248.80 253.28,253.28 253.18,257.72 253.19,262.13 253.29,266.51 253.50,270.85 253.81,275.14 254.22,279.40 254.72,283.61 255.32,287.78 256.02,291.89 256.80,295.96 257.68,299.98 258.65,303.94 259.71,307.85 260.85,311.70 262.09,315.49 263.40,319.22 264.80,322.88 266.28,326.48 267.83,330.02 269.47,333.49 271.18,336.89 272.96,340.22 274.82,343.48 276.75,346.66 278.74,349.77 280.80,352.81 282.93,355.76 285.12,358.64 287.37,361.44 289.68,364.15 292.04,366.79 294.46,369.34 296.94,371.81 299.46,374.19 302.03,376.48 304.65,378.69 307.32,380.81 310.02,382.84 312.77,384.78 315.55,386.62 318.37,388.38 321.23,390.05 324.11,391.62 327.03,393.10 329.97,394.49 332.93,395.78 335.92,396.98 338.93,398.08 341.96,399.09 345.00,400.00" stroke="#1a1a2e" stroke-width="3.5" fill="none" stroke-linecap="round"/>
<polyline points="611.60,108.75 614.32,114.55 616.91,120.36 619.37,126.19 621.70,132.02 623.90,137.85 625.97,143.69 627.92,149.52 629.73,155.36 631.43,161.19 632.99,167.01 634.43,172.82 635.75,178.62 636.94,184.40 638.01,190.17 638.96,195.91 639.78,201.63 640.49,207.33 641.08,213.00 641.54,218.64 641.90,224.25 642.13,229.83 642.25,235.37 642.26,240.87 642.15,246.32 641.94,251.74 641.61,257.11 641.18,262.44 640.63,267.71 639.99,272.93 639.24,278.10 638.38,283.22 637.43,288.28 636.37,293.27 635.22,298.21 633.97,303.09 632.63,307.90 631.19,312.64 629.67,317.31 628.05,321.92 626.35,326.45 624.56,330.92 622.69,335.30 620.74,339.61 618.71,343.85 616.60,348.00 614.41,352.07 612.15,356.07 609.82,359.98 607.41,363.80 604.95,367.54 602.41,371.19 599.81,374.76 597.15,378.23 594.43,381.62 591.66,384.92 588.83,388.12 585.94,391.23 583.01,394.25 580.03,397.17 577.00,400.00 573.93,402.73 570.82,405.37 567.66,407.91 564.47,410.35 561.25,412.69 558.00,414.93 554.71,417.08 551.40,419.13 548.06,421.07 544.70,422.92 541.31,424.66 537.91,426.31 534.50,427.85 531.07,429.30 527.62,430.64 524.17,431.88 520.71,433.02 517.25,434.06 513.79,435.01 510.32,435.85 506.86,436.59 503.40,437.23 499.95,437.77 496.51,438.21 493.08,438.56 489.66,438.80 486.26,438.95 482.88,439.00 479.52,438.96 476.18,438.82 472.87,438.58 469.58,438.25 466.32,437.83 463.09,437.31 459.90,436.71 456.74,436.01 453.62,435.22 450.53,434.34 447.49,433.38 444.50,432.33" stroke="#1a1a2e" stroke-width="3.5" fill="none" stroke-linecap="round"/>
<polyline points="611.60,108.75 605.25,107.96 598.92,107.30 592.62,106.76 586.36,106.34 580.13,106.05 573.94,105.88 567.79,105.84 561.68,105.91 555.61,106.10 549.59,106.41 543.62,106.84 537.70,107.38 531.83,108.03 526.02,108.80 520.26,109.67 514.56,110.65 508.92,111.74 503.35,112.94 497.84,114.23 492.40,115.63 487.02,117.13 481.72,118.73 476.48,120.42 471.32,122.21 466.24,124.09 461.23,126.06 456.30,128.12 451.45,130.26 446.69,132.49 442.00,134.81 437.40,137.20 432.89,139.67 428.46,142.22 424.12,144.84 419.87,147.53 415.71,150.29 411.64,153.12 407.67,156.02 403.79,158.98 400.00,162.00 396.31,165.08 392.72,168.21 389.22,171.40 385.82,174.65 382.52,177.94 379.32,181.28 376.23,184.66 373.23,188.08 370.33,191.55 367.54,195.05 364.85,198.59 362.26,202.17 359.78,205.77 357.40,209.40 355.12,213.06 352.95,216.74 350.88,220.45 348.92,224.17 347.06,227.91 345.30,231.66 343.65,235.43 342.11,239.20 340.67,242.99 339.33,246.77 338.10,250.56 336.97,254.35 335.95,258.14 335.03,261.92 334.21,265.70 333.49,269.47 332.88,273.22 332.36,276.97 331.95,280.69 331.64,284.40 331.42,288.09 331.31,291.76 331.29,295.40 331.37,299.01 331.55,302.60 331.82,306.15 332.18,309.68 332.64,313.16 333.19,316.61 333.84,320.02 334.57,323.39 335.39,326.71 336.30,329.99 337.30,333.23 338.38,336.41 339.54,339.54 340.79,342.62 342.12,345.65 343.53,348.62 345.02,351.53 346.58,354.38 348.22,357.17 349.94,359.89 351.72,362.55 353.58,365.15 355.50,367.67" stroke="#1a1a2e" stroke-width="3.5" fill="none" stroke-linecap="round"/>
<polyline points="742.38,288.75 741.17,295.04 739.85,301.27 738.41,307.42 736.87,313.51 735.22,319.52 733.47,325.46 731.61,331.33 729.66,337.11 727.60,342.82 725.44,348.45 723.19,354.00 720.85,359.47 718.42,364.85 715.89,370.14 713.28,375.34 710.59,380.46 707.81,385.48 704.95,390.42 702.01,395.26 699.00,400.00 695.91,404.65 692.76,409.20 689.53,413.65 686.23,418.01 682.88,422.26 679.45,426.42 675.97,430.47 672.43,434.42 668.84,438.26 665.19,442.00 661.50,445.64 657.75,449.17 653.96,452.59 650.13,455.91 646.25,459.12 642.34,462.22 638.39,465.22 634.41,468.10 630.39,470.88 626.35,473.55 622.28,476.10 618.19,478.55 614.08,480.89 609.94,483.12 605.79,485.24 601.63,487.25 597.46,489.15 593.27,490.95 589.08,492.63 584.88,494.20 580.69,495.67 576.49,497.03 572.29,498.27 568.10,499.42 563.92,500.45 559.75,501.38 555.59,502.20 551.44,502.92 547.31,503.53 543.20,504.04 539.11,504.44 535.04,504.75 531.00,504.95 526.98,505.05 523.00,505.05 519.04,504.95 515.12,504.75 511.24,504.46 507.40,504.07 503.59,503.59 499.83,503.02 496.11,502.35 492.44,501.59 488.81,500.74 485.24,499.80 481.72,498.78 478.25,497.67 474.84,496.48 471.48,495.20 468.18,493.85 464.95,492.41 461.77,490.90 458.66,489.31 455.62,487.64 452.64,485.90 449.73,484.09 446.90,482.22 444.13,480.27 441.44,478.26 438.82,476.18 436.27,474.04 433.81,471.84 431.42,469.59 429.11,467.27 426.88,464.90 424.74,462.48 422.68,460.01 420.70,457.49 418.80,454.92 417.00,452.31" stroke="#1a1a2e" stroke-width="3.5" fill="none" stroke-linecap="round"/>
<polyline points="742.38,288.75 737.71,284.38 732.98,280.12 728.20,275.98 723.38,271.97 718.51,268.07 713.60,264.29 708.65,260.64 703.66,257.11 698.64,253.70 693.59,250.41 688.51,247.24 683.40,244.20 678.27,241.28 673.11,238.48 667.94,235.80 662.75,233.25 657.55,230.82 652.34,228.51 647.12,226.32 641.90,224.25 636.67,222.31 631.44,220.48 626.21,218.77 620.98,217.19 615.77,215.72 610.56,214.37 605.36,213.14 600.17,212.02 595.01,211.02 589.86,210.14 584.73,209.37 579.63,208.72 574.55,208.18 569.49,207.75 564.47,207.43 559.48,207.22 554.53,207.12 549.61,207.12 544.73,207.24 539.89,207.45 535.10,207.78 530.35,208.20 525.64,208.73 520.99,209.35 516.39,210.07 511.84,210.89 507.34,211.81 502.90,212.82 498.52,213.92 494.20,215.12 489.95,216.40 485.75,217.77 481.62,219.22 477.56,220.76 473.57,222.38 469.65,224.09 465.80,225.87 462.02,227.72 458.32,229.66 454.70,231.66 451.15,233.74 447.68,235.89 444.29,238.10 440.98,240.38 437.76,242.72 434.62,245.12 431.56,247.58 428.59,250.10 425.71,252.68 422.92,255.30 420.21,257.98 417.60,260.71 415.07,263.48 412.64,266.30 410.30,269.15 408.05,272.05 405.90,274.99 403.84,277.96 401.87,280.96 400.00,284.00 398.23,287.06 396.55,290.15 394.97,293.27 393.48,296.40 392.10,299.56 390.81,302.73 389.61,305.92 388.52,309.12 387.52,312.33 386.62,315.55 385.82,318.78 385.12,322.01 384.52,325.24 384.01,328.47 383.60,331.69 383.29,334.91 383.07,338.12 382.95,341.33 382.93,344.52 383.00,347.69" stroke="#1a1a2e" stroke-width="3.5" fill="none" stroke-linecap="round"/>
<polyline points="742.38,511.25 737.71,515.62 732.98,519.88 728.20,524.02 723.38,528.03 718.51,531.93 713.60,535.71 708.65,539.36 703.66,542.89 698.64,546.30 693.59,549.59 688.51,552.76 683.40,555.80 678.27,558.72 673.11,561.52 667.94,564.20 662.75,566.75 657.55,569.18 652.34,571.49 647.12,573.68 641.90,575.75 636.67,577.69 631.44,579.52 626.21,581.23 620.98,582.81 615.77,584.28 610.56,585.63 605.36,586.86 600.17,587.98 595.01,588.98 589.86,589.86 584.73,590.63 579.63,591.28 574.55,591.82 569.49,592.25 564.47,592.57 559.48,592.78 554.53,592.88 549.61,592.88 544.73,592.76 539.89,592.55 535.10,592.22 530.35,591.80 525.64,591.27 520.99,590.65 516.39,589.93 511.84,589.11 507.34,588.19 502.90,587.18 498.52,586.08 494.20,584.88 489.95,583.60 485.75,582.23 481.62,580.78 477.56,579.24 473.57,577.62 469.65,575.91 465.80,574.13 462.02,572.28 458.32,570.34 454.70,568.34 451.15,566.26 447.68,564.11 444.29,561.90 440.98,559.62 437.76,557.28 434.62,554.88 431.56,552.42 428.59,549.90 425.71,547.32 422.92,544.70 420.21,542.02 417.60,539.29 415.07,536.52 412.64,533.70 410.30,530.85 408.05,527.95 405.90,525.01 403.84,522.04 401.87,519.04 400.00,516.00 398.23,512.94 396.55,509.85 394.97,506.73 393.48,503.60 392.10,500.44 390.81,497.27 389.61,494.08 388.52,490.88 387.52,487.67 386.62,484.45 385.82,481.22 385.12,477.99 384.52,474.76 384.01,471.53 383.60,468.31 383.29,465.09 383.07,461.88 382.95,458.67 382.93,455.48 383.00,452.31" stroke="#1a1a2e" stroke-width="3.5" fill="none" stroke-linecap="round"/>
<polyline points="742.38,511.25 741.17,504.96 739.85,498.73 738.41,492.58 736.87,486.49 735.22,480.48 733.47,474.54 731.61,468.67 729.66,462.89 727.60,457.18 725.44,451.55 723.19,446.00 720.85,440.53 718.42,435.15 715.89,429.86 713.28,424.66 710.59,419.54 707.81,414.52 704.95,409.58 702.01,404.74 699.00,400.00 695.91,395.35 692.76,390.80 689.53,386.35 686.23,381.99 682.88,377.74 679.45,373.58 675.97,369.53 672.43,365.58 668.84,361.74 665.19,358.00 661.50,354.36 657.75,350.83 653.96,347.41 650.13,344.09 646.25,340.88 642.34,337.78 638.39,334.78 634.41,331.90 630.39,329.12 626.35,326.45 622.28,323.90 618.19,321.45 614.08,319.11 609.94,316.88 605.79,314.76 601.63,312.75 597.46,310.85 593.27,309.05 589.08,307.37 584.88,305.80 580.69,304.33 576.49,302.97 572.29,301.73 568.10,300.58 563.92,299.55 559.75,298.62 555.59,297.80 551.44,297.08 547.31,296.47 543.20,295.96 539.11,295.56 535.04,295.25 531.00,295.05 526.98,294.95 523.00,294.95 519.04,295.05 515.12,295.25 511.24,295.54 507.40,295.93 503.59,296.41 499.83,296.98 496.11,297.65 492.44,298.41 488.81,299.26 485.24,300.20 481.72,301.22 478.25,302.33 474.84,303.52 471.48,304.80 468.18,306.15 464.95,307.59 461.77,309.10 458.66,310.69 455.62,312.36 452.64,314.10 449.73,315.91 446.90,317.78 444.13,319.73 441.44,321.74 438.82,323.82 436.27,325.96 433.81,328.16 431.42,330.41 429.11,332.73 426.88,335.10 424.74,337.52 422.68,339.99 420.70,342.51 418.80,345.08 417.00,347.69" stroke="#1a1a2e" stroke-width="3.5" fill="none" stroke-linecap="round"/>
<polyline points="611.60,691.25 605.25,692.04 598.92,692.70 592.62,693.24 586.36,693.66 580.13,693.95 573.94,694.12 567.79,694.16 561.68,694.09 555.61,693.90 549.59,693.59 543.62,693.16 537.70,692.62 531.83,691.97 526.02,691.20 520.26,690.33 514.56,689.35 508.92,688.26 503.35,687.06 497.84,685.77 492.40,684.37 487.02,682.87 481.72,681.27 476.48,679.58 471.32,677.79 466.24,675.91 461.23,673.94 456.30,671.88 451.45,669.74 446.69,667.51 442.00,665.19 437.40,662.80 432.89,660.33 428.46,657.78 424.12,655.16 419.87,652.47 415.71,649.71 411.64,646.88 407.67,643.98 403.79,641.02 400.00,638.00 396.31,634.92 392.72,631.79 389.22,628.60 385.82,625.35 382.52,622.06 379.32,618.72 376.23,615.34 373.23,611.92 370.33,608.45 367.54,604.95 364.85,601.41 362.26,597.83 359.78,594.23 357.40,590.60 355.12,586.94 352.95,583.26 350.88,579.55 348.92,575.83 347.06,572.09 345.30,568.34 343.65,564.57 342.11,560.80 340.67,557.01 339.33,553.23 338.10,549.44 336.97,545.65 335.95,541.86 335.03,538.08 334.21,534.30 333.49,530.53 332.88,526.78 332.36,523.03 331.95,519.31 331.64,515.60 331.42,511.91 331.31,508.24 331.29,504.60 331.37,500.99 331.55,497.40 331.82,493.85 332.18,490.32 332.64,486.84 333.19,483.39 333.84,479.98 334.57,476.61 335.39,473.29 336.30,470.01 337.30,466.77 338.38,463.59 339.54,460.46 340.79,457.38 342.12,454.35 343.53,451.38 345.02,448.47 346.58,445.62 348.22,442.83 349.94,440.11 351.72,437.45 353.58,434.85 355.50,432.33" stroke="#1a1a2e" stroke-width="3.5" fill="none" stroke-linecap="round"/>
<polyline points="611.60,691.25 614.32,685.45 616.91,679.64 619.37,673.81 621.70,667.98 623.90,662.15 625.97,656.31 627.92,650.48 629.73,644.64 631.43,638.81 632.99,632.99 634.43,627.18 635.75,621.38 636.94,615.60 638.01,609.83 638.96,604.09 639.78,598.37 640.49,592.67 641.08,587.00 641.54,581.36 641.90,575.75 642.13,570.17 642.25,564.63 642.26,559.13 642.15,553.68 641.94,548.26 641.61,542.89 641.18,537.56 640.63,532.29 639.99,527.07 639.24,521.90 638.38,516.78 637.43,511.72 636.37,506.73 635.22,501.79 633.97,496.91 632.63,492.10 631.19,487.36 629.67,482.69 628.05,478.08 626.35,473.55 624.56,469.08 622.69,464.70 620.74,460.39 618.71,456.15 616.60,452.00 614.41,447.93 612.15,443.93 609.82,440.02 607.41,436.20 604.95,432.46 602.41,428.81 599.81,425.24 597.15,421.77 594.43,418.38 591.66,415.08 588.83,411.88 585.94,408.77 583.01,405.75 580.03,402.83 577.00,400.00 573.93,397.27 570.82,394.63 567.66,392.09 564.47,389.65 561.25,387.31 558.00,385.07 554.71,382.92 551.40,380.87 548.06,378.93 544.70,377.08 541.31,375.34 537.91,373.69 534.50,372.15 531.07,370.70 527.62,369.36 524.17,368.12 520.71,366.98 517.25,365.94 513.79,364.99 510.32,364.15 506.86,363.41 503.40,362.77 499.95,362.23 496.51,361.79 493.08,361.44 489.66,361.20 486.26,361.05 482.88,361.00 479.52,361.04 476.18,361.18 472.87,361.42 469.58,361.75 466.32,362.17 463.09,362.69 459.90,363.29 456.74,363.99 453.62,364.78 450.53,365.66 447.49,366.62 444.50,367.67" stroke="#1a1a2e" stroke-width="3.5" fill="none" stroke-linecap="round"/>
<polyline points="400.00,760.00 394.39,756.91 388.88,753.73 383.47,750.46 378.16,747.11 372.95,743.69 367.84,740.18 362.84,736.60 357.94,732.95 353.14,729.23 348.45,725.44 343.87,721.59 339.40,717.67 335.04,713.69 330.78,709.66 326.64,705.57 322.61,701.42 318.69,697.23 314.88,692.99 311.19,688.70 307.60,684.37 304.14,679.99 300.78,675.58 297.55,671.14 294.42,666.66 291.41,662.15 288.52,657.61 285.74,653.05 283.08,648.47 280.53,643.86 278.10,639.24 275.79,634.60 273.59,629.94 271.50,625.28 269.53,620.61 267.68,615.93 265.94,611.25 264.31,606.57 262.80,601.89 261.39,597.21 260.11,592.55 258.93,587.89 257.87,583.24 256.91,578.60 256.07,573.98 255.34,569.38 254.71,564.80 254.19,560.24 253.78,555.71 253.48,551.20 253.28,546.72 253.18,542.28 253.19,537.87 253.29,533.49 253.50,529.15 253.81,524.86 254.22,520.60 254.72,516.39 255.32,512.22 256.02,508.11 256.80,504.04 257.68,500.02 258.65,496.06 259.71,492.15 260.85,488.30 262.09,484.51 263.40,480.78 264.80,477.12 266.28,473.52 267.83,469.98 269.47,466.51 271.18,463.11 272.96,459.78 274.82,456.52 276.75,453.34 278.74,450.23 280.80,447.19 282.93,444.24 285.12,441.36 287.37,438.56 289.68,435.85 292.04,433.21 294.46,430.66 296.94,428.19 299.46,425.81 302.03,423.52 304.65,421.31 307.32,419.19 310.02,417.16 312.77,415.22 315.55,413.38 318.37,411.62 321.23,409.95 324.11,408.38 327.03,406.90 329.97,405.51 332.93,404.22 335.92,403.02 338.93,401.92 341.96,400.91 345.00,400.00" stroke="#1a1a2e" stroke-width="3.5" fill="none" stroke-linecap="round"/>
<polyline points="400.00,760.00 405.61,756.91 411.12,753.73 416.53,750.46 421.84,747.11 427.05,743.69 432.16,740.18 437.16,736.60 442.06,732.95 446.86,729.23 451.55,725.44 456.13,721.59 460.60,717.67 464.96,713.69 469.22,709.66 473.36,705.57 477.39,701.42 481.31,697.23 485.12,692.99 488.81,688.70 492.40,684.37 495.86,679.99 499.22,675.58 502.45,671.14 505.58,666.66 508.59,662.15 511.48,657.61 514.26,653.05 516.92,648.47 519.47,643.86 521.90,639.24 524.21,634.60 526.41,629.94 528.50,625.28 530.47,620.61 532.32,615.93 534.06,611.25 535.69,606.57 537.20,601.89 538.61,597.21 539.89,592.55 541.07,587.89 542.13,583.24 543.09,578.60 543.93,573.98 544.66,569.38 545.29,564.80 545.81,560.24 546.22,555.71 546.52,551.20 546.72,546.72 546.82,542.28 546.81,537.87 546.71,533.49 546.50,529.15 546.19,524.86 545.78,520.60 545.28,516.39 544.68,512.22 543.98,508.11 543.20,504.04 542.32,500.02 541.35,496.06 540.29,492.15 539.15,488.30 537.91,484.51 536.60,480.78 535.20,477.12 533.72,473.52 532.17,469.98 530.53,466.51 528.82,463.11 527.04,459.78 525.18,456.52 523.25,453.34 521.26,450.23 519.20,447.19 517.07,444.24 514.88,441.36 512.63,438.56 510.32,435.85 507.96,433.21 505.54,430.66 503.06,428.19 500.54,425.81 497.97,423.52 495.35,421.31 492.68,419.19 489.98,417.16 487.23,415.22 484.45,413.38 481.63,411.62 478.77,409.95 475.89,408.38 472.97,406.90 470.03,405.51 467.07,404.22 464.08,403.02 461.07,401.92 458.04,400.91 455.00,400.00" stroke="#1a1a2e" stroke-width="3.5" fill="none" stroke-linecap="round"/>
<polyline points="188.40,691.25 185.68,685.45 183.09,679.64 180.63,673.81 178.30,667.98 176.10,662.15 174.03,656.31 172.08,650.48 170.27,644.64 168.57,638.81 167.01,632.99 165.57,627.18 164.25,621.38 163.06,615.60 161.99,609.83 161.04,604.09 160.22,598.37 159.51,592.67 158.92,587.00 158.46,581.36 158.10,575.75 157.87,570.17 157.75,564.63 157.74,559.13 157.85,553.68 158.06,548.26 158.39,542.89 158.82,537.56 159.37,532.29 160.01,527.07 160.76,521.90 161.62,516.78 162.57,511.72 163.63,506.73 164.78,501.79 166.03,496.91 167.37,492.10 168.81,487.36 170.33,482.69 171.95,478.08 173.65,473.55 175.44,469.08 177.31,464.70 179.26,460.39 181.29,456.15 183.40,452.00 185.59,447.93 187.85,443.93 190.18,440.02 192.59,436.20 195.05,432.46 197.59,428.81 200.19,425.24 202.85,421.77 205.57,418.38 208.34,415.08 211.17,411.88 214.06,408.77 216.99,405.75 219.97,402.83 223.00,400.00 226.07,397.27 229.18,394.63 232.34,392.09 235.53,389.65 238.75,387.31 242.00,385.07 245.29,382.92 248.60,380.87 251.94,378.93 255.30,377.08 258.69,375.34 262.09,373.69 265.50,372.15 268.93,370.70 272.38,369.36 275.83,368.12 279.29,366.98 282.75,365.94 286.21,364.99 289.68,364.15 293.14,363.41 296.60,362.77 300.05,362.23 303.49,361.79 306.92,361.44 310.34,361.20 313.74,361.05 317.12,361.00 320.48,361.04 323.82,361.18 327.13,361.42 330.42,361.75 333.68,362.17 336.91,362.69 340.10,363.29 343.26,363.99 346.38,364.78 349.47,365.66 352.51,366.62 355.50,367.67" stroke="#1a1a2e" stroke-width="3.5" fill="none" stroke-linecap="round"/>
<polyline points="188.40,691.25 194.75,692.04 201.08,692.70 207.38,693.24 213.64,693.66 219.87,693.95 226.06,694.12 232.21,694.16 238.32,694.09 244.39,693.90 250.41,693.59 256.38,693.16 262.30,692.62 268.17,691.97 273.98,691.20 279.74,690.33 285.44,689.35 291.08,688.26 296.65,687.06 302.16,685.77 307.60,684.37 312.98,682.87 318.28,681.27 323.52,679.58 328.68,677.79 333.76,675.91 338.77,673.94 343.70,671.88 348.55,669.74 353.31,667.51 358.00,665.19 362.60,662.80 367.11,660.33 371.54,657.78 375.88,655.16 380.13,652.47 384.29,649.71 388.36,646.88 392.33,643.98 396.21,641.02 400.00,638.00 403.69,634.92 407.28,631.79 410.78,628.60 414.18,625.35 417.48,622.06 420.68,618.72 423.77,615.34 426.77,611.92 429.67,608.45 432.46,604.95 435.15,601.41 437.74,597.83 440.22,594.23 442.60,590.60 444.88,586.94 447.05,583.26 449.12,579.55 451.08,575.83 452.94,572.09 454.70,568.34 456.35,564.57 457.89,560.80 459.33,557.01 460.67,553.23 461.90,549.44 463.03,545.65 464.05,541.86 464.97,538.08 465.79,534.30 466.51,530.53 467.12,526.78 467.64,523.03 468.05,519.31 468.36,515.60 468.58,511.91 468.69,508.24 468.71,504.60 468.63,500.99 468.45,497.40 468.18,493.85 467.82,490.32 467.36,486.84 466.81,483.39 466.16,479.98 465.43,476.61 464.61,473.29 463.70,470.01 462.70,466.77 461.62,463.59 460.46,460.46 459.21,457.38 457.88,454.35 456.47,451.38 454.98,448.47 453.42,445.62 451.78,442.83 450.06,440.11 448.28,437.45 446.42,434.85 444.50,432.33" stroke="#1a1a2e" stroke-width="3.5" fill="none" stroke-linecap="round"/>
<polyline points="57.62,511.25 58.83,504.96 60.15,498.73 61.59,492.58 63.13,486.49 64.78,480.48 66.53,474.54 68.39,468.67 70.34,462.89 72.40,457.18 74.56,451.55 76.81,446.00 79.15,440.53 81.58,435.15 84.11,429.86 86.72,424.66 89.41,419.54 92.19,414.52 95.05,409.58 97.99,404.74 101.00,400.00 104.09,395.35 107.24,390.80 110.47,386.35 113.77,381.99 117.12,377.74 120.55,373.58 124.03,369.53 127.57,365.58 131.16,361.74 134.81,358.00 138.50,354.36 142.25,350.83 146.04,347.41 149.87,344.09 153.75,340.88 157.66,337.78 161.61,334.78 165.59,331.90 169.61,329.12 173.65,326.45 177.72,323.90 181.81,321.45 185.92,319.11 190.06,316.88 194.21,314.76 198.37,312.75 202.54,310.85 206.73,309.05 210.92,307.37 215.12,305.80 219.31,304.33 223.51,302.97 227.71,301.73 231.90,300.58 236.08,299.55 240.25,298.62 244.41,297.80 248.56,297.08 252.69,296.47 256.80,295.96 260.89,295.56 264.96,295.25 269.00,295.05 273.02,294.95 277.00,294.95 280.96,295.05 284.88,295.25 288.76,295.54 292.60,295.93 296.41,296.41 300.17,296.98 303.89,297.65 307.56,298.41 311.19,299.26 314.76,300.20 318.28,301.22 321.75,302.33 325.16,303.52 328.52,304.80 331.82,306.15 335.05,307.59 338.23,309.10 341.34,310.69 344.38,312.36 347.36,314.10 350.27,315.91 353.10,317.78 355.87,319.73 358.56,321.74 361.18,323.82 363.73,325.96 366.19,328.16 368.58,330.41 370.89,332.73 373.12,335.10 375.26,337.52 377.32,339.99 379.30,342.51 381.20,345.08 383.00,347.69" stroke="#1a1a2e" stroke-width="3.5" fill="none" stroke-linecap="round"/>
<polyline points="57.62,511.25 62.29,515.62 67.02,519.88 71.80,524.02 76.62,528.03 81.49,531.93 86.40,535.71 91.35,539.36 96.34,542.89 101.36,546.30 106.41,549.59 111.49,552.76 116.60,555.80 121.73,558.72 126.89,561.52 132.06,564.20 137.25,566.75 142.45,569.18 147.66,571.49 152.88,573.68 158.10,575.75 163.33,577.69 168.56,579.52 173.79,581.23 179.02,582.81 184.23,584.28 189.44,585.63 194.64,586.86 199.83,587.98 204.99,588.98 210.14,589.86 215.27,590.63 220.37,591.28 225.45,591.82 230.51,592.25 235.53,592.57 240.52,592.78 245.47,592.88 250.39,592.88 255.27,592.76 260.11,592.55 264.90,592.22 269.65,591.80 274.36,591.27 279.01,590.65 283.61,589.93 288.16,589.11 292.66,588.19 297.10,587.18 301.48,586.08 305.80,584.88 310.05,583.60 314.25,582.23 318.38,580.78 322.44,579.24 326.43,577.62 330.35,575.91 334.20,574.13 337.98,572.28 341.68,570.34 345.30,568.34 348.85,566.26 352.32,564.11 355.71,561.90 359.02,559.62 362.24,557.28 365.38,554.88 368.44,552.42 371.41,549.90 374.29,547.32 377.08,544.70 379.79,542.02 382.40,539.29 384.93,536.52 387.36,533.70 389.70,530.85 391.95,527.95 394.10,525.01 396.16,522.04 398.13,519.04 400.00,516.00 401.77,512.94 403.45,509.85 405.03,506.73 406.52,503.60 407.90,500.44 409.19,497.27 410.39,494.08 411.48,490.88 412.48,487.67 413.38,484.45 414.18,481.22 414.88,477.99 415.48,474.76 415.99,471.53 416.40,468.31 416.71,465.09 416.93,461.88 417.05,458.67 417.07,455.48 417.00,452.31" stroke="#1a1a2e" stroke-width="3.5" fill="none" stroke-linecap="round"/>
<polyline points="57.62,288.75 62.29,284.38 67.02,280.12 71.80,275.98 76.62,271.97 81.49,268.07 86.40,264.29 91.35,260.64 96.34,257.11 101.36,253.70 106.41,250.41 111.49,247.24 116.60,244.20 121.73,241.28 126.89,238.48 132.06,235.80 137.25,233.25 142.45,230.82 147.66,228.51 152.88,226.32 158.10,224.25 163.33,222.31 168.56,220.48 173.79,218.77 179.02,217.19 184.23,215.72 189.44,214.37 194.64,213.14 199.83,212.02 204.99,211.02 210.14,210.14 215.27,209.37 220.37,208.72 225.45,208.18 230.51,207.75 235.53,207.43 240.52,207.22 245.47,207.12 250.39,207.12 255.27,207.24 260.11,207.45 264.90,207.78 269.65,208.20 274.36,208.73 279.01,209.35 283.61,210.07 288.16,210.89 292.66,211.81 297.10,212.82 301.48,213.92 305.80,215.12 310.05,216.40 314.25,217.77 318.38,219.22 322.44,220.76 326.43,222.38 330.35,224.09 334.20,225.87 337.98,227.72 341.68,229.66 345.30,231.66 348.85,233.74 352.32,235.89 355.71,238.10 359.02,240.38 362.24,242.72 365.38,245.12 368.44,247.58 371.41,250.10 374.29,252.68 377.08,255.30 379.79,257.98 382.40,260.71 384.93,263.48 387.36,266.30 389.70,269.15 391.95,272.05 394.10,274.99 396.16,277.96 398.13,280.96 400.00,284.00 401.77,287.06 403.45,290.15 405.03,293.27 406.52,296.40 407.90,299.56 409.19,302.73 410.39,305.92 411.48,309.12 412.48,312.33 413.38,315.55 414.18,318.78 414.88,322.01 415.48,325.24 415.99,328.47 416.40,331.69 416.71,334.91 416.93,338.12 417.05,341.33 417.07,344.52 417.00,347.69" stroke="#1a1a2e" stroke-width="3.5" fill="none" stroke-linecap="round"/>
<polyline points="57.62,288.75 58.83,295.04 60.15,301.27 61.59,307.42 63.13,313.51 64.78,319.52 66.53,325.46 68.39,331.33 70.34,337.11 72.40,342.82 74.56,348.45 76.81,354.00 79.15,359.47 81.58,364.85 84.11,370.14 86.72,375.34 89.41,380.46 92.19,385.48 95.05,390.42 97.99,395.26 101.00,400.00 104.09,404.65 107.24,409.20 110.47,413.65 113.77,418.01 117.12,422.26 120.55,426.42 124.03,430.47 127.57,434.42 131.16,438.26 134.81,442.00 138.50,445.64 142.25,449.17 146.04,452.59 149.87,455.91 153.75,459.12 157.66,462.22 161.61,465.22 165.59,468.10 169.61,470.88 173.65,473.55 177.72,476.10 181.81,478.55 185.92,480.89 190.06,483.12 194.21,485.24 198.37,487.25 202.54,489.15 206.73,490.95 210.92,492.63 215.12,494.20 219.31,495.67 223.51,497.03 227.71,498.27 231.90,499.42 236.08,500.45 240.25,501.38 244.41,502.20 248.56,502.92 252.69,503.53 256.80,504.04 260.89,504.44 264.96,504.75 269.00,504.95 273.02,505.05 277.00,505.05 280.96,504.95 284.88,504.75 288.76,504.46 292.60,504.07 296.41,503.59 300.17,503.02 303.89,502.35 307.56,501.59 311.19,500.74 314.76,499.80 318.28,498.78 321.75,497.67 325.16,496.48 328.52,495.20 331.82,493.85 335.05,492.41 338.23,490.90 341.34,489.31 344.38,487.64 347.36,485.90 350.27,484.09 353.10,482.22 355.87,480.27 358.56,478.26 361.18,476.18 363.73,474.04 366.19,471.84 368.58,469.59 370.89,467.27 373.12,464.90 375.26,462.48 377.32,460.01 379.30,457.49 381.20,454.92 383.00,452.31" stroke="#1a1a2e" stroke-width="3.5" fill="none" stroke-linecap="round"/>
<polyline points="188.40,108.75 194.75,107.96 201.08,107.30 207.38,106.76 213.64,106.34 219.87,106.05 226.06,105.88 232.21,105.84 238.32,105.91 244.39,106.10 250.41,106.41 256.38,106.84 262.30,107.38 268.17,108.03 273.98,108.80 279.74,109.67 285.44,110.65 291.08,111.74 296.65,112.94 302.16,114.23 307.60,115.63 312.98,117.13 318.28,118.73 323.52,120.42 328.68,122.21 333.76,124.09 338.77,126.06 343.70,128.12 348.55,130.26 353.31,132.49 358.00,134.81 362.60,137.20 367.11,139.67 371.54,142.22 375.88,144.84 380.13,147.53 384.29,150.29 388.36,153.12 392.33,156.02 396.21,158.98 400.00,162.00 403.69,165.08 407.28,168.21 410.78,171.40 414.18,174.65 417.48,177.94 420.68,181.28 423.77,184.66 426.77,188.08 429.67,191.55 432.46,195.05 435.15,198.59 437.74,202.17 440.22,205.77 442.60,209.40 444.88,213.06 447.05,216.74 449.12,220.45 451.08,224.17 452.94,227.91 454.70,231.66 456.35,235.43 457.89,239.20 459.33,242.99 460.67,246.77 461.90,250.56 463.03,254.35 464.05,258.14 464.97,261.92 465.79,265.70 466.51,269.47 467.12,273.22 467.64,276.97 468.05,280.69 468.36,284.40 468.58,288.09 468.69,291.76 468.71,295.40 468.63,299.01 468.45,302.60 468.18,306.15 467.82,309.68 467.36,313.16 466.81,316.61 466.16,320.02 465.43,323.39 464.61,326.71 463.70,329.99 462.70,333.23 461.62,336.41 460.46,339.54 459.21,342.62 457.88,345.65 456.47,348.62 454.98,351.53 453.42,354.38 451.78,357.17 450.06,359.89 448.28,362.55 446.42,365.15 444.50,367.67" stroke="#1a1a2e" stroke-width="3.5" fill="none" stroke-linecap="round"/>
<polyline points="188.40,108.75 185.68,114.55 183.09,120.36 180.63,126.19 178.30,132.02 176.10,137.85 174.03,143.69 172.08,149.52 170.27,155.36 168.57,161.19 167.01,167.01 165.57,172.82 164.25,178.62 163.06,184.40 161.99,190.17 161.04,195.91 160.22,201.63 159.51,207.33 158.92,213.00 158.46,218.64 158.10,224.25 157.87,229.83 157.75,235.37 157.74,240.87 157.85,246.32 158.06,251.74 158.39,257.11 158.82,262.44 159.37,267.71 160.01,272.93 160.76,278.10 161.62,283.22 162.57,288.28 163.63,293.27 164.78,298.21 166.03,303.09 167.37,307.90 168.81,312.64 170.33,317.31 171.95,321.92 173.65,326.45 175.44,330.92 177.31,335.30 179.26,339.61 181.29,343.85 183.40,348.00 185.59,352.07 187.85,356.07 190.18,359.98 192.59,363.80 195.05,367.54 197.59,371.19 200.19,374.76 202.85,378.23 205.57,381.62 208.34,384.92 211.17,388.12 214.06,391.23 216.99,394.25 219.97,397.17 223.00,400.00 226.07,402.73 229.18,405.37 232.34,407.91 235.53,410.35 238.75,412.69 242.00,414.93 245.29,417.08 248.60,419.13 251.94,421.07 255.30,422.92 258.69,424.66 262.09,426.31 265.50,427.85 268.93,429.30 272.38,430.64 275.83,431.88 279.29,433.02 282.75,434.06 286.21,435.01 289.68,435.85 293.14,436.59 296.60,437.23 300.05,437.77 303.49,438.21 306.92,438.56 310.34,438.80 313.74,438.95 317.12,439.00 320.48,438.96 323.82,438.82 327.13,438.58 330.42,438.25 333.68,437.83 336.91,437.31 340.10,436.71 343.26,436.01 346.38,435.22 349.47,434.34 352.51,433.38 355.50,432.33" stroke="#1a1a2e" stroke-width="3.5" fill="none" stroke-linecap="round"/>
<circle cx="400.0" cy="400.0" r="55" fill="#666666" stroke="#1a1a2e" stroke-width="3.5" />
</svg>