<svg width="800" height="800" xmlns="http://www.w3.org/2000/svg">
<rect width="100%" height="100%" fill="#d3d3d3" />
<line x1="400.0" y1="400.0" x2="400.0" y2="60.0" stroke="#777" stroke-width="1" />
<line x1="400.0" y1="400.0" x2="618.5477872934234" y2="139.54488933954747" stroke="#777" stroke-width="1" />
<line x1="400.0" y1="400.0" x2="734.8346360241508" y2="340.9596195932437" stroke="#777" stroke-width="1" />
<line x1="400.0" y1="400.0" x2="694.4486372867092" y2="570.0" stroke="#777" stroke-width="1" />
<line x1="400.0" y1="400.0" x2="516.2868487307273" y2="719.4954910672088" stroke="#777" stroke-width="1" />
<line x1="400.0" y1="400.0" x2="283.71315126927266" y2="719.4954910672088" stroke="#777" stroke-width="1" />
<line x1="400.0" y1="400.0" x2="105.55136271329081" y2="570.0" stroke="#777" stroke-width="1" />
<line x1="400.0" y1="400.0" x2="65.16536397584929" y2="340.95961959324364" stroke="#777" stroke-width="1" />
<line x1="400.0" y1="400.0" x2="181.45221270657657" y2="139.54488933954752" stroke="#777" stroke-width="1" />
<circle cx="400.0" cy="400.0" r="104.0" stroke="#777" stroke-width="1" fill="none" />
<circle cx="400.0" cy="400.0" r="163.0" stroke="#777" stroke-width="1" fill="none" />
<circle cx="400.0" cy="400.0" r="222.0" stroke="#777" stroke-width="1" fill="none" />
<circle cx="400.0" cy="400.0" r="281.0" stroke="#777" stroke-width="1" fill="none" />
<polyline points="400.00,60.00 407.80,65.01 415.36,70.19 422.69,75.54 429.77,81.05 436.62,86.72 443.21,92.52 449.56,98.46 455.65,104.53 461.49,110.71 467.07,117.01 472.39,123.40 477.45,129.89 482.25,136.45 486.79,143.10 491.06,149.81 495.07,156.57 498.82,163.39 502.29,170.24 505.51,177.13 508.46,184.04 511.15,190.96 513.57,197.89 515.74,204.82 517.64,211.73 519.29,218.63 520.68,225.50 521.82,232.33 522.71,239.12 523.34,245.86 523.74,252.54 523.89,259.15 523.80,265.68 523.48,272.14 522.92,278.50 522.14,284.77 521.13,290.93 519.91,296.98 518.47,302.92 516.82,308.73 514.97,314.41 512.92,319.95 510.68,325.35 508.24,330.60 505.63,335.69 502.84,340.62 499.88,345.39 496.76,349.99 493.47,354.41 490.04,358.65 486.47,362.70 482.75,366.57 478.91,370.24 474.94,373.71 470.85,376.98 466.66,380.04 462.36,382.90 457.98,385.55 453.50,387.98 448.94,390.19 444.32,392.19" stroke="#1a1a2e" stroke-width="3.5" fill="none" stroke-linecap="round"/>
<polyline points="400.00,60.00 392.20,65.01 384.64,70.19 377.31,75.54 370.23,81.05 363.38,86.72 356.79,92.52 350.44,98.46 344.35,104.53 338.51,110.71 332.93,117.01 327.61,123.40 322.55,129.89 317.75,136.45 313.21,143.10 308.94,149.81 304.93,156.57 301.18,163.39 297.71,170.24 294.49,177.13 291.54,184.04 288.85,190.96 286.43,197.89 284.26,204.82 282.36,211.73 280.71,218.63 279.32,225.50 278.18,232.33 277.29,239.12 276.66,245.86 276.26,252.54 276.11,259.15 276.20,265.68 276.52,272.14 277.08,278.50 277.86,284.77 278.87,290.93 280.09,296.98 281.53,302.92 283.18,308.73 285.03,314.41 287.08,319.95 289.32,325.35 291.76,330.60 294.37,335.69 297.16,340.62 300.12,345.39 303.24,349.99 306.53,354.41 309.96,358.65 313.53,362.70 317.25,366.57 321.09,370.24 325.06,373.71 329.15,376.98 333.34,380.04 337.64,382.90 342.02,385.55 346.50,387.98 351.06,390.19 355.68,392.19" stroke="#1a1a2e" stroke-width="3.5" fill="none" stroke-linecap="round"/>
<polyline points="618.55,139.54 621.30,148.39 623.76,157.23 625.94,166.03 627.82,174.81 629.43,183.55 630.75,192.23 631.79,200.86 632.56,209.43 633.05,217.92 633.28,226.33 633.25,234.65 632.96,242.87 632.41,250.98 631.62,258.99 630.58,266.88 629.30,274.63 627.79,282.26 626.05,289.75 624.08,297.09 621.90,304.28 619.51,311.31 616.91,318.18 614.12,324.88 611.13,331.40 607.96,337.74 604.61,343.90 601.09,349.86 597.41,355.63 593.57,361.20 589.58,366.57 585.44,371.73 581.17,376.68 576.78,381.42 572.26,385.94 567.63,390.24 562.90,394.31 558.07,398.16 553.16,401.78 548.16,405.17 543.09,408.33 537.96,411.26 532.77,413.95 527.53,416.41 522.25,418.63 516.95,420.62 511.61,422.37 506.27,423.88 500.91,425.16 495.56,426.20 490.21,427.01 484.88,427.58 479.58,427.92 474.31,428.03 469.08,427.91 463.89,427.56 458.77,426.99 453.70,426.19 448.71,425.18 443.80,423.95 438.97,422.50" stroke="#1a1a2e" stroke-width="3.5" fill="none" stroke-linecap="round"/>
<polyline points="618.55,139.54 609.36,138.37 600.23,137.48 591.18,136.87 582.21,136.53 573.32,136.47 564.54,136.68 555.86,137.15 547.29,137.88 538.85,138.87 530.53,140.10 522.34,141.58 514.29,143.29 506.39,145.24 498.65,147.41 491.06,149.81 483.64,152.41 476.39,155.23 469.32,158.24 462.43,161.45 455.73,164.85 449.22,168.42 442.91,172.17 436.80,176.09 430.90,180.16 425.20,184.38 419.72,188.75 414.46,193.25 409.41,197.89 404.59,202.64 400.00,207.50 395.64,212.47 391.50,217.53 387.60,222.68 383.94,227.91 380.51,233.22 377.31,238.59 374.36,244.01 371.65,249.48 369.18,254.99 366.95,260.53 364.95,266.09 363.20,271.67 361.69,277.26 360.42,282.84 359.39,288.41 358.59,293.97 358.03,299.50 357.70,304.99 357.60,310.45 357.74,315.85 358.10,321.20 358.69,326.48 359.49,331.69 360.52,336.82 361.76,341.86 363.22,346.81 364.88,351.66 366.75,356.40 368.81,361.03 371.07,365.53" stroke="#1a1a2e" stroke-width="3.5" fill="none" stroke-linecap="round"/>
<polyline points="734.83,340.96 731.26,349.51 727.47,357.86 723.47,366.00 719.27,373.94 714.88,381.66 710.31,389.16 705.56,396.44 700.65,403.50 695.57,410.32 690.34,416.91 684.97,423.26 679.46,429.37 673.83,435.24 668.07,440.86 662.21,446.23 656.24,451.36 650.18,456.23 644.03,460.84 637.81,465.21 631.51,469.31 625.16,473.16 618.76,476.75 612.31,480.09 605.83,483.16 599.33,485.98 592.81,488.55 586.28,490.85 579.74,492.90 573.22,494.70 566.71,496.25 560.23,497.55 553.77,498.59 547.36,499.40 541.00,499.96 534.69,500.27 528.45,500.35 522.27,500.20 516.18,499.81 510.17,499.20 504.26,498.36 498.44,497.30 492.74,496.03 487.15,494.55 481.67,492.86 476.33,490.97 471.12,488.88 466.05,486.60 461.13,484.14 456.36,481.49 451.75,478.68 447.30,475.69 443.01,472.54 438.91,469.23 434.98,465.78 431.23,462.18 427.67,458.45 424.30,454.58 421.13,450.60 418.16,446.50 415.39,442.29" stroke="#1a1a2e" stroke-width="3.5" fill="none" stroke-linecap="round"/>
<polyline points="734.83,340.96 728.55,334.15 722.13,327.60 715.59,321.31 708.93,315.29 702.17,309.54 695.30,304.05 688.35,298.83 681.32,293.89 674.21,289.21 667.05,284.81 659.83,280.68 652.56,276.82 645.26,273.23 637.93,269.92 630.58,266.88 623.22,264.10 615.86,261.60 608.50,259.36 601.16,257.39 593.85,255.69 586.56,254.24 579.32,253.06 572.12,252.13 564.98,251.45 557.90,251.03 550.89,250.85 543.97,250.92 537.13,251.22 530.38,251.76 523.74,252.54 517.20,253.54 510.78,254.76 504.48,256.20 498.31,257.85 492.27,259.71 486.38,261.77 480.63,264.02 475.03,266.47 469.60,269.10 464.33,271.91 459.23,274.89 454.30,278.04 449.55,281.35 444.99,284.81 440.61,288.41 436.43,292.15 432.45,296.03 428.67,300.03 425.09,304.15 421.72,308.37 418.56,312.70 415.61,317.12 412.88,321.63 410.37,326.23 408.08,330.89 406.01,335.61 404.17,340.40 402.55,345.23 401.16,350.10 400.00,355.00" stroke="#1a1a2e" stroke-width="3.5" fill="none" stroke-linecap="round"/>
<polyline points="694.45,570.00 686.21,574.25 677.94,578.21 669.64,581.88 661.33,585.26 653.00,588.35 644.68,591.16 636.36,593.69 628.06,595.93 619.79,597.90 611.54,599.58 603.35,600.99 595.20,602.13 587.11,603.01 579.09,603.61 571.14,603.96 563.28,604.05 555.50,603.88 547.83,603.47 540.26,602.81 532.80,601.91 525.46,600.78 518.24,599.41 511.16,597.82 504.22,596.01 497.43,593.99 490.78,591.76 484.30,589.33 477.97,586.71 471.82,583.89 465.84,580.89 460.04,577.72 454.42,574.37 448.99,570.86 443.76,567.20 438.72,563.39 433.89,559.44 429.26,555.35 424.84,551.14 420.63,546.81 416.64,542.36 412.87,537.82 409.31,533.17 405.98,528.44 402.88,523.63 400.00,518.75 397.35,513.80 394.93,508.80 392.75,503.75 390.79,498.65 389.07,493.53 387.58,488.38 386.32,483.22 385.30,478.04 384.51,472.87 383.95,467.71 383.63,462.56 383.53,457.44 383.66,452.34 384.02,447.29 384.61,442.29" stroke="#1a1a2e" stroke-width="3.5" fill="none" stroke-linecap="round"/>
<polyline points="694.45,570.00 694.01,560.74 693.30,551.60 692.33,542.58 691.10,533.69 689.62,524.93 687.89,516.32 685.92,507.85 683.71,499.54 681.27,491.39 678.62,483.41 675.74,475.61 672.65,467.98 669.36,460.54 665.88,453.29 662.21,446.23 658.35,439.38 654.32,432.73 650.12,426.29 645.77,420.06 641.26,414.05 636.61,408.26 631.82,402.70 626.90,397.36 621.86,392.25 616.72,387.38 611.46,382.74 606.11,378.34 600.68,374.17 595.16,370.25 589.58,366.57 583.93,363.14 578.22,359.95 572.47,357.00 566.68,354.30 560.86,351.84 555.02,349.63 549.17,347.66 543.31,345.94 537.46,344.46 531.61,343.23 525.79,342.23 519.99,341.48 514.23,340.96 508.51,340.68 502.84,340.62 497.23,340.80 491.69,341.21 486.22,341.84 480.83,342.70 475.53,343.77 470.33,345.05 465.23,346.55 460.24,348.25 455.36,350.15 450.61,352.25 445.99,354.54 441.51,357.02 437.16,359.68 432.97,362.52 428.93,365.53" stroke="#1a1a2e" stroke-width="3.5" fill="none" stroke-linecap="round"/>
<polyline points="516.29,719.50 507.25,717.46 498.37,715.17 489.65,712.65 481.11,709.90 472.74,706.91 464.56,703.71 456.56,700.30 448.76,696.69 441.16,692.87 433.76,688.87 426.58,684.68 419.60,680.32 412.84,675.78 406.31,671.09 400.00,666.25 393.92,661.26 388.07,656.14 382.46,650.89 377.08,645.52 371.94,640.03 367.05,634.45 362.40,628.76 358.00,623.00 353.84,617.15 349.94,611.23 346.28,605.25 342.87,599.22 339.72,593.14 336.81,587.03 334.16,580.89 331.76,574.73 329.61,568.56 327.70,562.38 326.05,556.21 324.64,550.06 323.48,543.92 322.56,537.81 321.88,531.75 321.44,525.72 321.24,519.75 321.27,513.84 321.53,508.00 322.02,502.24 322.73,496.56 323.67,490.97 324.82,485.48 326.18,480.09 327.76,474.81 329.53,469.65 331.51,464.62 333.67,459.72 336.03,454.96 338.57,450.34 341.29,445.87 344.19,441.55 347.24,437.40 350.47,433.41 353.84,429.60 357.36,425.96 361.03,422.50" stroke="#1a1a2e" stroke-width="3.5" fill="none" stroke-linecap="round"/>
<polyline points="516.29,719.50 521.90,712.12 527.24,704.67 532.29,697.13 537.07,689.53 541.56,681.87 545.77,674.16 549.70,666.40 553.35,658.62 556.72,650.81 559.82,642.99 562.63,635.16 565.17,627.33 567.43,619.52 569.42,611.73 571.14,603.96 572.59,596.23 573.78,588.55 574.71,580.91 575.37,573.34 575.78,565.84 575.94,558.42 575.85,551.08 575.51,543.83 574.94,536.68 574.13,529.63 573.09,522.70 571.82,515.89 570.33,509.21 568.62,502.66 566.71,496.25 564.59,489.99 562.27,483.87 559.76,477.92 557.06,472.13 554.18,466.51 551.13,461.06 547.91,455.79 544.53,450.71 540.99,445.81 537.31,441.11 533.49,436.60 529.53,432.30 525.45,428.20 521.26,424.30 516.95,420.62 512.53,417.15 508.03,413.90 503.43,410.87 498.75,408.06 494.01,405.48 489.20,403.11 484.33,400.98 479.41,399.08 474.45,397.40 469.47,395.95 464.45,394.74 459.42,393.75 454.38,393.00 449.35,392.48 444.32,392.19" stroke="#1a1a2e" stroke-width="3.5" fill="none" stroke-linecap="round"/>
<polyline points="283.71,719.50 278.10,712.12 272.76,704.67 267.71,697.13 262.93,689.53 258.44,681.87 254.23,674.16 250.30,666.40 246.65,658.62 243.28,650.81 240.18,642.99 237.37,635.16 234.83,627.33 232.57,619.52 230.58,611.73 228.86,603.96 227.41,596.23 226.22,588.55 225.29,580.91 224.63,573.34 224.22,565.84 224.06,558.42 224.15,551.08 224.49,543.83 225.06,536.68 225.87,529.63 226.91,522.70 228.18,515.89 229.67,509.21 231.38,502.66 233.29,496.25 235.41,489.99 237.73,483.87 240.24,477.92 242.94,472.13 245.82,466.51 248.87,461.06 252.09,455.79 255.47,450.71 259.01,445.81 262.69,441.11 266.51,436.60 270.47,432.30 274.55,428.20 278.74,424.30 283.05,420.62 287.47,417.15 291.97,413.90 296.57,410.87 301.25,408.06 305.99,405.48 310.80,403.11 315.67,400.98 320.59,399.08 325.55,397.40 330.53,395.95 335.55,394.74 340.58,393.75 345.62,393.00 350.65,392.48 355.68,392.19" stroke="#1a1a2e" stroke-width="3.5" fill="none" stroke-linecap="round"/>
<polyline points="283.71,719.50 292.75,717.46 301.63,715.17 310.35,712.65 318.89,709.90 327.26,706.91 335.44,703.71 343.44,700.30 351.24,696.69 358.84,692.87 366.24,688.87 373.42,684.68 380.40,680.32 387.16,675.78 393.69,671.09 400.00,666.25 406.08,661.26 411.93,656.14 417.54,650.89 422.92,645.52 428.06,640.03 432.95,634.45 437.60,628.76 442.00,623.00 446.16,617.15 450.06,611.23 453.72,605.25 457.13,599.22 460.28,593.14 463.19,587.03 465.84,580.89 468.24,574.73 470.39,568.56 472.30,562.38 473.95,556.21 475.36,550.06 476.52,543.92 477.44,537.81 478.12,531.75 478.56,525.72 478.76,519.75 478.73,513.84 478.47,508.00 477.98,502.24 477.27,496.56 476.33,490.97 475.18,485.48 473.82,480.09 472.24,474.81 470.47,469.65 468.49,464.62 466.33,459.72 463.97,454.96 461.43,450.34 458.71,445.87 455.81,441.55 452.76,437.40 449.53,433.41 446.16,429.60 442.64,425.96 438.97,422.50" stroke="#1a1a2e" stroke-width="3.5" fill="none" stroke-linecap="round"/>
<polyline points="105.55,570.00 105.99,560.74 106.70,551.60 107.67,542.58 108.90,533.69 110.38,524.93 112.11,516.32 114.08,507.85 116.29,499.54 118.73,491.39 121.38,483.41 124.26,475.61 127.35,467.98 130.64,460.54 134.12,453.29 137.79,446.23 141.65,439.38 145.68,432.73 149.88,426.29 154.23,420.06 158.74,414.05 163.39,408.26 168.18,402.70 173.10,397.36 178.14,392.25 183.28,387.38 188.54,382.74 193.89,378.34 199.32,374.17 204.84,370.25 210.42,366.57 216.07,363.14 221.78,359.95 227.53,357.00 233.32,354.30 239.14,351.84 244.98,349.63 250.83,347.66 256.69,345.94 262.54,344.46 268.39,343.23 274.21,342.23 280.01,341.48 285.77,340.96 291.49,340.68 297.16,340.62 302.77,340.80 308.31,341.21 313.78,341.84 319.17,342.70 324.47,343.77 329.67,345.05 334.77,346.55 339.76,348.25 344.64,350.15 349.39,352.25 354.01,354.54 358.49,357.02 362.84,359.68 367.03,362.52 371.07,365.53" stroke="#1a1a2e" stroke-width="3.5" fill="none" stroke-linecap="round"/>
<polyline points="105.55,570.00 113.79,574.25 122.06,578.21 130.36,581.88 138.67,585.26 147.00,588.35 155.32,591.16 163.64,593.69 171.94,595.93 180.21,597.90 188.46,599.58 196.65,600.99 204.80,602.13 212.89,603.01 220.91,603.61 228.86,603.96 236.72,604.05 244.50,603.88 252.17,603.47 259.74,602.81 267.20,601.91 274.54,600.78 281.76,599.41 288.84,597.82 295.78,596.01 302.57,593.99 309.22,591.76 315.70,589.33 322.03,586.71 328.18,583.89 334.16,580.89 339.96,577.72 345.58,574.37 351.01,570.86 356.24,567.20 361.28,563.39 366.11,559.44 370.74,555.35 375.16,551.14 379.37,546.81 383.36,542.36 387.13,537.82 390.69,533.17 394.02,528.44 397.12,523.63 400.00,518.75 402.65,513.80 405.07,508.80 407.25,503.75 409.21,498.65 410.93,493.53 412.42,488.38 413.68,483.22 414.70,478.04 415.49,472.87 416.05,467.71 416.37,462.56 416.47,457.44 416.34,452.34 415.98,447.29 415.39,442.29" stroke="#1a1a2e" stroke-width="3.5" fill="none" stroke-linecap="round"/>
<polyline points="65.17,340.96 71.45,334.15 77.87,327.60 84.41,321.31 91.07,315.29 97.83,309.54 104.70,304.05 111.65,298.83 118.68,293.89 125.79,289.21 132.95,284.81 140.17,280.68 147.44,276.82 154.74,273.23 162.07,269.92 169.42,266.88 176.78,264.10 184.14,261.60 191.50,259.36 198.84,257.39 206.15,255.69 213.44,254.24 220.68,253.06 227.88,252.13 235.02,251.45 242.10,251.03 249.11,250.85 256.03,250.92 262.87,251.22 269.62,251.76 276.26,252.54 282.80,253.54 289.22,254.76 295.52,256.20 301.69,257.85 307.73,259.71 313.62,261.77 319.37,264.02 324.97,266.47 330.40,269.10 335.67,271.91 340.77,274.89 345.70,278.04 350.45,281.35 355.01,284.81 359.39,288.41 363.57,292.15 367.55,296.03 371.33,300.03 374.91,304.15 378.28,308.37 381.44,312.70 384.39,317.12 387.12,321.63 389.63,326.23 391.92,330.89 393.99,335.61 395.83,340.40 397.45,345.23 398.84,350.10 400.00,355.00" stroke="#1a1a2e" stroke-width="3.5" fill="none" stroke-linecap="round"/>
<polyline points="65.17,340.96 68.74,349.51 72.53,357.86 76.53,366.00 80.73,373.94 85.12,381.66 89.69,389.16 94.44,396.44 99.35,403.50 104.43,410.32 109.66,416.91 115.03,423.26 120.54,429.37 126.17,435.24 131.93,440.86 137.79,446.23 143.76,451.36 149.82,456.23 155.97,460.84 162.19,465.21 168.49,469.31 174.84,473.16 181.24,476.75 187.69,480.09 194.17,483.16 200.67,485.98 207.19,488.55 213.72,490.85 220.26,492.90 226.78,494.70 233.29,496.25 239.77,497.55 246.23,498.59 252.64,499.40 259.00,499.96 265.31,500.27 271.55,500.35 277.73,500.20 283.82,499.81 289.83,499.20 295.74,498.36 301.56,497.30 307.26,496.03 312.85,494.55 318.33,492.86 323.67,490.97 328.88,488.88 333.95,486.60 338.87,484.14 343.64,481.49 348.25,478.68 352.70,475.69 356.99,472.54 361.09,469.23 365.02,465.78 368.77,462.18 372.33,458.45 375.70,454.58 378.87,450.60 381.84,446.50 384.61,442.29" stroke="#1a1a2e" stroke-width="3.5" fill="none" stroke-linecap="round"/>
<polyline points="181.45,139.54 190.64,138.37 199.77,137.48 208.82,136.87 217.79,136.53 226.68,136.47 235.46,136.68 244.14,137.15 252.71,137.88 261.15,138.87 269.47,140.10 277.66,141.58 285.71,143.29 293.61,145.24 301.35,147.41 308.94,149.81 316.36,152.41 323.61,155.23 330.68,158.24 337.57,161.45 344.27,164.85 350.78,168.42 357.09,172.17 363.20,176.09 369.10,180.16 374.80,184.38 380.28,188.75 385.54,193.25 390.59,197.89 395.41,202.64 400.00,207.50 404.36,212.47 408.50,217.53 412.40,222.68 416.06,227.91 419.49,233.22 422.69,238.59 425.64,244.01 428.35,249.48 430.82,254.99 433.05,260.53 435.05,266.09 436.80,271.67 438.31,277.26 439.58,282.84 440.61,288.41 441.41,293.97 441.97,299.50 442.30,304.99 442.40,310.45 442.26,315.85 441.90,321.20 441.31,326.48 440.51,331.69 439.48,336.82 438.24,341.86 436.78,346.81 435.12,351.66 433.25,356.40 431.19,361.03 428.93,365.53" stroke="#1a1a2e" stroke-width="3.5" fill="none" stroke-linecap="round"/>
<polyline points="181.45,139.54 178.70,148.39 176.24,157.23 174.06,166.03 172.18,174.81 170.57,183.55 169.25,192.23 168.21,200.86 167.44,209.43 166.95,217.92 166.72,226.33 166.75,234.65 167.04,242.87 167.59,250.98 168.38,258.99 169.42,266.88 170.70,274.63 172.21,282.26 173.95,289.75 175.92,297.09 178.10,304.28 180.49,311.31 183.09,318.18 185.88,324.88 188.87,331.40 192.04,337.74 195.39,343.90 198.91,349.86 202.59,355.63 206.43,361.20 210.42,366.57 214.56,371.73 218.83,376.68 223.22,381.42 227.74,385.94 232.37,390.24 237.10,394.31 241.93,398.16 246.84,401.78 251.84,405.17 256.91,408.33 262.04,411.26 267.23,413.95 272.47,416.41 277.75,418.63 283.05,420.62 288.39,422.37 293.73,423.88 299.09,425.16 304.44,426.20 309.79,427.01 315.12,427.58 320.42,427.92 325.69,428.03 330.92,427.91 336.11,427.56 341.23,426.99 346.30,426.19 351.29,425.18 356.20,423.95 361.03,422.50" stroke="#1a1a2e" stroke-width="3.5" fill="none" stroke-linecap="round"/>
<circle cx="400.0" cy="400.0" r="45" fill="#444" stroke="#1a1a2e" stroke-width="3" />
<text x="320.0" y="160.0" font-family="Arial, sans-serif" font-size="24" fill="red" text-anchor="middle" dominant-baseline="middle">7</text>
</svg>