<svg width="800" height="800" xmlns="http://www.w3.org/2000/svg">
<rect width="100%" height="100%" fill="#d3d3d3" />
<circle cx="400.0" cy="400.0" r="150" stroke="#1a1a2e" stroke-width="3.5" fill="none" />
<circle cx="400.0" cy="400.0" r="200" stroke="#1a1a2e" stroke-width="3.5" fill="none" />
<circle cx="400.0" cy="400.0" r="250" stroke="#1a1a2e" stroke-width="3.5" fill="none" />
<circle cx="400.0" cy="400.0" r="300" stroke="#1a1a2e" stroke-width="3.5" fill="none" />
<polyline points="400.00,50.00 404.55,52.11 409.05,54.29 413.50,56.52 417.88,58.80 422.21,61.14 426.48,63.54 430.69,65.99 434.84,68.49 438.93,71.05 442.96,73.65 446.93,76.30 450.84,79.00 454.69,81.75 458.47,84.54 462.19,87.37 465.84,90.25 469.43,93.17 472.95,96.13 476.41,99.13 479.80,102.17 483.13,105.25 486.39,108.36 489.58,111.50 492.71,114.68 495.76,117.89 498.75,121.14 501.67,124.41 504.52,127.71 507.31,131.03 510.02,134.38 512.67,137.76 515.24,141.16 517.75,144.58 520.18,148.03 522.55,151.49 524.85,154.97 527.07,158.47 529.23,161.99 531.32,165.52 533.33,169.06 535.28,172.62 537.16,176.18 538.96,179.76 540.70,183.34 542.36,186.94 543.96,190.53 545.49,194.14 546.95,197.75 548.33,201.36 549.65,204.97 550.90,208.58 552.09,212.19 553.20,215.80 554.24,219.40 555.22,223.00 556.13,226.60 556.97,230.19 557.75,233.77 558.46,237.34 559.10,240.90 559.68,244.45 560.19,247.99 560.63,251.51 561.01,255.02 561.33,258.52 561.59,261.99 561.78,265.45 561.91,268.89 561.97,272.31 561.98,275.71 561.92,279.09 561.80,282.44 561.63,285.77 561.39,289.08 561.10,292.36 560.75,295.61 560.34,298.84 559.87,302.03 559.35,305.20 558.77,308.33 558.14,311.44 557.45,314.51 556.72,317.55 555.93,320.55 555.08,323.52 554.19,326.45 553.25,329.35 552.26,332.21 551.22,335.03 550.13,337.81 549.00,340.56 547.82,343.26 546.59,345.92 545.32,348.54 544.01,351.11 542.66,353.65 541.26,356.14 539.83,358.58 538.35,360.98 536.84,363.33 535.29,365.64 533.70,367.90 532.08,370.11 530.42,372.28 528.73,374.39 527.00,376.46 525.25,378.48 523.46,380.45 521.64,382.36 519.80,384.23 517.93,386.04 516.03,387.81 514.10,389.52 512.15,391.17 510.18,392.78 508.18,394.33 506.17,395.83 504.13,397.27 502.07,398.66 500.00,400.00" stroke="#1a1a2e" stroke-width="3.5" fill="none" stroke-linecap="round"/>
<polyline points="400.00,50.00 395.45,52.11 390.95,54.29 386.50,56.52 382.12,58.80 377.79,61.14 373.52,63.54 369.31,65.99 365.16,68.49 361.07,71.05 357.04,73.65 353.07,76.30 349.16,79.00 345.31,81.75 341.53,84.54 337.81,87.37 334.16,90.25 330.57,93.17 327.05,96.13 323.59,99.13 320.20,102.17 316.87,105.25 313.61,108.36 310.42,111.50 307.29,114.68 304.24,117.89 301.25,121.14 298.33,124.41 295.48,127.71 292.69,131.03 289.98,134.38 287.33,137.76 284.76,141.16 282.25,144.58 279.82,148.03 277.45,151.49 275.15,154.97 272.93,158.47 270.77,161.99 268.68,165.52 266.67,169.06 264.72,172.62 262.84,176.18 261.04,179.76 259.30,183.34 257.64,186.94 256.04,190.53 254.51,194.14 253.05,197.75 251.67,201.36 250.35,204.97 249.10,208.58 247.91,212.19 246.80,215.80 245.76,219.40 244.78,223.00 243.87,226.60 243.03,230.19 242.25,233.77 241.54,237.34 240.90,240.90 240.32,244.45 239.81,247.99 239.37,251.51 238.99,255.02 238.67,258.52 238.41,261.99 238.22,265.45 238.09,268.89 238.03,272.31 238.02,275.71 238.08,279.09 238.20,282.44 238.37,285.77 238.61,289.08 238.90,292.36 239.25,295.61 239.66,298.84 240.13,302.03 240.65,305.20 241.23,308.33 241.86,311.44 242.55,314.51 243.28,317.55 244.07,320.55 244.92,323.52 245.81,326.45 246.75,329.35 247.74,332.21 248.78,335.03 249.87,337.81 251.00,340.56 252.18,343.26 253.41,345.92 254.68,348.54 255.99,351.11 257.34,353.65 258.74,356.14 260.17,358.58 261.65,360.98 263.16,363.33 264.71,365.64 266.30,367.90 267.92,370.11 269.58,372.28 271.27,374.39 273.00,376.46 274.75,378.48 276.54,380.45 278.36,382.36 280.20,384.23 282.07,386.04 283.97,387.81 285.90,389.52 287.85,391.17 289.82,392.78 291.82,394.33 293.83,395.83 295.87,397.27 297.93,398.66 300.00,400.00" stroke="#1a1a2e" stroke-width="3.5" fill="none" stroke-linecap="round"/>
<polyline points="605.72,116.84 608.17,121.23 610.53,125.63 612.81,130.05 615.02,134.48 617.14,138.91 619.19,143.36 621.16,147.82 623.04,152.29 624.85,156.76 626.58,161.23 628.24,165.71 629.81,170.19 631.31,174.67 632.72,179.15 634.07,183.63 635.33,188.11 636.52,192.58 637.63,197.05 638.66,201.51 639.62,205.96 640.50,210.40 641.31,214.84 642.05,219.26 642.71,223.66 643.29,228.06 643.80,232.44 644.24,236.80 644.61,241.15 644.91,245.47 645.13,249.78 645.29,254.07 645.37,258.33 645.39,262.58 645.34,266.79 645.22,270.99 645.03,275.15 644.77,279.29 644.45,283.40 644.06,287.49 643.61,291.54 643.10,295.56 642.52,299.55 641.88,303.50 641.17,307.42 640.41,311.31 639.59,315.16 638.71,318.97 637.76,322.75 636.77,326.48 635.71,330.18 634.60,333.84 633.43,337.45 632.21,341.03 630.94,344.56 629.61,348.04 628.23,351.49 626.81,354.89 625.33,358.24 623.80,361.54 622.23,364.80 620.61,368.01 618.94,371.18 617.23,374.29 615.48,377.35 613.68,380.37 611.84,383.33 609.97,386.24 608.05,389.10 606.09,391.90 604.10,394.66 602.07,397.35 600.00,400.00 597.90,402.59 595.77,405.13 593.60,407.61 591.40,410.03 589.18,412.40 586.92,414.71 584.64,416.97 582.33,419.16 579.99,421.30 577.63,423.39 575.25,425.41 572.85,427.38 570.42,429.28 567.97,431.13 565.51,432.92 563.02,434.65 560.53,436.32 558.01,437.93 555.48,439.49 552.94,440.98 550.38,442.41 547.82,443.79 545.24,445.10 542.66,446.35 540.07,447.55 537.47,448.68 534.87,449.75 532.26,450.77 529.65,451.72 527.03,452.62 524.42,453.45 521.81,454.23 519.19,454.95 516.58,455.61 513.98,456.21 511.38,456.75 508.78,457.23 506.19,457.66 503.61,458.02 501.04,458.33 498.47,458.59 495.92,458.78 493.38,458.92 490.86,459.00 488.34,459.03 485.85,459.00 483.37,458.92 480.90,458.78" stroke="#1a1a2e" stroke-width="3.5" fill="none" stroke-linecap="round"/>
<polyline points="605.72,116.84 600.80,115.88 595.88,114.99 590.98,114.18 586.09,113.45 581.21,112.80 576.34,112.23 571.50,111.74 566.67,111.32 561.86,110.99 557.06,110.72 552.29,110.54 547.55,110.42 542.82,110.38 538.12,110.42 533.45,110.53 528.80,110.71 524.18,110.96 519.59,111.29 515.03,111.68 510.50,112.15 506.00,112.68 501.53,113.28 497.10,113.95 492.71,114.68 488.34,115.48 484.02,116.35 479.74,117.28 475.49,118.27 471.28,119.33 467.12,120.44 462.99,121.62 458.91,122.86 454.87,124.15 450.87,125.51 446.92,126.92 443.02,128.39 439.16,129.91 435.35,131.48 431.59,133.11 427.87,134.79 424.21,136.53 420.60,138.31 417.03,140.14 413.52,142.02 410.06,143.95 406.65,145.92 403.30,147.94 400.00,150.00 396.75,152.10 393.56,154.25 390.43,156.44 387.35,158.66 384.33,160.93 381.37,163.23 378.46,165.57 375.61,167.94 372.82,170.35 370.09,172.79 367.42,175.27 364.80,177.77 362.25,180.30 359.76,182.86 357.32,185.45 354.95,188.07 352.64,190.71 350.39,193.37 348.21,196.06 346.08,198.77 344.02,201.49 342.01,204.24 340.07,207.01 338.20,209.79 336.38,212.59 334.63,215.40 332.94,218.23 331.31,221.06 329.75,223.91 328.25,226.77 326.81,229.64 325.43,232.52 324.12,235.40 322.87,238.29 321.68,241.18 320.55,244.07 319.49,246.97 318.49,249.87 317.55,252.77 316.67,255.66 315.85,258.56 315.09,261.45 314.40,264.33 313.77,267.21 313.19,270.08 312.68,272.95 312.23,275.80 311.83,278.65 311.50,281.48 311.22,284.30 311.01,287.11 310.85,289.90 310.74,292.68 310.70,295.44 310.71,298.19 310.78,300.91 310.91,303.62 311.09,306.31 311.32,308.97 311.61,311.61 311.95,314.23 312.35,316.82 312.80,319.39 313.30,321.93 313.85,324.45 314.45,326.94 315.11,329.40 315.81,331.82 316.56,334.22 317.36,336.59 318.21,338.92 319.10,341.22" stroke="#1a1a2e" stroke-width="3.5" fill="none" stroke-linecap="round"/>
<polyline points="732.87,291.84 732.27,296.83 731.59,301.78 730.84,306.69 730.02,311.57 729.13,316.41 728.17,321.21 727.15,325.97 726.05,330.70 724.89,335.38 723.65,340.01 722.36,344.61 721.00,349.16 719.57,353.66 718.09,358.12 716.54,362.53 714.93,366.90 713.26,371.22 711.54,375.48 709.75,379.70 707.91,383.86 706.01,387.98 704.06,392.04 702.06,396.05 700.00,400.00 697.89,403.90 695.73,407.74 693.52,411.53 691.27,415.26 688.96,418.94 686.61,422.56 684.22,426.12 681.78,429.62 679.30,433.06 676.78,436.44 674.22,439.76 671.61,443.02 668.97,446.22 666.30,449.36 663.59,452.43 660.84,455.44 658.06,458.39 655.25,461.28 652.40,464.10 649.53,466.86 646.63,469.56 643.70,472.19 640.74,474.75 637.76,477.25 634.76,479.69 631.73,482.06 628.68,484.37 625.62,486.61 622.53,488.78 619.42,490.89 616.30,492.93 613.16,494.91 610.01,496.82 606.84,498.66 603.66,500.44 600.48,502.15 597.28,503.79 594.07,505.37 590.86,506.89 587.64,508.33 584.41,509.71 581.19,511.03 577.96,512.28 574.72,513.47 571.49,514.59 568.26,515.64 565.03,516.63 561.80,517.56 558.58,518.42 555.37,519.22 552.16,519.95 548.95,520.62 545.76,521.23 542.58,521.77 539.40,522.25 536.24,522.67 533.10,523.03 529.96,523.33 526.85,523.57 523.74,523.74 520.66,523.86 517.59,523.92 514.55,523.92 511.52,523.86 508.52,523.74 505.54,523.57 502.58,523.34 499.64,523.05 496.73,522.71 493.85,522.31 491.00,521.86 488.17,521.35 485.37,520.79 482.60,520.19 479.86,519.52 477.16,518.81 474.48,518.05 471.84,517.24 469.24,516.38 466.67,515.47 464.13,514.52 461.63,513.51 459.17,512.47 456.75,511.38 454.36,510.24 452.02,509.06 449.72,507.84 447.45,506.58 445.23,505.28 443.05,503.94 440.92,502.56 438.82,501.14 436.77,499.68 434.77,498.19 432.81,496.67 430.90,495.11" stroke="#1a1a2e" stroke-width="3.5" fill="none" stroke-linecap="round"/>
<polyline points="732.87,291.84 729.45,288.17 726.00,284.56 722.50,281.02 718.97,277.56 715.41,274.16 711.81,270.84 708.18,267.60 704.52,264.42 700.82,261.32 697.10,258.29 693.35,255.33 689.58,252.45 685.78,249.65 681.95,246.91 678.11,244.25 674.24,241.67 670.35,239.16 666.45,236.72 662.53,234.36 658.59,232.07 654.64,229.86 650.67,227.72 646.69,225.65 642.71,223.66 638.71,221.75 634.70,219.91 630.69,218.14 626.67,216.45 622.64,214.83 618.62,213.28 614.59,211.81 610.56,210.41 606.53,209.09 602.50,207.83 598.48,206.65 594.45,205.55 590.44,204.51 586.43,203.54 582.43,202.65 578.43,201.83 574.45,201.08 570.48,200.39 566.52,199.78 562.57,199.24 558.64,198.76 554.73,198.36 550.83,198.02 546.95,197.75 543.08,197.54 539.24,197.40 535.42,197.33 531.62,197.32 527.85,197.38 524.09,197.50 520.37,197.68 516.67,197.93 512.99,198.24 509.35,198.60 505.73,199.03 502.15,199.52 498.59,200.07 495.07,200.68 491.58,201.34 488.13,202.07 484.71,202.84 481.32,203.68 477.97,204.56 474.66,205.50 471.39,206.50 468.15,207.54 464.96,208.64 461.80,209.79 458.69,210.99 455.62,212.23 452.59,213.52 449.61,214.86 446.67,216.25 443.77,217.68 440.92,219.16 438.12,220.67 435.36,222.23 432.65,223.83 429.99,225.47 427.38,227.15 424.81,228.87 422.30,230.63 419.83,232.42 417.42,234.25 415.06,236.11 412.75,238.00 410.49,239.93 408.29,241.88 406.13,243.87 404.04,245.89 401.99,247.93 400.00,250.00 398.06,252.10 396.18,254.22 394.36,256.36 392.59,258.53 390.87,260.72 389.21,262.92 387.61,265.15 386.06,267.40 384.57,269.66 383.14,271.94 381.76,274.23 380.45,276.54 379.18,278.86 377.98,281.19 376.83,283.53 375.74,285.88 374.71,288.24 373.74,290.61 372.82,292.98 371.96,295.36 371.16,297.74 370.42,300.12 369.73,302.51 369.10,304.89" stroke="#1a1a2e" stroke-width="3.5" fill="none" stroke-linecap="round"/>
<polyline points="732.87,508.16 729.45,511.83 726.00,515.44 722.50,518.98 718.97,522.44 715.41,525.84 711.81,529.16 708.18,532.40 704.52,535.58 700.82,538.68 697.10,541.71 693.35,544.67 689.58,547.55 685.78,550.35 681.95,553.09 678.11,555.75 674.24,558.33 670.35,560.84 666.45,563.28 662.53,565.64 658.59,567.93 654.64,570.14 650.67,572.28 646.69,574.35 642.71,576.34 638.71,578.25 634.70,580.09 630.69,581.86 626.67,583.55 622.64,585.17 618.62,586.72 614.59,588.19 610.56,589.59 606.53,590.91 602.50,592.17 598.48,593.35 594.45,594.45 590.44,595.49 586.43,596.46 582.43,597.35 578.43,598.17 574.45,598.92 570.48,599.61 566.52,600.22 562.57,600.76 558.64,601.24 554.73,601.64 550.83,601.98 546.95,602.25 543.08,602.46 539.24,602.60 535.42,602.67 531.62,602.68 527.85,602.62 524.09,602.50 520.37,602.32 516.67,602.07 512.99,601.76 509.35,601.40 505.73,600.97 502.15,600.48 498.59,599.93 495.07,599.32 491.58,598.66 488.13,597.93 484.71,597.16 481.32,596.32 477.97,595.44 474.66,594.50 471.39,593.50 468.15,592.46 464.96,591.36 461.80,590.21 458.69,589.01 455.62,587.77 452.59,586.48 449.61,585.14 446.67,583.75 443.77,582.32 440.92,580.84 438.12,579.33 435.36,577.77 432.65,576.17 429.99,574.53 427.38,572.85 424.81,571.13 422.30,569.37 419.83,567.58 417.42,565.75 415.06,563.89 412.75,562.00 410.49,560.07 408.29,558.12 406.13,556.13 404.04,554.11 401.99,552.07 400.00,550.00 398.06,547.90 396.18,545.78 394.36,543.64 392.59,541.47 390.87,539.28 389.21,537.08 387.61,534.85 386.06,532.60 384.57,530.34 383.14,528.06 381.76,525.77 380.45,523.46 379.18,521.14 377.98,518.81 376.83,516.47 375.74,514.12 374.71,511.76 373.74,509.39 372.82,507.02 371.96,504.64 371.16,502.26 370.42,499.88 369.73,497.49 369.10,495.11" stroke="#1a1a2e" stroke-width="3.5" fill="none" stroke-linecap="round"/>
<polyline points="732.87,508.16 732.27,503.17 731.59,498.22 730.84,493.31 730.02,488.43 729.13,483.59 728.17,478.79 727.15,474.03 726.05,469.30 724.89,464.62 723.65,459.99 722.36,455.39 721.00,450.84 719.57,446.34 718.09,441.88 716.54,437.47 714.93,433.10 713.26,428.78 711.54,424.52 709.75,420.30 707.91,416.14 706.01,412.02 704.06,407.96 702.06,403.95 700.00,400.00 697.89,396.10 695.73,392.26 693.52,388.47 691.27,384.74 688.96,381.06 686.61,377.44 684.22,373.88 681.78,370.38 679.30,366.94 676.78,363.56 674.22,360.24 671.61,356.98 668.97,353.78 666.30,350.64 663.59,347.57 660.84,344.56 658.06,341.61 655.25,338.72 652.40,335.90 649.53,333.14 646.63,330.44 643.70,327.81 640.74,325.25 637.76,322.75 634.76,320.31 631.73,317.94 628.68,315.63 625.62,313.39 622.53,311.22 619.42,309.11 616.30,307.07 613.16,305.09 610.01,303.18 606.84,301.34 603.66,299.56 600.48,297.85 597.28,296.21 594.07,294.63 590.86,293.11 587.64,291.67 584.41,290.29 581.19,288.97 577.96,287.72 574.72,286.53 571.49,285.41 568.26,284.36 565.03,283.37 561.80,282.44 558.58,281.58 555.37,280.78 552.16,280.05 548.95,279.38 545.76,278.77 542.58,278.23 539.40,277.75 536.24,277.33 533.10,276.97 529.96,276.67 526.85,276.43 523.74,276.26 520.66,276.14 517.59,276.08 514.55,276.08 511.52,276.14 508.52,276.26 505.54,276.43 502.58,276.66 499.64,276.95 496.73,277.29 493.85,277.69 491.00,278.14 488.17,278.65 485.37,279.21 482.60,279.81 479.86,280.48 477.16,281.19 474.48,281.95 471.84,282.76 469.24,283.62 466.67,284.53 464.13,285.48 461.63,286.49 459.17,287.53 456.75,288.62 454.36,289.76 452.02,290.94 449.72,292.16 447.45,293.42 445.23,294.72 443.05,296.06 440.92,297.44 438.82,298.86 436.77,300.32 434.77,301.81 432.81,303.33 430.90,304.89" stroke="#1a1a2e" stroke-width="3.5" fill="none" stroke-linecap="round"/>
<polyline points="605.72,683.16 600.80,684.12 595.88,685.01 590.98,685.82 586.09,686.55 581.21,687.20 576.34,687.77 571.50,688.26 566.67,688.68 561.86,689.01 557.06,689.28 552.29,689.46 547.55,689.58 542.82,689.62 538.12,689.58 533.45,689.47 528.80,689.29 524.18,689.04 519.59,688.71 515.03,688.32 510.50,687.85 506.00,687.32 501.53,686.72 497.10,686.05 492.71,685.32 488.34,684.52 484.02,683.65 479.74,682.72 475.49,681.73 471.28,680.67 467.12,679.56 462.99,678.38 458.91,677.14 454.87,675.85 450.87,674.49 446.92,673.08 443.02,671.61 439.16,670.09 435.35,668.52 431.59,666.89 427.87,665.21 424.21,663.47 420.60,661.69 417.03,659.86 413.52,657.98 410.06,656.05 406.65,654.08 403.30,652.06 400.00,650.00 396.75,647.90 393.56,645.75 390.43,643.56 387.35,641.34 384.33,639.07 381.37,636.77 378.46,634.43 375.61,632.06 372.82,629.65 370.09,627.21 367.42,624.73 364.80,622.23 362.25,619.70 359.76,617.14 357.32,614.55 354.95,611.93 352.64,609.29 350.39,606.63 348.21,603.94 346.08,601.23 344.02,598.51 342.01,595.76 340.07,592.99 338.20,590.21 336.38,587.41 334.63,584.60 332.94,581.77 331.31,578.94 329.75,576.09 328.25,573.23 326.81,570.36 325.43,567.48 324.12,564.60 322.87,561.71 321.68,558.82 320.55,555.93 319.49,553.03 318.49,550.13 317.55,547.23 316.67,544.34 315.85,541.44 315.09,538.55 314.40,535.67 313.77,532.79 313.19,529.92 312.68,527.05 312.23,524.20 311.83,521.35 311.50,518.52 311.22,515.70 311.01,512.89 310.85,510.10 310.74,507.32 310.70,504.56 310.71,501.81 310.78,499.09 310.91,496.38 311.09,493.69 311.32,491.03 311.61,488.39 311.95,485.77 312.35,483.18 312.80,480.61 313.30,478.07 313.85,475.55 314.45,473.06 315.11,470.60 315.81,468.18 316.56,465.78 317.36,463.41 318.21,461.08 319.10,458.78" stroke="#1a1a2e" stroke-width="3.5" fill="none" stroke-linecap="round"/>
<polyline points="605.72,683.16 608.17,678.77 610.53,674.37 612.81,669.95 615.02,665.52 617.14,661.09 619.19,656.64 621.16,652.18 623.04,647.71 624.85,643.24 626.58,638.77 628.24,634.29 629.81,629.81 631.31,625.33 632.72,620.85 634.07,616.37 635.33,611.89 636.52,607.42 637.63,602.95 638.66,598.49 639.62,594.04 640.50,589.60 641.31,585.16 642.05,580.74 642.71,576.34 643.29,571.94 643.80,567.56 644.24,563.20 644.61,558.85 644.91,554.53 645.13,550.22 645.29,545.93 645.37,541.67 645.39,537.42 645.34,533.21 645.22,529.01 645.03,524.85 644.77,520.71 644.45,516.60 644.06,512.51 643.61,508.46 643.10,504.44 642.52,500.45 641.88,496.50 641.17,492.58 640.41,488.69 639.59,484.84 638.71,481.03 637.76,477.25 636.77,473.52 635.71,469.82 634.60,466.16 633.43,462.55 632.21,458.97 630.94,455.44 629.61,451.96 628.23,448.51 626.81,445.11 625.33,441.76 623.80,438.46 622.23,435.20 620.61,431.99 618.94,428.82 617.23,425.71 615.48,422.65 613.68,419.63 611.84,416.67 609.97,413.76 608.05,410.90 606.09,408.10 604.10,405.34 602.07,402.65 600.00,400.00 597.90,397.41 595.77,394.87 593.60,392.39 591.40,389.97 589.18,387.60 586.92,385.29 584.64,383.03 582.33,380.84 579.99,378.70 577.63,376.61 575.25,374.59 572.85,372.62 570.42,370.72 567.97,368.87 565.51,367.08 563.02,365.35 560.53,363.68 558.01,362.07 555.48,360.51 552.94,359.02 550.38,357.59 547.82,356.21 545.24,354.90 542.66,353.65 540.07,352.45 537.47,351.32 534.87,350.25 532.26,349.23 529.65,348.28 527.03,347.38 524.42,346.55 521.81,345.77 519.19,345.05 516.58,344.39 513.98,343.79 511.38,343.25 508.78,342.77 506.19,342.34 503.61,341.98 501.04,341.67 498.47,341.41 495.92,341.22 493.38,341.08 490.86,341.00 488.34,340.97 485.85,341.00 483.37,341.08 480.90,341.22" stroke="#1a1a2e" stroke-width="3.5" fill="none" stroke-linecap="round"/>
<polyline points="400.00,750.00 395.45,747.89 390.95,745.71 386.50,743.48 382.12,741.20 377.79,738.86 373.52,736.46 369.31,734.01 365.16,731.51 361.07,728.95 357.04,726.35 353.07,723.70 349.16,721.00 345.31,718.25 341.53,715.46 337.81,712.63 334.16,709.75 330.57,706.83 327.05,703.87 323.59,700.87 320.20,697.83 316.87,694.75 313.61,691.64 310.42,688.50 307.29,685.32 304.24,682.11 301.25,678.86 298.33,675.59 295.48,672.29 292.69,668.97 289.98,665.62 287.33,662.24 284.76,658.84 282.25,655.42 279.82,651.97 277.45,648.51 275.15,645.03 272.93,641.53 270.77,638.01 268.68,634.48 266.67,630.94 264.72,627.38 262.84,623.82 261.04,620.24 259.30,616.66 257.64,613.06 256.04,609.47 254.51,605.86 253.05,602.25 251.67,598.64 250.35,595.03 249.10,591.42 247.91,587.81 246.80,584.20 245.76,580.60 244.78,577.00 243.87,573.40 243.03,569.81 242.25,566.23 241.54,562.66 240.90,559.10 240.32,555.55 239.81,552.01 239.37,548.49 238.99,544.98 238.67,541.48 238.41,538.01 238.22,534.55 238.09,531.11 238.03,527.69 238.02,524.29 238.08,520.91 238.20,517.56 238.37,514.23 238.61,510.92 238.90,507.64 239.25,504.39 239.66,501.16 240.13,497.97 240.65,494.80 241.23,491.67 241.86,488.56 242.55,485.49 243.28,482.45 244.07,479.45 244.92,476.48 245.81,473.55 246.75,470.65 247.74,467.79 248.78,464.97 249.87,462.19 251.00,459.44 252.18,456.74 253.41,454.08 254.68,451.46 255.99,448.89 257.34,446.35 258.74,443.86 260.17,441.42 261.65,439.02 263.16,436.67 264.71,434.36 266.30,432.10 267.92,429.89 269.58,427.72 271.27,425.61 273.00,423.54 274.75,421.52 276.54,419.55 278.36,417.64 280.20,415.77 282.07,413.96 283.97,412.19 285.90,410.48 287.85,408.83 289.82,407.22 291.82,405.67 293.83,404.17 295.87,402.73 297.93,401.34 300.00,400.00" stroke="#1a1a2e" stroke-width="3.5" fill="none" stroke-linecap="round"/>
<polyline points="400.00,750.00 404.55,747.89 409.05,745.71 413.50,743.48 417.88,741.20 422.21,738.86 426.48,736.46 430.69,734.01 434.84,731.51 438.93,728.95 442.96,726.35 446.93,723.70 450.84,721.00 454.69,718.25 458.47,715.46 462.19,712.63 465.84,709.75 469.43,706.83 472.95,703.87 476.41,700.87 479.80,697.83 483.13,694.75 486.39,691.64 489.58,688.50 492.71,685.32 495.76,682.11 498.75,678.86 501.67,675.59 504.52,672.29 507.31,668.97 510.02,665.62 512.67,662.24 515.24,658.84 517.75,655.42 520.18,651.97 522.55,648.51 524.85,645.03 527.07,641.53 529.23,638.01 531.32,634.48 533.33,630.94 535.28,627.38 537.16,623.82 538.96,620.24 540.70,616.66 542.36,613.06 543.96,609.47 545.49,605.86 546.95,602.25 548.33,598.64 549.65,595.03 550.90,591.42 552.09,587.81 553.20,584.20 554.24,580.60 555.22,577.00 556.13,573.40 556.97,569.81 557.75,566.23 558.46,562.66 559.10,559.10 559.68,555.55 560.19,552.01 560.63,548.49 561.01,544.98 561.33,541.48 561.59,538.01 561.78,534.55 561.91,531.11 561.97,527.69 561.98,524.29 561.92,520.91 561.80,517.56 561.63,514.23 561.39,510.92 561.10,507.64 560.75,504.39 560.34,501.16 559.87,497.97 559.35,494.80 558.77,491.67 558.14,488.56 557.45,485.49 556.72,482.45 555.93,479.45 555.08,476.48 554.19,473.55 553.25,470.65 552.26,467.79 551.22,464.97 550.13,462.19 549.00,459.44 547.82,456.74 546.59,454.08 545.32,451.46 544.01,448.89 542.66,446.35 541.26,443.86 539.83,441.42 538.35,439.02 536.84,436.67 535.29,434.36 533.70,432.10 532.08,429.89 530.42,427.72 528.73,425.61 527.00,423.54 525.25,421.52 523.46,419.55 521.64,417.64 519.80,415.77 517.93,413.96 516.03,412.19 514.10,410.48 512.15,408.83 510.18,407.22 508.18,405.67 506.17,404.17 504.13,402.73 502.07,401.34 500.00,400.00" stroke="#1a1a2e" stroke-width="3.5" fill="none" stroke-linecap="round"/>
<polyline points="194.28,683.16 191.83,678.77 189.47,674.37 187.19,669.95 184.98,665.52 182.86,661.09 180.81,656.64 178.84,652.18 176.96,647.71 175.15,643.24 173.42,638.77 171.76,634.29 170.19,629.81 168.69,625.33 167.28,620.85 165.93,616.37 164.67,611.89 163.48,607.42 162.37,602.95 161.34,598.49 160.38,594.04 159.50,589.60 158.69,585.16 157.95,580.74 157.29,576.34 156.71,571.94 156.20,567.56 155.76,563.20 155.39,558.85 155.09,554.53 154.87,550.22 154.71,545.93 154.63,541.67 154.61,537.42 154.66,533.21 154.78,529.01 154.97,524.85 155.23,520.71 155.55,516.60 155.94,512.51 156.39,508.46 156.90,504.44 157.48,500.45 158.12,496.50 158.83,492.58 159.59,488.69 160.41,484.84 161.29,481.03 162.24,477.25 163.23,473.52 164.29,469.82 165.40,466.16 166.57,462.55 167.79,458.97 169.06,455.44 170.39,451.96 171.77,448.51 173.19,445.11 174.67,441.76 176.20,438.46 177.77,435.20 179.39,431.99 181.06,428.82 182.77,425.71 184.52,422.65 186.32,419.63 188.16,416.67 190.03,413.76 191.95,410.90 193.91,408.10 195.90,405.34 197.93,402.65 200.00,400.00 202.10,397.41 204.23,394.87 206.40,392.39 208.60,389.97 210.82,387.60 213.08,385.29 215.36,383.03 217.67,380.84 220.01,378.70 222.37,376.61 224.75,374.59 227.15,372.62 229.58,370.72 232.03,368.87 234.49,367.08 236.98,365.35 239.47,363.68 241.99,362.07 244.52,360.51 247.06,359.02 249.62,357.59 252.18,356.21 254.76,354.90 257.34,353.65 259.93,352.45 262.53,351.32 265.13,350.25 267.74,349.23 270.35,348.28 272.97,347.38 275.58,346.55 278.19,345.77 280.81,345.05 283.42,344.39 286.02,343.79 288.62,343.25 291.22,342.77 293.81,342.34 296.39,341.98 298.96,341.67 301.53,341.41 304.08,341.22 306.62,341.08 309.14,341.00 311.66,340.97 314.15,341.00 316.63,341.08 319.10,341.22" stroke="#1a1a2e" stroke-width="3.5" fill="none" stroke-linecap="round"/>
<polyline points="194.28,683.16 199.20,684.12 204.12,685.01 209.02,685.82 213.91,686.55 218.79,687.20 223.66,687.77 228.50,688.26 233.33,688.68 238.14,689.01 242.94,689.28 247.71,689.46 252.45,689.58 257.18,689.62 261.88,689.58 266.55,689.47 271.20,689.29 275.82,689.04 280.41,688.71 284.97,688.32 289.50,687.85 294.00,687.32 298.47,686.72 302.90,686.05 307.29,685.32 311.66,684.52 315.98,683.65 320.26,682.72 324.51,681.73 328.72,680.67 332.88,679.56 337.01,678.38 341.09,677.14 345.13,675.85 349.13,674.49 353.08,673.08 356.98,671.61 360.84,670.09 364.65,668.52 368.41,666.89 372.13,665.21 375.79,663.47 379.40,661.69 382.97,659.86 386.48,657.98 389.94,656.05 393.35,654.08 396.70,652.06 400.00,650.00 403.25,647.90 406.44,645.75 409.57,643.56 412.65,641.34 415.67,639.07 418.63,636.77 421.54,634.43 424.39,632.06 427.18,629.65 429.91,627.21 432.58,624.73 435.20,622.23 437.75,619.70 440.24,617.14 442.68,614.55 445.05,611.93 447.36,609.29 449.61,606.63 451.79,603.94 453.92,601.23 455.98,598.51 457.99,595.76 459.93,592.99 461.80,590.21 463.62,587.41 465.37,584.60 467.06,581.77 468.69,578.94 470.25,576.09 471.75,573.23 473.19,570.36 474.57,567.48 475.88,564.60 477.13,561.71 478.32,558.82 479.45,555.93 480.51,553.03 481.51,550.13 482.45,547.23 483.33,544.34 484.15,541.44 484.91,538.55 485.60,535.67 486.23,532.79 486.81,529.92 487.32,527.05 487.77,524.20 488.17,521.35 488.50,518.52 488.78,515.70 488.99,512.89 489.15,510.10 489.26,507.32 489.30,504.56 489.29,501.81 489.22,499.09 489.09,496.38 488.91,493.69 488.68,491.03 488.39,488.39 488.05,485.77 487.65,483.18 487.20,480.61 486.70,478.07 486.15,475.55 485.55,473.06 484.89,470.60 484.19,468.18 483.44,465.78 482.64,463.41 481.79,461.08 480.90,458.78" stroke="#1a1a2e" stroke-width="3.5" fill="none" stroke-linecap="round"/>
<polyline points="67.13,508.16 67.73,503.17 68.41,498.22 69.16,493.31 69.98,488.43 70.87,483.59 71.83,478.79 72.85,474.03 73.95,469.30 75.11,464.62 76.35,459.99 77.64,455.39 79.00,450.84 80.43,446.34 81.91,441.88 83.46,437.47 85.07,433.10 86.74,428.78 88.46,424.52 90.25,420.30 92.09,416.14 93.99,412.02 95.94,407.96 97.94,403.95 100.00,400.00 102.11,396.10 104.27,392.26 106.48,388.47 108.73,384.74 111.04,381.06 113.39,377.44 115.78,373.88 118.22,370.38 120.70,366.94 123.22,363.56 125.78,360.24 128.39,356.98 131.03,353.78 133.70,350.64 136.41,347.57 139.16,344.56 141.94,341.61 144.75,338.72 147.60,335.90 150.47,333.14 153.37,330.44 156.30,327.81 159.26,325.25 162.24,322.75 165.24,320.31 168.27,317.94 171.32,315.63 174.38,313.39 177.47,311.22 180.58,309.11 183.70,307.07 186.84,305.09 189.99,303.18 193.16,301.34 196.34,299.56 199.52,297.85 202.72,296.21 205.93,294.63 209.14,293.11 212.36,291.67 215.59,290.29 218.81,288.97 222.04,287.72 225.28,286.53 228.51,285.41 231.74,284.36 234.97,283.37 238.20,282.44 241.42,281.58 244.63,280.78 247.84,280.05 251.05,279.38 254.24,278.77 257.42,278.23 260.60,277.75 263.76,277.33 266.90,276.97 270.04,276.67 273.15,276.43 276.26,276.26 279.34,276.14 282.41,276.08 285.45,276.08 288.48,276.14 291.48,276.26 294.46,276.43 297.42,276.66 300.36,276.95 303.27,277.29 306.15,277.69 309.00,278.14 311.83,278.65 314.63,279.21 317.40,279.81 320.14,280.48 322.84,281.19 325.52,281.95 328.16,282.76 330.76,283.62 333.33,284.53 335.87,285.48 338.37,286.49 340.83,287.53 343.25,288.62 345.64,289.76 347.98,290.94 350.28,292.16 352.55,293.42 354.77,294.72 356.95,296.06 359.08,297.44 361.18,298.86 363.23,300.32 365.23,301.81 367.19,303.33 369.10,304.89" stroke="#1a1a2e" stroke-width="3.5" fill="none" stroke-linecap="round"/>
<polyline points="67.13,508.16 70.55,511.83 74.00,515.44 77.50,518.98 81.03,522.44 84.59,525.84 88.19,529.16 91.82,532.40 95.48,535.58 99.18,538.68 102.90,541.71 106.65,544.67 110.42,547.55 114.22,550.35 118.05,553.09 121.89,555.75 125.76,558.33 129.65,560.84 133.55,563.28 137.47,565.64 141.41,567.93 145.36,570.14 149.33,572.28 153.31,574.35 157.29,576.34 161.29,578.25 165.30,580.09 169.31,581.86 173.33,583.55 177.36,585.17 181.38,586.72 185.41,588.19 189.44,589.59 193.47,590.91 197.50,592.17 201.52,593.35 205.55,594.45 209.56,595.49 213.57,596.46 217.57,597.35 221.57,598.17 225.55,598.92 229.52,599.61 233.48,600.22 237.43,600.76 241.36,601.24 245.27,601.64 249.17,601.98 253.05,602.25 256.92,602.46 260.76,602.60 264.58,602.67 268.38,602.68 272.15,602.62 275.91,602.50 279.63,602.32 283.33,602.07 287.01,601.76 290.65,601.40 294.27,600.97 297.85,600.48 301.41,599.93 304.93,599.32 308.42,598.66 311.87,597.93 315.29,597.16 318.68,596.32 322.03,595.44 325.34,594.50 328.61,593.50 331.85,592.46 335.04,591.36 338.20,590.21 341.31,589.01 344.38,587.77 347.41,586.48 350.39,585.14 353.33,583.75 356.23,582.32 359.08,580.84 361.88,579.33 364.64,577.77 367.35,576.17 370.01,574.53 372.62,572.85 375.19,571.13 377.70,569.37 380.17,567.58 382.58,565.75 384.94,563.89 387.25,562.00 389.51,560.07 391.71,558.12 393.87,556.13 395.96,554.11 398.01,552.07 400.00,550.00 401.94,547.90 403.82,545.78 405.64,543.64 407.41,541.47 409.13,539.28 410.79,537.08 412.39,534.85 413.94,532.60 415.43,530.34 416.86,528.06 418.24,525.77 419.55,523.46 420.82,521.14 422.02,518.81 423.17,516.47 424.26,514.12 425.29,511.76 426.26,509.39 427.18,507.02 428.04,504.64 428.84,502.26 429.58,499.88 430.27,497.49 430.90,495.11" stroke="#1a1a2e" stroke-width="3.5" fill="none" stroke-linecap="round"/>
<polyline points="67.13,291.84 70.55,288.17 74.00,284.56 77.50,281.02 81.03,277.56 84.59,274.16 88.19,270.84 91.82,267.60 95.48,264.42 99.18,261.32 102.90,258.29 106.65,255.33 110.42,252.45 114.22,249.65 118.05,246.91 121.89,244.25 125.76,241.67 129.65,239.16 133.55,236.72 137.47,234.36 141.41,232.07 145.36,229.86 149.33,227.72 153.31,225.65 157.29,223.66 161.29,221.75 165.30,219.91 169.31,218.14 173.33,216.45 177.36,214.83 181.38,213.28 185.41,211.81 189.44,210.41 193.47,209.09 197.50,207.83 201.52,206.65 205.55,205.55 209.56,204.51 213.57,203.54 217.57,202.65 221.57,201.83 225.55,201.08 229.52,200.39 233.48,199.78 237.43,199.24 241.36,198.76 245.27,198.36 249.17,198.02 253.05,197.75 256.92,197.54 260.76,197.40 264.58,197.33 268.38,197.32 272.15,197.38 275.91,197.50 279.63,197.68 283.33,197.93 287.01,198.24 290.65,198.60 294.27,199.03 297.85,199.52 301.41,200.07 304.93,200.68 308.42,201.34 311.87,202.07 315.29,202.84 318.68,203.68 322.03,204.56 325.34,205.50 328.61,206.50 331.85,207.54 335.04,208.64 338.20,209.79 341.31,210.99 344.38,212.23 347.41,213.52 350.39,214.86 353.33,216.25 356.23,217.68 359.08,219.16 361.88,220.67 364.64,222.23 367.35,223.83 370.01,225.47 372.62,227.15 375.19,228.87 377.70,230.63 380.17,232.42 382.58,234.25 384.94,236.11 387.25,238.00 389.51,239.93 391.71,241.88 393.87,243.87 395.96,245.89 398.01,247.93 400.00,250.00 401.94,252.10 403.82,254.22 405.64,256.36 407.41,258.53 409.13,260.72 410.79,262.92 412.39,265.15 413.94,267.40 415.43,269.66 416.86,271.94 418.24,274.23 419.55,276.54 420.82,278.86 422.02,281.19 423.17,283.53 424.26,285.88 425.29,288.24 426.26,290.61 427.18,292.98 428.04,295.36 428.84,297.74 429.58,300.12 430.27,302.51 430.90,304.89" stroke="#1a1a2e" stroke-width="3.5" fill="none" stroke-linecap="round"/>
<polyline points="67.13,291.84 67.73,296.83 68.41,301.78 69.16,306.69 69.98,311.57 70.87,316.41 71.83,321.21 72.85,325.97 73.95,330.70 75.11,335.38 76.35,340.01 77.64,344.61 79.00,349.16 80.43,353.66 81.91,358.12 83.46,362.53 85.07,366.90 86.74,371.22 88.46,375.48 90.25,379.70 92.09,383.86 93.99,387.98 95.94,392.04 97.94,396.05 100.00,400.00 102.11,403.90 104.27,407.74 106.48,411.53 108.73,415.26 111.04,418.94 113.39,422.56 115.78,426.12 118.22,429.62 120.70,433.06 123.22,436.44 125.78,439.76 128.39,443.02 131.03,446.22 133.70,449.36 136.41,452.43 139.16,455.44 141.94,458.39 144.75,461.28 147.60,464.10 150.47,466.86 153.37,469.56 156.30,472.19 159.26,474.75 162.24,477.25 165.24,479.69 168.27,482.06 171.32,484.37 174.38,486.61 177.47,488.78 180.58,490.89 183.70,492.93 186.84,494.91 189.99,496.82 193.16,498.66 196.34,500.44 199.52,502.15 202.72,503.79 205.93,505.37 209.14,506.89 212.36,508.33 215.59,509.71 218.81,511.03 222.04,512.28 225.28,513.47 228.51,514.59 231.74,515.64 234.97,516.63 238.20,517.56 241.42,518.42 244.63,519.22 247.84,519.95 251.05,520.62 254.24,521.23 257.42,521.77 260.60,522.25 263.76,522.67 266.90,523.03 270.04,523.33 273.15,523.57 276.26,523.74 279.34,523.86 282.41,523.92 285.45,523.92 288.48,523.86 291.48,523.74 294.46,523.57 297.42,523.34 300.36,523.05 303.27,522.71 306.15,522.31 309.00,521.86 311.83,521.35 314.63,520.79 317.40,520.19 320.14,519.52 322.84,518.81 325.52,518.05 328.16,517.24 330.76,516.38 333.33,515.47 335.87,514.52 338.37,513.51 340.83,512.47 343.25,511.38 345.64,510.24 347.98,509.06 350.28,507.84 352.55,506.58 354.77,505.28 356.95,503.94 359.08,502.56 361.18,501.14 363.23,499.68 365.23,498.19 367.19,496.67 369.10,495.11" stroke="#1a1a2e" stroke-width="3.5" fill="none" stroke-linecap="round"/>
<polyline points="194.28,116.84 199.20,115.88 204.12,114.99 209.02,114.18 213.91,113.45 218.79,112.80 223.66,112.23 228.50,111.74 233.33,111.32 238.14,110.99 242.94,110.72 247.71,110.54 252.45,110.42 257.18,110.38 261.88,110.42 266.55,110.53 271.20,110.71 275.82,110.96 280.41,111.29 284.97,111.68 289.50,112.15 294.00,112.68 298.47,113.28 302.90,113.95 307.29,114.68 311.66,115.48 315.98,116.35 320.26,117.28 324.51,118.27 328.72,119.33 332.88,120.44 337.01,121.62 341.09,122.86 345.13,124.15 349.13,125.51 353.08,126.92 356.98,128.39 360.84,129.91 364.65,131.48 368.41,133.11 372.13,134.79 375.79,136.53 379.40,138.31 382.97,140.14 386.48,142.02 389.94,143.95 393.35,145.92 396.70,147.94 400.00,150.00 403.25,152.10 406.44,154.25 409.57,156.44 412.65,158.66 415.67,160.93 418.63,163.23 421.54,165.57 424.39,167.94 427.18,170.35 429.91,172.79 432.58,175.27 435.20,177.77 437.75,180.30 440.24,182.86 442.68,185.45 445.05,188.07 447.36,190.71 449.61,193.37 451.79,196.06 453.92,198.77 455.98,201.49 457.99,204.24 459.93,207.01 461.80,209.79 463.62,212.59 465.37,215.40 467.06,218.23 468.69,221.06 470.25,223.91 471.75,226.77 473.19,229.64 474.57,232.52 475.88,235.40 477.13,238.29 478.32,241.18 479.45,244.07 480.51,246.97 481.51,249.87 482.45,252.77 483.33,255.66 484.15,258.56 484.91,261.45 485.60,264.33 486.23,267.21 486.81,270.08 487.32,272.95 487.77,275.80 488.17,278.65 488.50,281.48 488.78,284.30 488.99,287.11 489.15,289.90 489.26,292.68 489.30,295.44 489.29,298.19 489.22,300.91 489.09,303.62 488.91,306.31 488.68,308.97 488.39,311.61 488.05,314.23 487.65,316.82 487.20,319.39 486.70,321.93 486.15,324.45 485.55,326.94 484.89,329.40 484.19,331.82 483.44,334.22 482.64,336.59 481.79,338.92 480.90,341.22" stroke="#1a1a2e" stroke-width="3.5" fill="none" stroke-linecap="round"/>
<polyline points="194.28,116.84 191.83,121.23 189.47,125.63 187.19,130.05 184.98,134.48 182.86,138.91 180.81,143.36 178.84,147.82 176.96,152.29 175.15,156.76 173.42,161.23 171.76,165.71 170.19,170.19 168.69,174.67 167.28,179.15 165.93,183.63 164.67,188.11 163.48,192.58 162.37,197.05 161.34,201.51 160.38,205.96 159.50,210.40 158.69,214.84 157.95,219.26 157.29,223.66 156.71,228.06 156.20,232.44 155.76,236.80 155.39,241.15 155.09,245.47 154.87,249.78 154.71,254.07 154.63,258.33 154.61,262.58 154.66,266.79 154.78,270.99 154.97,275.15 155.23,279.29 155.55,283.40 155.94,287.49 156.39,291.54 156.90,295.56 157.48,299.55 158.12,303.50 158.83,307.42 159.59,311.31 160.41,315.16 161.29,318.97 162.24,322.75 163.23,326.48 164.29,330.18 165.40,333.84 166.57,337.45 167.79,341.03 169.06,344.56 170.39,348.04 171.77,351.49 173.19,354.89 174.67,358.24 176.20,361.54 177.77,364.80 179.39,368.01 181.06,371.18 182.77,374.29 184.52,377.35 186.32,380.37 188.16,383.33 190.03,386.24 191.95,389.10 193.91,391.90 195.90,394.66 197.93,397.35 200.00,400.00 202.10,402.59 204.23,405.13 206.40,407.61 208.60,410.03 210.82,412.40 213.08,414.71 215.36,416.97 217.67,419.16 220.01,421.30 222.37,423.39 224.75,425.41 227.15,427.38 229.58,429.28 232.03,431.13 234.49,432.92 236.98,434.65 239.47,436.32 241.99,437.93 244.52,439.49 247.06,440.98 249.62,442.41 252.18,443.79 254.76,445.10 257.34,446.35 259.93,447.55 262.53,448.68 265.13,449.75 267.74,450.77 270.35,451.72 272.97,452.62 275.58,453.45 278.19,454.23 280.81,454.95 283.42,455.61 286.02,456.21 288.62,456.75 291.22,457.23 293.81,457.66 296.39,458.02 298.96,458.33 301.53,458.59 304.08,458.78 306.62,458.92 309.14,459.00 311.66,459.03 314.15,459.00 316.63,458.92 319.10,458.78" stroke="#1a1a2e" stroke-width="3.5" fill="none" stroke-linecap="round"/>
<circle cx="400.0" cy="400.0" r="100" fill="#666666" stroke="#1a1a2e" stroke-width="3.5" />
<text x="400.00" y="82.50" font-family="Arial, sans-serif" font-size="22" font-weight="bold" fill="red" text-anchor="middle" dominant-baseline="middle">7</text>
<text x="586.62" y="143.14" font-family="Arial, sans-serif" font-size="22" font-weight="bold" fill="red" text-anchor="middle" dominant-baseline="middle">4</text>
<text x="701.96" y="301.89" font-family="Arial, sans-serif" font-size="22" font-weight="bold" fill="red" text-anchor="middle" dominant-baseline="middle">3</text>
<text x="701.96" y="498.11" font-family="Arial, sans-serif" font-size="22" font-weight="bold" fill="red" text-anchor="middle" dominant-baseline="middle">2</text>
<text x="586.62" y="656.86" font-family="Arial, sans-serif" font-size="22" font-weight="bold" fill="red" text-anchor="middle" dominant-baseline="middle">3</text>
<text x="400.00" y="717.50" font-family="Arial, sans-serif" font-size="22" font-weight="bold" fill="red" text-anchor="middle" dominant-baseline="middle">4</text>
<text x="213.38" y="656.86" font-family="Arial, sans-serif" font-size="22" font-weight="bold" fill="red" text-anchor="middle" dominant-baseline="middle">7</text>
<text x="98.04" y="498.11" font-family="Arial, sans-serif" font-size="22" font-weight="bold" fill="red" text-anchor="middle" dominant-baseline="middle">4</text>
<text x="98.04" y="301.89" font-family="Arial, sans-serif" font-size="22" font-weight="bold" fill="red" text-anchor="middle" dominant-baseline="middle">7</text>
<text x="213.38" y="143.14" font-family="Arial, sans-serif" font-size="22" font-weight="bold" fill="red" text-anchor="middle" dominant-baseline="middle">4</text>
<text x="443.02" y="128.39" font-family="Arial, sans-serif" font-size="22" font-weight="bold" fill="red" text-anchor="middle" dominant-baseline="middle">1</text>
<text x="524.85" y="154.97" font-family="Arial, sans-serif" font-size="22" font-weight="bold" fill="red" text-anchor="middle" dominant-baseline="middle">2</text>
<text x="645.03" y="275.15" font-family="Arial, sans-serif" font-size="22" font-weight="bold" fill="red" text-anchor="middle" dominant-baseline="middle">4</text>
<text x="671.61" y="356.98" font-family="Arial, sans-serif" font-size="22" font-weight="bold" fill="red" text-anchor="middle" dominant-baseline="middle">5</text>
<text x="671.61" y="443.02" font-family="Arial, sans-serif" font-size="22" font-weight="bold" fill="red" text-anchor="middle" dominant-baseline="middle">6</text>
<text x="645.03" y="524.85" font-family="Arial, sans-serif" font-size="22" font-weight="bold" fill="red" text-anchor="middle" dominant-baseline="middle">7</text>
<text x="594.45" y="594.45" font-family="Arial, sans-serif" font-size="22" font-weight="bold" fill="red" text-anchor="middle" dominant-baseline="middle">8</text>
<text x="524.85" y="645.03" font-family="Arial, sans-serif" font-size="22" font-weight="bold" fill="red" text-anchor="middle" dominant-baseline="middle">9</text>
<text x="356.98" y="671.61" font-family="Arial, sans-serif" font-size="22" font-weight="bold" fill="red" text-anchor="middle" dominant-baseline="middle">1</text>
<text x="275.15" y="645.03" font-family="Arial, sans-serif" font-size="22" font-weight="bold" fill="red" text-anchor="middle" dominant-baseline="middle">2</text>
<text x="205.55" y="594.45" font-family="Arial, sans-serif" font-size="22" font-weight="bold" fill="red" text-anchor="middle" dominant-baseline="middle">3</text>
<text x="154.97" y="524.85" font-family="Arial, sans-serif" font-size="22" font-weight="bold" fill="red" text-anchor="middle" dominant-baseline="middle">4</text>
<text x="128.39" y="443.02" font-family="Arial, sans-serif" font-size="22" font-weight="bold" fill="red" text-anchor="middle" dominant-baseline="middle">5</text>
<text x="128.39" y="356.98" font-family="Arial, sans-serif" font-size="22" font-weight="bold" fill="red" text-anchor="middle" dominant-baseline="middle">6</text>
<text x="154.97" y="275.15" font-family="Arial, sans-serif" font-size="22" font-weight="bold" fill="red" text-anchor="middle" dominant-baseline="middle">7</text>
<text x="205.55" y="205.55" font-family="Arial, sans-serif" font-size="22" font-weight="bold" fill="red" text-anchor="middle" dominant-baseline="middle">8</text>
<text x="275.15" y="154.97" font-family="Arial, sans-serif" font-size="22" font-weight="bold" fill="red" text-anchor="middle" dominant-baseline="middle">9</text>
<text x="502.15" y="199.52" font-family="Arial, sans-serif" font-size="22" font-weight="bold" fill="red" text-anchor="middle" dominant-baseline="middle">9</text>
<text x="559.10" y="240.90" font-family="Arial, sans-serif" font-size="22" font-weight="bold" fill="red" text-anchor="middle" dominant-baseline="middle">8</text>
<text x="600.48" y="297.85" font-family="Arial, sans-serif" font-size="22" font-weight="bold" fill="red" text-anchor="middle" dominant-baseline="middle">7</text>
<text x="622.23" y="364.80" font-family="Arial, sans-serif" font-size="22" font-weight="bold" fill="red" text-anchor="middle" dominant-baseline="middle">6</text>
<text x="622.23" y="435.20" font-family="Arial, sans-serif" font-size="22" font-weight="bold" fill="red" text-anchor="middle" dominant-baseline="middle">5</text>
<text x="600.48" y="502.15" font-family="Arial, sans-serif" font-size="22" font-weight="bold" fill="red" text-anchor="middle" dominant-baseline="middle">4</text>
<text x="559.10" y="559.10" font-family="Arial, sans-serif" font-size="22" font-weight="bold" fill="red" text-anchor="middle" dominant-baseline="middle">3</text>
<text x="502.15" y="600.48" font-family="Arial, sans-serif" font-size="22" font-weight="bold" fill="red" text-anchor="middle" dominant-baseline="middle">2</text>
<text x="435.20" y="622.23" font-family="Arial, sans-serif" font-size="22" font-weight="bold" fill="red" text-anchor="middle" dominant-baseline="middle">1</text>
<text x="297.85" y="600.48" font-family="Arial, sans-serif" font-size="22" font-weight="bold" fill="red" text-anchor="middle" dominant-baseline="middle">9</text>
<text x="240.90" y="559.10" font-family="Arial, sans-serif" font-size="22" font-weight="bold" fill="red" text-anchor="middle" dominant-baseline="middle">8</text>
<text x="199.52" y="502.15" font-family="Arial, sans-serif" font-size="22" font-weight="bold" fill="red" text-anchor="middle" dominant-baseline="middle">7</text>
<text x="177.77" y="435.20" font-family="Arial, sans-serif" font-size="22" font-weight="bold" fill="red" text-anchor="middle" dominant-baseline="middle">6</text>
<text x="177.77" y="364.80" font-family="Arial, sans-serif" font-size="22" font-weight="bold" fill="red" text-anchor="middle" dominant-baseline="middle">5</text>
<text x="199.52" y="297.85" font-family="Arial, sans-serif" font-size="22" font-weight="bold" fill="red" text-anchor="middle" dominant-baseline="middle">4</text>
<text x="240.90" y="240.90" font-family="Arial, sans-serif" font-size="22" font-weight="bold" fill="red" text-anchor="middle" dominant-baseline="middle">3</text>
<text x="297.85" y="199.52" font-family="Arial, sans-serif" font-size="22" font-weight="bold" fill="red" text-anchor="middle" dominant-baseline="middle">2</text>
<text x="364.80" y="177.77" font-family="Arial, sans-serif" font-size="22" font-weight="bold" fill="red" text-anchor="middle" dominant-baseline="middle">1</text>
<text x="427.38" y="227.15" font-family="Arial, sans-serif" font-size="22" font-weight="bold" fill="red" text-anchor="middle" dominant-baseline="middle">5</text>
<text x="523.74" y="276.26" font-family="Arial, sans-serif" font-size="22" font-weight="bold" fill="red" text-anchor="middle" dominant-baseline="middle">5</text>
<text x="572.85" y="372.62" font-family="Arial, sans-serif" font-size="22" font-weight="bold" fill="red" text-anchor="middle" dominant-baseline="middle">5</text>
<text x="555.93" y="479.45" font-family="Arial, sans-serif" font-size="22" font-weight="bold" fill="red" text-anchor="middle" dominant-baseline="middle">5</text>
<text x="479.45" y="555.93" font-family="Arial, sans-serif" font-size="22" font-weight="bold" fill="red" text-anchor="middle" dominant-baseline="middle">5</text>
<text x="372.62" y="572.85" font-family="Arial, sans-serif" font-size="22" font-weight="bold" fill="red" text-anchor="middle" dominant-baseline="middle">4</text>
<text x="276.26" y="523.74" font-family="Arial, sans-serif" font-size="22" font-weight="bold" fill="red" text-anchor="middle" dominant-baseline="middle">4</text>
<text x="227.15" y="427.38" font-family="Arial, sans-serif" font-size="22" font-weight="bold" fill="red" text-anchor="middle" dominant-baseline="middle">4</text>
<text x="244.07" y="320.55" font-family="Arial, sans-serif" font-size="22" font-weight="bold" fill="red" text-anchor="middle" dominant-baseline="middle">4</text>
<text x="320.55" y="244.07" font-family="Arial, sans-serif" font-size="22" font-weight="bold" fill="red" text-anchor="middle" dominant-baseline="middle">4</text>
<text x="419.55" y="276.54" font-family="Arial, sans-serif" font-size="22" font-weight="bold" fill="red" text-anchor="middle" dominant-baseline="middle">1</text>
<text x="456.75" y="288.62" font-family="Arial, sans-serif" font-size="22" font-weight="bold" fill="red" text-anchor="middle" dominant-baseline="middle">1</text>
<text x="488.39" y="311.61" font-family="Arial, sans-serif" font-size="22" font-weight="bold" fill="red" text-anchor="middle" dominant-baseline="middle">2</text>
<text x="511.38" y="343.25" font-family="Arial, sans-serif" font-size="22" font-weight="bold" fill="red" text-anchor="middle" dominant-baseline="middle">2</text>
<text x="523.46" y="380.45" font-family="Arial, sans-serif" font-size="22" font-weight="bold" fill="red" text-anchor="middle" dominant-baseline="middle">3</text>
<text x="523.46" y="419.55" font-family="Arial, sans-serif" font-size="22" font-weight="bold" fill="red" text-anchor="middle" dominant-baseline="middle">3</text>
<text x="511.38" y="456.75" font-family="Arial, sans-serif" font-size="22" font-weight="bold" fill="red" text-anchor="middle" dominant-baseline="middle">4</text>
<text x="488.39" y="488.39" font-family="Arial, sans-serif" font-size="22" font-weight="bold" fill="red" text-anchor="middle" dominant-baseline="middle">4</text>
<text x="456.75" y="511.38" font-family="Arial, sans-serif" font-size="22" font-weight="bold" fill="red" text-anchor="middle" dominant-baseline="middle">5</text>
<text x="419.55" y="523.46" font-family="Arial, sans-serif" font-size="22" font-weight="bold" fill="red" text-anchor="middle" dominant-baseline="middle">5</text>
<text x="380.45" y="523.46" font-family="Arial, sans-serif" font-size="22" font-weight="bold" fill="red" text-anchor="middle" dominant-baseline="middle">6</text>
<text x="343.25" y="511.38" font-family="Arial, sans-serif" font-size="22" font-weight="bold" fill="red" text-anchor="middle" dominant-baseline="middle">6</text>
<text x="311.61" y="488.39" font-family="Arial, sans-serif" font-size="22" font-weight="bold" fill="red" text-anchor="middle" dominant-baseline="middle">7</text>
<text x="288.62" y="456.75" font-family="Arial, sans-serif" font-size="22" font-weight="bold" fill="red" text-anchor="middle" dominant-baseline="middle">7</text>
<text x="276.54" y="419.55" font-family="Arial, sans-serif" font-size="22" font-weight="bold" fill="red" text-anchor="middle" dominant-baseline="middle">8</text>
<text x="276.54" y="380.45" font-family="Arial, sans-serif" font-size="22" font-weight="bold" fill="red" text-anchor="middle" dominant-baseline="middle">8</text>
<text x="288.62" y="343.25" font-family="Arial, sans-serif" font-size="22" font-weight="bold" fill="red" text-anchor="middle" dominant-baseline="middle">9</text>
<text x="311.61" y="311.61" font-family="Arial, sans-serif" font-size="22" font-weight="bold" fill="red" text-anchor="middle" dominant-baseline="middle">9</text>
</svg>