<svg width="800" height="800" xmlns="http://www.w3.org/2000/svg">
<rect width="100%" height="100%" fill="#d3d3d3" />
<circle cx="400.0" cy="400.0" r="150" stroke="#1a1a2e" stroke-width="3.5" fill="none" />
<circle cx="400.0" cy="400.0" r="200" stroke="#1a1a2e" stroke-width="3.5" fill="none" />
<circle cx="400.0" cy="400.0" r="250" stroke="#1a1a2e" stroke-width="3.5" fill="none" />
<circle cx="400.0" cy="400.0" r="300" stroke="#1a1a2e" stroke-width="3.5" fill="none" />
<polyline points="400.00,50.00 403.65,51.69 407.26,53.41 410.84,55.17 414.38,56.97 417.88,58.80 421.35,60.67 424.78,62.58 428.17,64.51 431.53,66.49 434.84,68.49 438.12,70.53 441.36,72.60 444.56,74.70 447.72,76.84 450.84,79.00 453.92,81.19 456.96,83.42 459.96,85.67 462.92,87.95 465.84,90.25 468.72,92.59 471.55,94.95 474.34,97.33 477.09,99.74 479.80,102.17 482.47,104.63 485.09,107.11 487.67,109.61 490.21,112.14 492.71,114.68 495.16,117.25 497.56,119.84 499.93,122.44 502.25,125.06 504.52,127.71 506.76,130.36 508.94,133.04 511.09,135.73 513.19,138.44 515.24,141.16 517.25,143.90 519.22,146.65 521.14,149.41 523.02,152.19 524.85,154.97 526.63,157.77 528.38,160.58 530.07,163.40 531.73,166.22 533.33,169.06 534.90,171.90 536.41,174.75 537.89,177.61 539.31,180.47 540.70,183.34 542.04,186.22 543.33,189.09 544.58,191.98 545.79,194.86 546.95,197.75 548.06,200.63 549.13,203.52 550.16,206.41 551.15,209.30 552.09,212.19 552.98,215.08 553.83,217.96 554.64,220.84 555.41,223.72 556.13,226.60 556.81,229.47 557.45,232.34 558.04,235.20 558.59,238.05 559.10,240.90 559.57,243.74 559.99,246.57 560.37,249.40 560.71,252.22 561.01,255.02 561.27,257.82 561.49,260.60 561.67,263.38 561.81,266.14 561.91,268.89 561.96,271.63 561.98,274.35 561.96,277.06 561.90,279.76 561.80,282.44 561.67,285.11 561.49,287.76 561.28,290.39 561.03,293.01 560.75,295.61 560.42,298.19 560.06,300.76 559.67,303.30 559.24,305.83 558.77,308.33 558.27,310.82 557.74,313.28 557.17,315.73 556.56,318.15 555.93,320.55 555.26,322.93 554.55,325.29 553.82,327.62 553.05,329.93 552.26,332.21 551.43,334.47 550.57,336.71 549.68,338.92 548.76,341.10 547.82,343.26 546.84,345.39 545.84,347.50 544.80,349.57 543.74,351.62 542.66,353.65 541.55,355.64 540.41,357.61 539.24,359.55 538.05,361.45 536.84,363.33 535.60,365.18 534.34,367.00 533.06,368.79 531.75,370.55 530.42,372.28 529.07,373.98 527.70,375.64 526.31,377.27 524.89,378.88 523.46,380.45 522.01,381.98 520.54,383.49 519.05,384.96 517.55,386.40 516.03,387.81 514.49,389.18 512.94,390.52 511.37,391.82 509.78,393.09 508.18,394.33 506.57,395.53 504.95,396.70 503.31,397.84 501.66,398.94 500.00,400.00" stroke="#1a1a2e" stroke-width="3.5" fill="none" stroke-linecap="round"/>
<polyline points="400.00,50.00 396.35,51.69 392.74,53.41 389.16,55.17 385.62,56.97 382.12,58.80 378.65,60.67 375.22,62.58 371.83,64.51 368.47,66.49 365.16,68.49 361.88,70.53 358.64,72.60 355.44,74.70 352.28,76.84 349.16,79.00 346.08,81.19 343.04,83.42 340.04,85.67 337.08,87.95 334.16,90.25 331.28,92.59 328.45,94.95 325.66,97.33 322.91,99.74 320.20,102.17 317.53,104.63 314.91,107.11 312.33,109.61 309.79,112.14 307.29,114.68 304.84,117.25 302.44,119.84 300.07,122.44 297.75,125.06 295.48,127.71 293.24,130.36 291.06,133.04 288.91,135.73 286.81,138.44 284.76,141.16 282.75,143.90 280.78,146.65 278.86,149.41 276.98,152.19 275.15,154.97 273.37,157.77 271.62,160.58 269.93,163.40 268.27,166.22 266.67,169.06 265.10,171.90 263.59,174.75 262.11,177.61 260.69,180.47 259.30,183.34 257.96,186.22 256.67,189.09 255.42,191.98 254.21,194.86 253.05,197.75 251.94,200.63 250.87,203.52 249.84,206.41 248.85,209.30 247.91,212.19 247.02,215.08 246.17,217.96 245.36,220.84 244.59,223.72 243.87,226.60 243.19,229.47 242.55,232.34 241.96,235.20 241.41,238.05 240.90,240.90 240.43,243.74 240.01,246.57 239.63,249.40 239.29,252.22 238.99,255.02 238.73,257.82 238.51,260.60 238.33,263.38 238.19,266.14 238.09,268.89 238.04,271.63 238.02,274.35 238.04,277.06 238.10,279.76 238.20,282.44 238.33,285.11 238.51,287.76 238.72,290.39 238.97,293.01 239.25,295.61 239.58,298.19 239.94,300.76 240.33,303.30 240.76,305.83 241.23,308.33 241.73,310.82 242.26,313.28 242.83,315.73 243.44,318.15 244.07,320.55 244.74,322.93 245.45,325.29 246.18,327.62 246.95,329.93 247.74,332.21 248.57,334.47 249.43,336.71 250.32,338.92 251.24,341.10 252.18,343.26 253.16,345.39 254.16,347.50 255.20,349.57 256.26,351.62 257.34,353.65 258.45,355.64 259.59,357.61 260.76,359.55 261.95,361.45 263.16,363.33 264.40,365.18 265.66,367.00 266.94,368.79 268.25,370.55 269.58,372.28 270.93,373.98 272.30,375.64 273.69,377.27 275.11,378.88 276.54,380.45 277.99,381.98 279.46,383.49 280.95,384.96 282.45,386.40 283.97,387.81 285.51,389.18 287.06,390.52 288.63,391.82 290.22,393.09 291.82,394.33 293.43,395.53 295.05,396.70 296.69,397.84 298.34,398.94 300.00,400.00" stroke="#1a1a2e" stroke-width="3.5" fill="none" stroke-linecap="round"/>
<polyline points="605.72,116.84 607.68,120.35 609.59,123.87 611.45,127.40 613.26,130.93 615.02,134.48 616.72,138.03 618.38,141.58 619.98,145.14 621.54,148.71 623.04,152.29 624.50,155.86 625.90,159.44 627.25,163.02 628.56,166.61 629.81,170.19 631.01,173.78 632.17,177.36 633.27,180.94 634.32,184.53 635.33,188.11 636.28,191.69 637.19,195.26 638.05,198.83 638.86,202.40 639.62,205.96 640.33,209.51 641.00,213.06 641.61,216.60 642.18,220.14 642.71,223.66 643.18,227.18 643.61,230.69 643.99,234.19 644.32,237.67 644.61,241.15 644.86,244.61 645.05,248.06 645.20,251.50 645.31,254.92 645.37,258.33 645.39,261.73 645.37,265.11 645.30,268.47 645.18,271.82 645.03,275.15 644.83,278.47 644.59,281.76 644.30,285.04 643.98,288.30 643.61,291.54 643.20,294.76 642.76,297.95 642.27,301.13 641.74,304.29 641.17,307.42 640.57,310.53 639.92,313.62 639.24,316.69 638.52,319.73 637.76,322.75 636.97,325.74 636.14,328.71 635.27,331.65 634.37,334.56 633.43,337.45 632.46,340.31 631.45,343.15 630.41,345.96 629.34,348.74 628.23,351.49 627.10,354.21 625.93,356.90 624.72,359.57 623.49,362.20 622.23,364.80 620.94,367.37 619.62,369.92 618.27,372.43 616.89,374.91 615.48,377.35 614.05,379.77 612.59,382.15 611.10,384.50 609.59,386.81 608.05,389.10 606.49,391.35 604.90,393.56 603.29,395.74 601.66,397.89 600.00,400.00 598.32,402.08 596.62,404.12 594.90,406.13 593.16,408.10 591.40,410.03 589.63,411.93 587.83,413.79 586.01,415.62 584.18,417.41 582.33,419.16 580.46,420.88 578.58,422.56 576.68,424.20 574.77,425.81 572.85,427.38 570.91,428.91 568.95,430.40 566.99,431.85 565.01,433.27 563.02,434.65 561.03,435.99 559.02,437.30 557.00,438.56 554.97,439.79 552.94,440.98 550.90,442.13 548.85,443.24 546.79,444.32 544.73,445.35 542.66,446.35 540.59,447.31 538.51,448.23 536.43,449.12 534.34,449.96 532.26,450.77 530.17,451.54 528.08,452.27 525.99,452.96 523.90,453.61 521.81,454.23 519.72,454.81 517.63,455.35 515.54,455.85 513.46,456.32 511.38,456.75 509.30,457.14 507.23,457.49 505.16,457.81 503.09,458.09 501.04,458.33 498.99,458.54 496.94,458.71 494.90,458.84 492.88,458.94 490.86,459.00 488.84,459.03 486.84,459.02 484.85,458.97 482.87,458.89 480.90,458.78" stroke="#1a1a2e" stroke-width="3.5" fill="none" stroke-linecap="round"/>
<polyline points="605.72,116.84 601.78,116.06 597.85,115.33 593.92,114.66 590.00,114.03 586.09,113.45 582.18,112.93 578.29,112.45 574.40,112.03 570.53,111.65 566.67,111.32 562.82,111.05 558.98,110.82 555.15,110.64 551.34,110.51 547.55,110.42 543.77,110.39 540.00,110.40 536.25,110.46 532.52,110.56 528.80,110.71 525.10,110.91 521.42,111.15 517.76,111.44 514.12,111.77 510.50,112.15 506.90,112.57 503.32,113.03 499.76,113.54 496.22,114.09 492.71,114.68 489.21,115.32 485.75,116.00 482.30,116.71 478.88,117.47 475.49,118.27 472.12,119.11 468.78,119.99 465.46,120.91 462.17,121.86 458.91,122.86 455.67,123.89 452.47,124.96 449.29,126.07 446.14,127.21 443.02,128.39 439.93,129.60 436.87,130.85 433.84,132.13 430.84,133.44 427.87,134.79 424.94,136.18 422.04,137.59 419.16,139.04 416.33,140.51 413.52,142.02 410.75,143.56 408.01,145.13 405.31,146.72 402.64,148.35 400.00,150.00 397.40,151.68 394.83,153.39 392.30,155.12 389.81,156.88 387.35,158.66 384.93,160.47 382.54,162.31 380.20,164.16 377.88,166.04 375.61,167.94 373.37,169.87 371.17,171.81 369.01,173.78 366.89,175.76 364.80,177.77 362.75,179.79 360.75,181.84 358.78,183.90 356.84,185.97 354.95,188.07 353.10,190.18 351.29,192.30 349.51,194.44 347.78,196.60 346.08,198.77 344.42,200.95 342.81,203.14 341.23,205.35 339.69,207.56 338.20,209.79 336.74,212.03 335.32,214.27 333.95,216.53 332.61,218.79 331.31,221.06 330.06,223.34 328.84,225.63 327.66,227.92 326.53,230.22 325.43,232.52 324.38,234.82 323.36,237.13 322.38,239.44 321.45,241.76 320.55,244.07 319.70,246.39 318.88,248.71 318.10,251.03 317.36,253.35 316.67,255.66 316.01,257.98 315.39,260.29 314.81,262.60 314.27,264.91 313.77,267.21 313.30,269.51 312.88,271.80 312.49,274.09 312.14,276.37 311.83,278.65 311.56,280.92 311.33,283.18 311.13,285.43 310.97,287.67 310.85,289.90 310.76,292.13 310.71,294.34 310.70,296.54 310.72,298.74 310.78,300.91 310.88,303.08 311.01,305.23 311.17,307.37 311.38,309.50 311.61,311.61 311.88,313.71 312.19,315.79 312.52,317.85 312.90,319.90 313.30,321.93 313.74,323.95 314.21,325.95 314.71,327.92 315.24,329.88 315.81,331.82 316.41,333.74 317.03,335.64 317.69,337.52 318.38,339.38 319.10,341.22" stroke="#1a1a2e" stroke-width="3.5" fill="none" stroke-linecap="round"/>
<polyline points="732.87,291.84 732.39,295.83 731.87,299.80 731.30,303.75 730.69,307.67 730.02,311.57 729.32,315.45 728.57,319.30 727.77,323.12 726.93,326.92 726.05,330.70 725.12,334.44 724.15,338.16 723.14,341.86 722.09,345.52 721.00,349.16 719.86,352.77 718.69,356.34 717.48,359.89 716.22,363.41 714.93,366.90 713.60,370.36 712.23,373.78 710.83,377.17 709.39,380.53 707.91,383.86 706.40,387.16 704.85,390.42 703.27,393.65 701.65,396.84 700.00,400.00 698.32,403.12 696.60,406.21 694.85,409.27 693.08,412.28 691.27,415.26 689.43,418.21 687.56,421.12 685.66,423.99 683.74,426.82 681.78,429.62 679.80,432.37 677.79,435.09 675.76,437.77 673.70,440.42 671.61,443.02 669.51,445.58 667.37,448.11 665.22,450.59 663.04,453.04 660.84,455.44 658.62,457.81 656.38,460.13 654.11,462.42 651.83,464.66 649.53,466.86 647.21,469.02 644.87,471.14 642.52,473.22 640.15,475.26 637.76,477.25 635.36,479.21 632.95,481.12 630.52,482.99 628.07,484.82 625.62,486.61 623.15,488.35 620.67,490.05 618.17,491.71 615.67,493.33 613.16,494.91 610.64,496.44 608.11,497.93 605.57,499.38 603.03,500.78 600.48,502.15 597.92,503.47 595.36,504.75 592.79,505.99 590.22,507.18 587.64,508.33 585.06,509.44 582.48,510.51 579.89,511.54 577.31,512.52 574.72,513.47 572.14,514.37 569.55,515.23 566.97,516.05 564.38,516.82 561.80,517.56 559.23,518.25 556.65,518.90 554.08,519.52 551.51,520.09 548.95,520.62 546.40,521.11 543.85,521.56 541.31,521.97 538.77,522.34 536.24,522.67 533.72,522.97 531.21,523.22 528.71,523.43 526.22,523.61 523.74,523.74 521.27,523.84 518.82,523.90 516.37,523.92 513.94,523.91 511.52,523.86 509.12,523.77 506.73,523.64 504.35,523.48 501.99,523.28 499.64,523.05 497.31,522.78 495.00,522.47 492.71,522.13 490.43,521.76 488.17,521.35 485.93,520.91 483.70,520.44 481.50,519.93 479.32,519.39 477.16,518.81 475.02,518.21 472.90,517.57 470.80,516.90 468.72,516.20 466.67,515.47 464.64,514.71 462.63,513.92 460.64,513.10 458.68,512.25 456.75,511.38 454.84,510.47 452.95,509.54 451.09,508.58 449.26,507.59 447.45,506.58 445.67,505.54 443.92,504.48 442.19,503.39 440.49,502.28 438.82,501.14 437.18,499.98 435.57,498.79 433.98,497.59 432.43,496.36 430.90,495.11" stroke="#1a1a2e" stroke-width="3.5" fill="none" stroke-linecap="round"/>
<polyline points="732.87,291.84 730.14,288.90 727.38,285.99 724.60,283.14 721.80,280.32 718.97,277.56 716.12,274.84 713.25,272.16 710.36,269.54 707.45,266.96 704.52,264.42 701.56,261.93 698.59,259.49 695.60,257.10 692.60,254.75 689.58,252.45 686.54,250.20 683.49,248.00 680.42,245.84 677.34,243.73 674.24,241.67 671.13,239.65 668.01,237.68 664.88,235.77 661.74,233.89 658.59,232.07 655.43,230.29 652.26,228.56 649.08,226.88 645.90,225.25 642.71,223.66 639.51,222.13 636.30,220.64 633.10,219.19 629.88,217.80 626.67,216.45 623.45,215.15 620.23,213.89 617.01,212.69 613.78,211.53 610.56,210.41 607.33,209.35 604.11,208.33 600.89,207.35 597.67,206.43 594.45,205.55 591.24,204.71 588.03,203.92 584.83,203.18 581.63,202.48 578.43,201.83 575.25,201.22 572.07,200.66 568.89,200.14 565.73,199.67 562.57,199.24 559.43,198.85 556.29,198.51 553.17,198.21 550.05,197.96 546.95,197.75 543.85,197.58 540.78,197.45 537.71,197.37 534.66,197.32 531.62,197.32 528.60,197.36 525.59,197.44 522.60,197.56 519.62,197.73 516.67,197.93 513.73,198.17 510.80,198.45 507.90,198.77 505.01,199.13 502.15,199.52 499.30,199.96 496.48,200.43 493.67,200.94 490.89,201.48 488.13,202.07 485.39,202.68 482.67,203.34 479.98,204.02 477.31,204.75 474.66,205.50 472.04,206.30 469.44,207.12 466.87,207.98 464.32,208.87 461.80,209.79 459.31,210.74 456.84,211.73 454.40,212.74 451.99,213.79 449.61,214.86 447.25,215.97 444.92,217.10 442.63,218.27 440.36,219.46 438.12,220.67 435.91,221.92 433.73,223.19 431.58,224.49 429.46,225.81 427.38,227.15 425.32,228.53 423.30,229.92 421.31,231.34 419.35,232.78 417.42,234.25 415.53,235.73 413.67,237.24 411.84,238.77 410.05,240.32 408.29,241.88 406.56,243.47 404.87,245.08 403.21,246.70 401.59,248.34 400.00,250.00 398.45,251.67 396.93,253.37 395.45,255.07 394.00,256.79 392.59,258.53 391.21,260.28 389.87,262.04 388.56,263.81 387.30,265.60 386.06,267.40 384.87,269.21 383.71,271.03 382.58,272.85 381.50,274.69 380.45,276.54 379.43,278.39 378.45,280.26 377.51,282.13 376.61,284.00 375.74,285.88 374.91,287.77 374.12,289.66 373.36,291.56 372.64,293.46 371.96,295.36 371.32,297.26 370.71,299.17 370.13,301.08 369.60,302.99 369.10,304.89" stroke="#1a1a2e" stroke-width="3.5" fill="none" stroke-linecap="round"/>
<polyline points="732.87,508.16 730.14,511.10 727.38,514.01 724.60,516.86 721.80,519.68 718.97,522.44 716.12,525.16 713.25,527.84 710.36,530.46 707.45,533.04 704.52,535.58 701.56,538.07 698.59,540.51 695.60,542.90 692.60,545.25 689.58,547.55 686.54,549.80 683.49,552.00 680.42,554.16 677.34,556.27 674.24,558.33 671.13,560.35 668.01,562.32 664.88,564.23 661.74,566.11 658.59,567.93 655.43,569.71 652.26,571.44 649.08,573.12 645.90,574.75 642.71,576.34 639.51,577.87 636.30,579.36 633.10,580.81 629.88,582.20 626.67,583.55 623.45,584.85 620.23,586.11 617.01,587.31 613.78,588.47 610.56,589.59 607.33,590.65 604.11,591.67 600.89,592.65 597.67,593.57 594.45,594.45 591.24,595.29 588.03,596.08 584.83,596.82 581.63,597.52 578.43,598.17 575.25,598.78 572.07,599.34 568.89,599.86 565.73,600.33 562.57,600.76 559.43,601.15 556.29,601.49 553.17,601.79 550.05,602.04 546.95,602.25 543.85,602.42 540.78,602.55 537.71,602.63 534.66,602.68 531.62,602.68 528.60,602.64 525.59,602.56 522.60,602.44 519.62,602.27 516.67,602.07 513.73,601.83 510.80,601.55 507.90,601.23 505.01,600.87 502.15,600.48 499.30,600.04 496.48,599.57 493.67,599.06 490.89,598.52 488.13,597.93 485.39,597.32 482.67,596.66 479.98,595.98 477.31,595.25 474.66,594.50 472.04,593.70 469.44,592.88 466.87,592.02 464.32,591.13 461.80,590.21 459.31,589.26 456.84,588.27 454.40,587.26 451.99,586.21 449.61,585.14 447.25,584.03 444.92,582.90 442.63,581.73 440.36,580.54 438.12,579.33 435.91,578.08 433.73,576.81 431.58,575.51 429.46,574.19 427.38,572.85 425.32,571.47 423.30,570.08 421.31,568.66 419.35,567.22 417.42,565.75 415.53,564.27 413.67,562.76 411.84,561.23 410.05,559.68 408.29,558.12 406.56,556.53 404.87,554.92 403.21,553.30 401.59,551.66 400.00,550.00 398.45,548.33 396.93,546.63 395.45,544.93 394.00,543.21 392.59,541.47 391.21,539.72 389.87,537.96 388.56,536.19 387.30,534.40 386.06,532.60 384.87,530.79 383.71,528.97 382.58,527.15 381.50,525.31 380.45,523.46 379.43,521.61 378.45,519.74 377.51,517.87 376.61,516.00 375.74,514.12 374.91,512.23 374.12,510.34 373.36,508.44 372.64,506.54 371.96,504.64 371.32,502.74 370.71,500.83 370.13,498.92 369.60,497.01 369.10,495.11" stroke="#1a1a2e" stroke-width="3.5" fill="none" stroke-linecap="round"/>
<polyline points="732.87,508.16 732.39,504.17 731.87,500.20 731.30,496.25 730.69,492.33 730.02,488.43 729.32,484.55 728.57,480.70 727.77,476.88 726.93,473.08 726.05,469.30 725.12,465.56 724.15,461.84 723.14,458.14 722.09,454.48 721.00,450.84 719.86,447.23 718.69,443.66 717.48,440.11 716.22,436.59 714.93,433.10 713.60,429.64 712.23,426.22 710.83,422.83 709.39,419.47 707.91,416.14 706.40,412.84 704.85,409.58 703.27,406.35 701.65,403.16 700.00,400.00 698.32,396.88 696.60,393.79 694.85,390.73 693.08,387.72 691.27,384.74 689.43,381.79 687.56,378.88 685.66,376.01 683.74,373.18 681.78,370.38 679.80,367.63 677.79,364.91 675.76,362.23 673.70,359.58 671.61,356.98 669.51,354.42 667.37,351.89 665.22,349.41 663.04,346.96 660.84,344.56 658.62,342.19 656.38,339.87 654.11,337.58 651.83,335.34 649.53,333.14 647.21,330.98 644.87,328.86 642.52,326.78 640.15,324.74 637.76,322.75 635.36,320.79 632.95,318.88 630.52,317.01 628.07,315.18 625.62,313.39 623.15,311.65 620.67,309.95 618.17,308.29 615.67,306.67 613.16,305.09 610.64,303.56 608.11,302.07 605.57,300.62 603.03,299.22 600.48,297.85 597.92,296.53 595.36,295.25 592.79,294.01 590.22,292.82 587.64,291.67 585.06,290.56 582.48,289.49 579.89,288.46 577.31,287.48 574.72,286.53 572.14,285.63 569.55,284.77 566.97,283.95 564.38,283.18 561.80,282.44 559.23,281.75 556.65,281.10 554.08,280.48 551.51,279.91 548.95,279.38 546.40,278.89 543.85,278.44 541.31,278.03 538.77,277.66 536.24,277.33 533.72,277.03 531.21,276.78 528.71,276.57 526.22,276.39 523.74,276.26 521.27,276.16 518.82,276.10 516.37,276.08 513.94,276.09 511.52,276.14 509.12,276.23 506.73,276.36 504.35,276.52 501.99,276.72 499.64,276.95 497.31,277.22 495.00,277.53 492.71,277.87 490.43,278.24 488.17,278.65 485.93,279.09 483.70,279.56 481.50,280.07 479.32,280.61 477.16,281.19 475.02,281.79 472.90,282.43 470.80,283.10 468.72,283.80 466.67,284.53 464.64,285.29 462.63,286.08 460.64,286.90 458.68,287.75 456.75,288.62 454.84,289.53 452.95,290.46 451.09,291.42 449.26,292.41 447.45,293.42 445.67,294.46 443.92,295.52 442.19,296.61 440.49,297.72 438.82,298.86 437.18,300.02 435.57,301.21 433.98,302.41 432.43,303.64 430.90,304.89" stroke="#1a1a2e" stroke-width="3.5" fill="none" stroke-linecap="round"/>
<polyline points="605.72,683.16 601.78,683.94 597.85,684.67 593.92,685.34 590.00,685.97 586.09,686.55 582.18,687.07 578.29,687.55 574.40,687.97 570.53,688.35 566.67,688.68 562.82,688.95 558.98,689.18 555.15,689.36 551.34,689.49 547.55,689.58 543.77,689.61 540.00,689.60 536.25,689.54 532.52,689.44 528.80,689.29 525.10,689.09 521.42,688.85 517.76,688.56 514.12,688.23 510.50,687.85 506.90,687.43 503.32,686.97 499.76,686.46 496.22,685.91 492.71,685.32 489.21,684.68 485.75,684.00 482.30,683.29 478.88,682.53 475.49,681.73 472.12,680.89 468.78,680.01 465.46,679.09 462.17,678.14 458.91,677.14 455.67,676.11 452.47,675.04 449.29,673.93 446.14,672.79 443.02,671.61 439.93,670.40 436.87,669.15 433.84,667.87 430.84,666.56 427.87,665.21 424.94,663.82 422.04,662.41 419.16,660.96 416.33,659.49 413.52,657.98 410.75,656.44 408.01,654.87 405.31,653.28 402.64,651.65 400.00,650.00 397.40,648.32 394.83,646.61 392.30,644.88 389.81,643.12 387.35,641.34 384.93,639.53 382.54,637.69 380.20,635.84 377.88,633.96 375.61,632.06 373.37,630.13 371.17,628.19 369.01,626.22 366.89,624.24 364.80,622.23 362.75,620.21 360.75,618.16 358.78,616.10 356.84,614.03 354.95,611.93 353.10,609.82 351.29,607.70 349.51,605.56 347.78,603.40 346.08,601.23 344.42,599.05 342.81,596.86 341.23,594.65 339.69,592.44 338.20,590.21 336.74,587.97 335.32,585.73 333.95,583.47 332.61,581.21 331.31,578.94 330.06,576.66 328.84,574.37 327.66,572.08 326.53,569.78 325.43,567.48 324.38,565.18 323.36,562.87 322.38,560.56 321.45,558.24 320.55,555.93 319.70,553.61 318.88,551.29 318.10,548.97 317.36,546.65 316.67,544.34 316.01,542.02 315.39,539.71 314.81,537.40 314.27,535.09 313.77,532.79 313.30,530.49 312.88,528.20 312.49,525.91 312.14,523.63 311.83,521.35 311.56,519.08 311.33,516.82 311.13,514.57 310.97,512.33 310.85,510.10 310.76,507.87 310.71,505.66 310.70,503.46 310.72,501.26 310.78,499.09 310.88,496.92 311.01,494.77 311.17,492.63 311.38,490.50 311.61,488.39 311.88,486.29 312.19,484.21 312.52,482.15 312.90,480.10 313.30,478.07 313.74,476.05 314.21,474.05 314.71,472.08 315.24,470.12 315.81,468.18 316.41,466.26 317.03,464.36 317.69,462.48 318.38,460.62 319.10,458.78" stroke="#1a1a2e" stroke-width="3.5" fill="none" stroke-linecap="round"/>
<polyline points="605.72,683.16 607.68,679.65 609.59,676.13 611.45,672.60 613.26,669.07 615.02,665.52 616.72,661.97 618.38,658.42 619.98,654.86 621.54,651.29 623.04,647.71 624.50,644.14 625.90,640.56 627.25,636.98 628.56,633.39 629.81,629.81 631.01,626.22 632.17,622.64 633.27,619.06 634.32,615.47 635.33,611.89 636.28,608.31 637.19,604.74 638.05,601.17 638.86,597.60 639.62,594.04 640.33,590.49 641.00,586.94 641.61,583.40 642.18,579.86 642.71,576.34 643.18,572.82 643.61,569.31 643.99,565.81 644.32,562.33 644.61,558.85 644.86,555.39 645.05,551.94 645.20,548.50 645.31,545.08 645.37,541.67 645.39,538.27 645.37,534.89 645.30,531.53 645.18,528.18 645.03,524.85 644.83,521.53 644.59,518.24 644.30,514.96 643.98,511.70 643.61,508.46 643.20,505.24 642.76,502.05 642.27,498.87 641.74,495.71 641.17,492.58 640.57,489.47 639.92,486.38 639.24,483.31 638.52,480.27 637.76,477.25 636.97,474.26 636.14,471.29 635.27,468.35 634.37,465.44 633.43,462.55 632.46,459.69 631.45,456.85 630.41,454.04 629.34,451.26 628.23,448.51 627.10,445.79 625.93,443.10 624.72,440.43 623.49,437.80 622.23,435.20 620.94,432.63 619.62,430.08 618.27,427.57 616.89,425.09 615.48,422.65 614.05,420.23 612.59,417.85 611.10,415.50 609.59,413.19 608.05,410.90 606.49,408.65 604.90,406.44 603.29,404.26 601.66,402.11 600.00,400.00 598.32,397.92 596.62,395.88 594.90,393.87 593.16,391.90 591.40,389.97 589.63,388.07 587.83,386.21 586.01,384.38 584.18,382.59 582.33,380.84 580.46,379.12 578.58,377.44 576.68,375.80 574.77,374.19 572.85,372.62 570.91,371.09 568.95,369.60 566.99,368.15 565.01,366.73 563.02,365.35 561.03,364.01 559.02,362.70 557.00,361.44 554.97,360.21 552.94,359.02 550.90,357.87 548.85,356.76 546.79,355.68 544.73,354.65 542.66,353.65 540.59,352.69 538.51,351.77 536.43,350.88 534.34,350.04 532.26,349.23 530.17,348.46 528.08,347.73 525.99,347.04 523.90,346.39 521.81,345.77 519.72,345.19 517.63,344.65 515.54,344.15 513.46,343.68 511.38,343.25 509.30,342.86 507.23,342.51 505.16,342.19 503.09,341.91 501.04,341.67 498.99,341.46 496.94,341.29 494.90,341.16 492.88,341.06 490.86,341.00 488.84,340.97 486.84,340.98 484.85,341.03 482.87,341.11 480.90,341.22" stroke="#1a1a2e" stroke-width="3.5" fill="none" stroke-linecap="round"/>
<polyline points="400.00,750.00 396.35,748.31 392.74,746.59 389.16,744.83 385.62,743.03 382.12,741.20 378.65,739.33 375.22,737.42 371.83,735.49 368.47,733.51 365.16,731.51 361.88,729.47 358.64,727.40 355.44,725.30 352.28,723.16 349.16,721.00 346.08,718.81 343.04,716.58 340.04,714.33 337.08,712.05 334.16,709.75 331.28,707.41 328.45,705.05 325.66,702.67 322.91,700.26 320.20,697.83 317.53,695.37 314.91,692.89 312.33,690.39 309.79,687.86 307.29,685.32 304.84,682.75 302.44,680.16 300.07,677.56 297.75,674.94 295.48,672.29 293.24,669.64 291.06,666.96 288.91,664.27 286.81,661.56 284.76,658.84 282.75,656.10 280.78,653.35 278.86,650.59 276.98,647.81 275.15,645.03 273.37,642.23 271.62,639.42 269.93,636.60 268.27,633.78 266.67,630.94 265.10,628.10 263.59,625.25 262.11,622.39 260.69,619.53 259.30,616.66 257.96,613.78 256.67,610.91 255.42,608.02 254.21,605.14 253.05,602.25 251.94,599.37 250.87,596.48 249.84,593.59 248.85,590.70 247.91,587.81 247.02,584.92 246.17,582.04 245.36,579.16 244.59,576.28 243.87,573.40 243.19,570.53 242.55,567.66 241.96,564.80 241.41,561.95 240.90,559.10 240.43,556.26 240.01,553.43 239.63,550.60 239.29,547.78 238.99,544.98 238.73,542.18 238.51,539.40 238.33,536.62 238.19,533.86 238.09,531.11 238.04,528.37 238.02,525.65 238.04,522.94 238.10,520.24 238.20,517.56 238.33,514.89 238.51,512.24 238.72,509.61 238.97,506.99 239.25,504.39 239.58,501.81 239.94,499.24 240.33,496.70 240.76,494.17 241.23,491.67 241.73,489.18 242.26,486.72 242.83,484.27 243.44,481.85 244.07,479.45 244.74,477.07 245.45,474.71 246.18,472.38 246.95,470.07 247.74,467.79 248.57,465.53 249.43,463.29 250.32,461.08 251.24,458.90 252.18,456.74 253.16,454.61 254.16,452.50 255.20,450.43 256.26,448.38 257.34,446.35 258.45,444.36 259.59,442.39 260.76,440.45 261.95,438.55 263.16,436.67 264.40,434.82 265.66,433.00 266.94,431.21 268.25,429.45 269.58,427.72 270.93,426.02 272.30,424.36 273.69,422.73 275.11,421.12 276.54,419.55 277.99,418.02 279.46,416.51 280.95,415.04 282.45,413.60 283.97,412.19 285.51,410.82 287.06,409.48 288.63,408.18 290.22,406.91 291.82,405.67 293.43,404.47 295.05,403.30 296.69,402.16 298.34,401.06 300.00,400.00" stroke="#1a1a2e" stroke-width="3.5" fill="none" stroke-linecap="round"/>
<polyline points="400.00,750.00 403.65,748.31 407.26,746.59 410.84,744.83 414.38,743.03 417.88,741.20 421.35,739.33 424.78,737.42 428.17,735.49 431.53,733.51 434.84,731.51 438.12,729.47 441.36,727.40 444.56,725.30 447.72,723.16 450.84,721.00 453.92,718.81 456.96,716.58 459.96,714.33 462.92,712.05 465.84,709.75 468.72,707.41 471.55,705.05 474.34,702.67 477.09,700.26 479.80,697.83 482.47,695.37 485.09,692.89 487.67,690.39 490.21,687.86 492.71,685.32 495.16,682.75 497.56,680.16 499.93,677.56 502.25,674.94 504.52,672.29 506.76,669.64 508.94,666.96 511.09,664.27 513.19,661.56 515.24,658.84 517.25,656.10 519.22,653.35 521.14,650.59 523.02,647.81 524.85,645.03 526.63,642.23 528.38,639.42 530.07,636.60 531.73,633.78 533.33,630.94 534.90,628.10 536.41,625.25 537.89,622.39 539.31,619.53 540.70,616.66 542.04,613.78 543.33,610.91 544.58,608.02 545.79,605.14 546.95,602.25 548.06,599.37 549.13,596.48 550.16,593.59 551.15,590.70 552.09,587.81 552.98,584.92 553.83,582.04 554.64,579.16 555.41,576.28 556.13,573.40 556.81,570.53 557.45,567.66 558.04,564.80 558.59,561.95 559.10,559.10 559.57,556.26 559.99,553.43 560.37,550.60 560.71,547.78 561.01,544.98 561.27,542.18 561.49,539.40 561.67,536.62 561.81,533.86 561.91,531.11 561.96,528.37 561.98,525.65 561.96,522.94 561.90,520.24 561.80,517.56 561.67,514.89 561.49,512.24 561.28,509.61 561.03,506.99 560.75,504.39 560.42,501.81 560.06,499.24 559.67,496.70 559.24,494.17 558.77,491.67 558.27,489.18 557.74,486.72 557.17,484.27 556.56,481.85 555.93,479.45 555.26,477.07 554.55,474.71 553.82,472.38 553.05,470.07 552.26,467.79 551.43,465.53 550.57,463.29 549.68,461.08 548.76,458.90 547.82,456.74 546.84,454.61 545.84,452.50 544.80,450.43 543.74,448.38 542.66,446.35 541.55,444.36 540.41,442.39 539.24,440.45 538.05,438.55 536.84,436.67 535.60,434.82 534.34,433.00 533.06,431.21 531.75,429.45 530.42,427.72 529.07,426.02 527.70,424.36 526.31,422.73 524.89,421.12 523.46,419.55 522.01,418.02 520.54,416.51 519.05,415.04 517.55,413.60 516.03,412.19 514.49,410.82 512.94,409.48 511.37,408.18 509.78,406.91 508.18,405.67 506.57,404.47 504.95,403.30 503.31,402.16 501.66,401.06 500.00,400.00" stroke="#1a1a2e" stroke-width="3.5" fill="none" stroke-linecap="round"/>
<polyline points="194.28,683.16 192.32,679.65 190.41,676.13 188.55,672.60 186.74,669.07 184.98,665.52 183.28,661.97 181.62,658.42 180.02,654.86 178.46,651.29 176.96,647.71 175.50,644.14 174.10,640.56 172.75,636.98 171.44,633.39 170.19,629.81 168.99,626.22 167.83,622.64 166.73,619.06 165.68,615.47 164.67,611.89 163.72,608.31 162.81,604.74 161.95,601.17 161.14,597.60 160.38,594.04 159.67,590.49 159.00,586.94 158.39,583.40 157.82,579.86 157.29,576.34 156.82,572.82 156.39,569.31 156.01,565.81 155.68,562.33 155.39,558.85 155.14,555.39 154.95,551.94 154.80,548.50 154.69,545.08 154.63,541.67 154.61,538.27 154.63,534.89 154.70,531.53 154.82,528.18 154.97,524.85 155.17,521.53 155.41,518.24 155.70,514.96 156.02,511.70 156.39,508.46 156.80,505.24 157.24,502.05 157.73,498.87 158.26,495.71 158.83,492.58 159.43,489.47 160.08,486.38 160.76,483.31 161.48,480.27 162.24,477.25 163.03,474.26 163.86,471.29 164.73,468.35 165.63,465.44 166.57,462.55 167.54,459.69 168.55,456.85 169.59,454.04 170.66,451.26 171.77,448.51 172.90,445.79 174.07,443.10 175.28,440.43 176.51,437.80 177.77,435.20 179.06,432.63 180.38,430.08 181.73,427.57 183.11,425.09 184.52,422.65 185.95,420.23 187.41,417.85 188.90,415.50 190.41,413.19 191.95,410.90 193.51,408.65 195.10,406.44 196.71,404.26 198.34,402.11 200.00,400.00 201.68,397.92 203.38,395.88 205.10,393.87 206.84,391.90 208.60,389.97 210.37,388.07 212.17,386.21 213.99,384.38 215.82,382.59 217.67,380.84 219.54,379.12 221.42,377.44 223.32,375.80 225.23,374.19 227.15,372.62 229.09,371.09 231.05,369.60 233.01,368.15 234.99,366.73 236.98,365.35 238.97,364.01 240.98,362.70 243.00,361.44 245.03,360.21 247.06,359.02 249.10,357.87 251.15,356.76 253.21,355.68 255.27,354.65 257.34,353.65 259.41,352.69 261.49,351.77 263.57,350.88 265.66,350.04 267.74,349.23 269.83,348.46 271.92,347.73 274.01,347.04 276.10,346.39 278.19,345.77 280.28,345.19 282.37,344.65 284.46,344.15 286.54,343.68 288.62,343.25 290.70,342.86 292.77,342.51 294.84,342.19 296.91,341.91 298.96,341.67 301.01,341.46 303.06,341.29 305.10,341.16 307.12,341.06 309.14,341.00 311.16,340.97 313.16,340.98 315.15,341.03 317.13,341.11 319.10,341.22" stroke="#1a1a2e" stroke-width="3.5" fill="none" stroke-linecap="round"/>
<polyline points="194.28,683.16 198.22,683.94 202.15,684.67 206.08,685.34 210.00,685.97 213.91,686.55 217.82,687.07 221.71,687.55 225.60,687.97 229.47,688.35 233.33,688.68 237.18,688.95 241.02,689.18 244.85,689.36 248.66,689.49 252.45,689.58 256.23,689.61 260.00,689.60 263.75,689.54 267.48,689.44 271.20,689.29 274.90,689.09 278.58,688.85 282.24,688.56 285.88,688.23 289.50,687.85 293.10,687.43 296.68,686.97 300.24,686.46 303.78,685.91 307.29,685.32 310.79,684.68 314.25,684.00 317.70,683.29 321.12,682.53 324.51,681.73 327.88,680.89 331.22,680.01 334.54,679.09 337.83,678.14 341.09,677.14 344.33,676.11 347.53,675.04 350.71,673.93 353.86,672.79 356.98,671.61 360.07,670.40 363.13,669.15 366.16,667.87 369.16,666.56 372.13,665.21 375.06,663.82 377.96,662.41 380.84,660.96 383.67,659.49 386.48,657.98 389.25,656.44 391.99,654.87 394.69,653.28 397.36,651.65 400.00,650.00 402.60,648.32 405.17,646.61 407.70,644.88 410.19,643.12 412.65,641.34 415.07,639.53 417.46,637.69 419.80,635.84 422.12,633.96 424.39,632.06 426.63,630.13 428.83,628.19 430.99,626.22 433.11,624.24 435.20,622.23 437.25,620.21 439.25,618.16 441.22,616.10 443.16,614.03 445.05,611.93 446.90,609.82 448.71,607.70 450.49,605.56 452.22,603.40 453.92,601.23 455.58,599.05 457.19,596.86 458.77,594.65 460.31,592.44 461.80,590.21 463.26,587.97 464.68,585.73 466.05,583.47 467.39,581.21 468.69,578.94 469.94,576.66 471.16,574.37 472.34,572.08 473.47,569.78 474.57,567.48 475.62,565.18 476.64,562.87 477.62,560.56 478.55,558.24 479.45,555.93 480.30,553.61 481.12,551.29 481.90,548.97 482.64,546.65 483.33,544.34 483.99,542.02 484.61,539.71 485.19,537.40 485.73,535.09 486.23,532.79 486.70,530.49 487.12,528.20 487.51,525.91 487.86,523.63 488.17,521.35 488.44,519.08 488.67,516.82 488.87,514.57 489.03,512.33 489.15,510.10 489.24,507.87 489.29,505.66 489.30,503.46 489.28,501.26 489.22,499.09 489.12,496.92 488.99,494.77 488.83,492.63 488.62,490.50 488.39,488.39 488.12,486.29 487.81,484.21 487.48,482.15 487.10,480.10 486.70,478.07 486.26,476.05 485.79,474.05 485.29,472.08 484.76,470.12 484.19,468.18 483.59,466.26 482.97,464.36 482.31,462.48 481.62,460.62 480.90,458.78" stroke="#1a1a2e" stroke-width="3.5" fill="none" stroke-linecap="round"/>
<polyline points="67.13,508.16 67.61,504.17 68.13,500.20 68.70,496.25 69.31,492.33 69.98,488.43 70.68,484.55 71.43,480.70 72.23,476.88 73.07,473.08 73.95,469.30 74.88,465.56 75.85,461.84 76.86,458.14 77.91,454.48 79.00,450.84 80.14,447.23 81.31,443.66 82.52,440.11 83.78,436.59 85.07,433.10 86.40,429.64 87.77,426.22 89.17,422.83 90.61,419.47 92.09,416.14 93.60,412.84 95.15,409.58 96.73,406.35 98.35,403.16 100.00,400.00 101.68,396.88 103.40,393.79 105.15,390.73 106.92,387.72 108.73,384.74 110.57,381.79 112.44,378.88 114.34,376.01 116.26,373.18 118.22,370.38 120.20,367.63 122.21,364.91 124.24,362.23 126.30,359.58 128.39,356.98 130.49,354.42 132.63,351.89 134.78,349.41 136.96,346.96 139.16,344.56 141.38,342.19 143.62,339.87 145.89,337.58 148.17,335.34 150.47,333.14 152.79,330.98 155.13,328.86 157.48,326.78 159.85,324.74 162.24,322.75 164.64,320.79 167.05,318.88 169.48,317.01 171.93,315.18 174.38,313.39 176.85,311.65 179.33,309.95 181.83,308.29 184.33,306.67 186.84,305.09 189.36,303.56 191.89,302.07 194.43,300.62 196.97,299.22 199.52,297.85 202.08,296.53 204.64,295.25 207.21,294.01 209.78,292.82 212.36,291.67 214.94,290.56 217.52,289.49 220.11,288.46 222.69,287.48 225.28,286.53 227.86,285.63 230.45,284.77 233.03,283.95 235.62,283.18 238.20,282.44 240.77,281.75 243.35,281.10 245.92,280.48 248.49,279.91 251.05,279.38 253.60,278.89 256.15,278.44 258.69,278.03 261.23,277.66 263.76,277.33 266.28,277.03 268.79,276.78 271.29,276.57 273.78,276.39 276.26,276.26 278.73,276.16 281.18,276.10 283.63,276.08 286.06,276.09 288.48,276.14 290.88,276.23 293.27,276.36 295.65,276.52 298.01,276.72 300.36,276.95 302.69,277.22 305.00,277.53 307.29,277.87 309.57,278.24 311.83,278.65 314.07,279.09 316.30,279.56 318.50,280.07 320.68,280.61 322.84,281.19 324.98,281.79 327.10,282.43 329.20,283.10 331.28,283.80 333.33,284.53 335.36,285.29 337.37,286.08 339.36,286.90 341.32,287.75 343.25,288.62 345.16,289.53 347.05,290.46 348.91,291.42 350.74,292.41 352.55,293.42 354.33,294.46 356.08,295.52 357.81,296.61 359.51,297.72 361.18,298.86 362.82,300.02 364.43,301.21 366.02,302.41 367.57,303.64 369.10,304.89" stroke="#1a1a2e" stroke-width="3.5" fill="none" stroke-linecap="round"/>
<polyline points="67.13,508.16 69.86,511.10 72.62,514.01 75.40,516.86 78.20,519.68 81.03,522.44 83.88,525.16 86.75,527.84 89.64,530.46 92.55,533.04 95.48,535.58 98.44,538.07 101.41,540.51 104.40,542.90 107.40,545.25 110.42,547.55 113.46,549.80 116.51,552.00 119.58,554.16 122.66,556.27 125.76,558.33 128.87,560.35 131.99,562.32 135.12,564.23 138.26,566.11 141.41,567.93 144.57,569.71 147.74,571.44 150.92,573.12 154.10,574.75 157.29,576.34 160.49,577.87 163.70,579.36 166.90,580.81 170.12,582.20 173.33,583.55 176.55,584.85 179.77,586.11 182.99,587.31 186.22,588.47 189.44,589.59 192.67,590.65 195.89,591.67 199.11,592.65 202.33,593.57 205.55,594.45 208.76,595.29 211.97,596.08 215.17,596.82 218.37,597.52 221.57,598.17 224.75,598.78 227.93,599.34 231.11,599.86 234.27,600.33 237.43,600.76 240.57,601.15 243.71,601.49 246.83,601.79 249.95,602.04 253.05,602.25 256.15,602.42 259.22,602.55 262.29,602.63 265.34,602.68 268.38,602.68 271.40,602.64 274.41,602.56 277.40,602.44 280.38,602.27 283.33,602.07 286.27,601.83 289.20,601.55 292.10,601.23 294.99,600.87 297.85,600.48 300.70,600.04 303.52,599.57 306.33,599.06 309.11,598.52 311.87,597.93 314.61,597.32 317.33,596.66 320.02,595.98 322.69,595.25 325.34,594.50 327.96,593.70 330.56,592.88 333.13,592.02 335.68,591.13 338.20,590.21 340.69,589.26 343.16,588.27 345.60,587.26 348.01,586.21 350.39,585.14 352.75,584.03 355.08,582.90 357.37,581.73 359.64,580.54 361.88,579.33 364.09,578.08 366.27,576.81 368.42,575.51 370.54,574.19 372.62,572.85 374.68,571.47 376.70,570.08 378.69,568.66 380.65,567.22 382.58,565.75 384.47,564.27 386.33,562.76 388.16,561.23 389.95,559.68 391.71,558.12 393.44,556.53 395.13,554.92 396.79,553.30 398.41,551.66 400.00,550.00 401.55,548.33 403.07,546.63 404.55,544.93 406.00,543.21 407.41,541.47 408.79,539.72 410.13,537.96 411.44,536.19 412.70,534.40 413.94,532.60 415.13,530.79 416.29,528.97 417.42,527.15 418.50,525.31 419.55,523.46 420.57,521.61 421.55,519.74 422.49,517.87 423.39,516.00 424.26,514.12 425.09,512.23 425.88,510.34 426.64,508.44 427.36,506.54 428.04,504.64 428.68,502.74 429.29,500.83 429.87,498.92 430.40,497.01 430.90,495.11" stroke="#1a1a2e" stroke-width="3.5" fill="none" stroke-linecap="round"/>
<polyline points="67.13,291.84 69.86,288.90 72.62,285.99 75.40,283.14 78.20,280.32 81.03,277.56 83.88,274.84 86.75,272.16 89.64,269.54 92.55,266.96 95.48,264.42 98.44,261.93 101.41,259.49 104.40,257.10 107.40,254.75 110.42,252.45 113.46,250.20 116.51,248.00 119.58,245.84 122.66,243.73 125.76,241.67 128.87,239.65 131.99,237.68 135.12,235.77 138.26,233.89 141.41,232.07 144.57,230.29 147.74,228.56 150.92,226.88 154.10,225.25 157.29,223.66 160.49,222.13 163.70,220.64 166.90,219.19 170.12,217.80 173.33,216.45 176.55,215.15 179.77,213.89 182.99,212.69 186.22,211.53 189.44,210.41 192.67,209.35 195.89,208.33 199.11,207.35 202.33,206.43 205.55,205.55 208.76,204.71 211.97,203.92 215.17,203.18 218.37,202.48 221.57,201.83 224.75,201.22 227.93,200.66 231.11,200.14 234.27,199.67 237.43,199.24 240.57,198.85 243.71,198.51 246.83,198.21 249.95,197.96 253.05,197.75 256.15,197.58 259.22,197.45 262.29,197.37 265.34,197.32 268.38,197.32 271.40,197.36 274.41,197.44 277.40,197.56 280.38,197.73 283.33,197.93 286.27,198.17 289.20,198.45 292.10,198.77 294.99,199.13 297.85,199.52 300.70,199.96 303.52,200.43 306.33,200.94 309.11,201.48 311.87,202.07 314.61,202.68 317.33,203.34 320.02,204.02 322.69,204.75 325.34,205.50 327.96,206.30 330.56,207.12 333.13,207.98 335.68,208.87 338.20,209.79 340.69,210.74 343.16,211.73 345.60,212.74 348.01,213.79 350.39,214.86 352.75,215.97 355.08,217.10 357.37,218.27 359.64,219.46 361.88,220.67 364.09,221.92 366.27,223.19 368.42,224.49 370.54,225.81 372.62,227.15 374.68,228.53 376.70,229.92 378.69,231.34 380.65,232.78 382.58,234.25 384.47,235.73 386.33,237.24 388.16,238.77 389.95,240.32 391.71,241.88 393.44,243.47 395.13,245.08 396.79,246.70 398.41,248.34 400.00,250.00 401.55,251.67 403.07,253.37 404.55,255.07 406.00,256.79 407.41,258.53 408.79,260.28 410.13,262.04 411.44,263.81 412.70,265.60 413.94,267.40 415.13,269.21 416.29,271.03 417.42,272.85 418.50,274.69 419.55,276.54 420.57,278.39 421.55,280.26 422.49,282.13 423.39,284.00 424.26,285.88 425.09,287.77 425.88,289.66 426.64,291.56 427.36,293.46 428.04,295.36 428.68,297.26 429.29,299.17 429.87,301.08 430.40,302.99 430.90,304.89" stroke="#1a1a2e" stroke-width="3.5" fill="none" stroke-linecap="round"/>
<polyline points="67.13,291.84 67.61,295.83 68.13,299.80 68.70,303.75 69.31,307.67 69.98,311.57 70.68,315.45 71.43,319.30 72.23,323.12 73.07,326.92 73.95,330.70 74.88,334.44 75.85,338.16 76.86,341.86 77.91,345.52 79.00,349.16 80.14,352.77 81.31,356.34 82.52,359.89 83.78,363.41 85.07,366.90 86.40,370.36 87.77,373.78 89.17,377.17 90.61,380.53 92.09,383.86 93.60,387.16 95.15,390.42 96.73,393.65 98.35,396.84 100.00,400.00 101.68,403.12 103.40,406.21 105.15,409.27 106.92,412.28 108.73,415.26 110.57,418.21 112.44,421.12 114.34,423.99 116.26,426.82 118.22,429.62 120.20,432.37 122.21,435.09 124.24,437.77 126.30,440.42 128.39,443.02 130.49,445.58 132.63,448.11 134.78,450.59 136.96,453.04 139.16,455.44 141.38,457.81 143.62,460.13 145.89,462.42 148.17,464.66 150.47,466.86 152.79,469.02 155.13,471.14 157.48,473.22 159.85,475.26 162.24,477.25 164.64,479.21 167.05,481.12 169.48,482.99 171.93,484.82 174.38,486.61 176.85,488.35 179.33,490.05 181.83,491.71 184.33,493.33 186.84,494.91 189.36,496.44 191.89,497.93 194.43,499.38 196.97,500.78 199.52,502.15 202.08,503.47 204.64,504.75 207.21,505.99 209.78,507.18 212.36,508.33 214.94,509.44 217.52,510.51 220.11,511.54 222.69,512.52 225.28,513.47 227.86,514.37 230.45,515.23 233.03,516.05 235.62,516.82 238.20,517.56 240.77,518.25 243.35,518.90 245.92,519.52 248.49,520.09 251.05,520.62 253.60,521.11 256.15,521.56 258.69,521.97 261.23,522.34 263.76,522.67 266.28,522.97 268.79,523.22 271.29,523.43 273.78,523.61 276.26,523.74 278.73,523.84 281.18,523.90 283.63,523.92 286.06,523.91 288.48,523.86 290.88,523.77 293.27,523.64 295.65,523.48 298.01,523.28 300.36,523.05 302.69,522.78 305.00,522.47 307.29,522.13 309.57,521.76 311.83,521.35 314.07,520.91 316.30,520.44 318.50,519.93 320.68,519.39 322.84,518.81 324.98,518.21 327.10,517.57 329.20,516.90 331.28,516.20 333.33,515.47 335.36,514.71 337.37,513.92 339.36,513.10 341.32,512.25 343.25,511.38 345.16,510.47 347.05,509.54 348.91,508.58 350.74,507.59 352.55,506.58 354.33,505.54 356.08,504.48 357.81,503.39 359.51,502.28 361.18,501.14 362.82,499.98 364.43,498.79 366.02,497.59 367.57,496.36 369.10,495.11" stroke="#1a1a2e" stroke-width="3.5" fill="none" stroke-linecap="round"/>
<polyline points="194.28,116.84 198.22,116.06 202.15,115.33 206.08,114.66 210.00,114.03 213.91,113.45 217.82,112.93 221.71,112.45 225.60,112.03 229.47,111.65 233.33,111.32 237.18,111.05 241.02,110.82 244.85,110.64 248.66,110.51 252.45,110.42 256.23,110.39 260.00,110.40 263.75,110.46 267.48,110.56 271.20,110.71 274.90,110.91 278.58,111.15 282.24,111.44 285.88,111.77 289.50,112.15 293.10,112.57 296.68,113.03 300.24,113.54 303.78,114.09 307.29,114.68 310.79,115.32 314.25,116.00 317.70,116.71 321.12,117.47 324.51,118.27 327.88,119.11 331.22,119.99 334.54,120.91 337.83,121.86 341.09,122.86 344.33,123.89 347.53,124.96 350.71,126.07 353.86,127.21 356.98,128.39 360.07,129.60 363.13,130.85 366.16,132.13 369.16,133.44 372.13,134.79 375.06,136.18 377.96,137.59 380.84,139.04 383.67,140.51 386.48,142.02 389.25,143.56 391.99,145.13 394.69,146.72 397.36,148.35 400.00,150.00 402.60,151.68 405.17,153.39 407.70,155.12 410.19,156.88 412.65,158.66 415.07,160.47 417.46,162.31 419.80,164.16 422.12,166.04 424.39,167.94 426.63,169.87 428.83,171.81 430.99,173.78 433.11,175.76 435.20,177.77 437.25,179.79 439.25,181.84 441.22,183.90 443.16,185.97 445.05,188.07 446.90,190.18 448.71,192.30 450.49,194.44 452.22,196.60 453.92,198.77 455.58,200.95 457.19,203.14 458.77,205.35 460.31,207.56 461.80,209.79 463.26,212.03 464.68,214.27 466.05,216.53 467.39,218.79 468.69,221.06 469.94,223.34 471.16,225.63 472.34,227.92 473.47,230.22 474.57,232.52 475.62,234.82 476.64,237.13 477.62,239.44 478.55,241.76 479.45,244.07 480.30,246.39 481.12,248.71 481.90,251.03 482.64,253.35 483.33,255.66 483.99,257.98 484.61,260.29 485.19,262.60 485.73,264.91 486.23,267.21 486.70,269.51 487.12,271.80 487.51,274.09 487.86,276.37 488.17,278.65 488.44,280.92 488.67,283.18 488.87,285.43 489.03,287.67 489.15,289.90 489.24,292.13 489.29,294.34 489.30,296.54 489.28,298.74 489.22,300.91 489.12,303.08 488.99,305.23 488.83,307.37 488.62,309.50 488.39,311.61 488.12,313.71 487.81,315.79 487.48,317.85 487.10,319.90 486.70,321.93 486.26,323.95 485.79,325.95 485.29,327.92 484.76,329.88 484.19,331.82 483.59,333.74 482.97,335.64 482.31,337.52 481.62,339.38 480.90,341.22" stroke="#1a1a2e" stroke-width="3.5" fill="none" stroke-linecap="round"/>
<polyline points="194.28,116.84 192.32,120.35 190.41,123.87 188.55,127.40 186.74,130.93 184.98,134.48 183.28,138.03 181.62,141.58 180.02,145.14 178.46,148.71 176.96,152.29 175.50,155.86 174.10,159.44 172.75,163.02 171.44,166.61 170.19,170.19 168.99,173.78 167.83,177.36 166.73,180.94 165.68,184.53 164.67,188.11 163.72,191.69 162.81,195.26 161.95,198.83 161.14,202.40 160.38,205.96 159.67,209.51 159.00,213.06 158.39,216.60 157.82,220.14 157.29,223.66 156.82,227.18 156.39,230.69 156.01,234.19 155.68,237.67 155.39,241.15 155.14,244.61 154.95,248.06 154.80,251.50 154.69,254.92 154.63,258.33 154.61,261.73 154.63,265.11 154.70,268.47 154.82,271.82 154.97,275.15 155.17,278.47 155.41,281.76 155.70,285.04 156.02,288.30 156.39,291.54 156.80,294.76 157.24,297.95 157.73,301.13 158.26,304.29 158.83,307.42 159.43,310.53 160.08,313.62 160.76,316.69 161.48,319.73 162.24,322.75 163.03,325.74 163.86,328.71 164.73,331.65 165.63,334.56 166.57,337.45 167.54,340.31 168.55,343.15 169.59,345.96 170.66,348.74 171.77,351.49 172.90,354.21 174.07,356.90 175.28,359.57 176.51,362.20 177.77,364.80 179.06,367.37 180.38,369.92 181.73,372.43 183.11,374.91 184.52,377.35 185.95,379.77 187.41,382.15 188.90,384.50 190.41,386.81 191.95,389.10 193.51,391.35 195.10,393.56 196.71,395.74 198.34,397.89 200.00,400.00 201.68,402.08 203.38,404.12 205.10,406.13 206.84,408.10 208.60,410.03 210.37,411.93 212.17,413.79 213.99,415.62 215.82,417.41 217.67,419.16 219.54,420.88 221.42,422.56 223.32,424.20 225.23,425.81 227.15,427.38 229.09,428.91 231.05,430.40 233.01,431.85 234.99,433.27 236.98,434.65 238.97,435.99 240.98,437.30 243.00,438.56 245.03,439.79 247.06,440.98 249.10,442.13 251.15,443.24 253.21,444.32 255.27,445.35 257.34,446.35 259.41,447.31 261.49,448.23 263.57,449.12 265.66,449.96 267.74,450.77 269.83,451.54 271.92,452.27 274.01,452.96 276.10,453.61 278.19,454.23 280.28,454.81 282.37,455.35 284.46,455.85 286.54,456.32 288.62,456.75 290.70,457.14 292.77,457.49 294.84,457.81 296.91,458.09 298.96,458.33 301.01,458.54 303.06,458.71 305.10,458.84 307.12,458.94 309.14,459.00 311.16,459.03 313.16,459.02 315.15,458.97 317.13,458.89 319.10,458.78" stroke="#1a1a2e" stroke-width="3.5" fill="none" stroke-linecap="round"/>
<circle cx="400.0" cy="400.0" r="100" fill="#666666" stroke="#1a1a2e" stroke-width="3.5" />
<text x="400.00" y="82.50" font-family="Arial, sans-serif" font-size="22" font-weight="bold" fill="red" text-anchor="middle" dominant-baseline="central">7</text>
<text x="586.62" y="143.14" font-family="Arial, sans-serif" font-size="22" font-weight="bold" fill="red" text-anchor="middle" dominant-baseline="central">4</text>
<text x="701.96" y="301.89" font-family="Arial, sans-serif" font-size="22" font-weight="bold" fill="red" text-anchor="middle" dominant-baseline="central">3</text>
<text x="701.96" y="498.11" font-family="Arial, sans-serif" font-size="22" font-weight="bold" fill="red" text-anchor="middle" dominant-baseline="central">2</text>
<text x="586.62" y="656.86" font-family="Arial, sans-serif" font-size="22" font-weight="bold" fill="red" text-anchor="middle" dominant-baseline="central">3</text>
<text x="400.00" y="717.50" font-family="Arial, sans-serif" font-size="22" font-weight="bold" fill="red" text-anchor="middle" dominant-baseline="central">4</text>
<text x="213.38" y="656.86" font-family="Arial, sans-serif" font-size="22" font-weight="bold" fill="red" text-anchor="middle" dominant-baseline="central">7</text>
<text x="98.04" y="498.11" font-family="Arial, sans-serif" font-size="22" font-weight="bold" fill="red" text-anchor="middle" dominant-baseline="central">4</text>
<text x="98.04" y="301.89" font-family="Arial, sans-serif" font-size="22" font-weight="bold" fill="red" text-anchor="middle" dominant-baseline="central">7</text>
<text x="213.38" y="143.14" font-family="Arial, sans-serif" font-size="22" font-weight="bold" fill="red" text-anchor="middle" dominant-baseline="central">4</text>
<text x="400.00" y="125.00" font-family="Arial, sans-serif" font-size="22" font-weight="bold" fill="red" text-anchor="middle" dominant-baseline="central">1</text>
<text x="484.98" y="138.46" font-family="Arial, sans-serif" font-size="22" font-weight="bold" fill="red" text-anchor="middle" dominant-baseline="central">2</text>
<text x="622.48" y="238.36" font-family="Arial, sans-serif" font-size="22" font-weight="bold" fill="red" text-anchor="middle" dominant-baseline="central">4</text>
<text x="661.54" y="315.02" font-family="Arial, sans-serif" font-size="22" font-weight="bold" fill="red" text-anchor="middle" dominant-baseline="central">5</text>
<text x="675.00" y="400.00" font-family="Arial, sans-serif" font-size="22" font-weight="bold" fill="red" text-anchor="middle" dominant-baseline="central">6</text>
<text x="661.54" y="484.98" font-family="Arial, sans-serif" font-size="22" font-weight="bold" fill="red" text-anchor="middle" dominant-baseline="central">7</text>
<text x="622.48" y="561.64" font-family="Arial, sans-serif" font-size="22" font-weight="bold" fill="red" text-anchor="middle" dominant-baseline="central">8</text>
<text x="561.64" y="622.48" font-family="Arial, sans-serif" font-size="22" font-weight="bold" fill="red" text-anchor="middle" dominant-baseline="central">9</text>
<text x="400.00" y="675.00" font-family="Arial, sans-serif" font-size="22" font-weight="bold" fill="red" text-anchor="middle" dominant-baseline="central">1</text>
<text x="315.02" y="661.54" font-family="Arial, sans-serif" font-size="22" font-weight="bold" fill="red" text-anchor="middle" dominant-baseline="central">2</text>
<text x="238.36" y="622.48" font-family="Arial, sans-serif" font-size="22" font-weight="bold" fill="red" text-anchor="middle" dominant-baseline="central">3</text>
<text x="177.52" y="561.64" font-family="Arial, sans-serif" font-size="22" font-weight="bold" fill="red" text-anchor="middle" dominant-baseline="central">4</text>
<text x="138.46" y="484.98" font-family="Arial, sans-serif" font-size="22" font-weight="bold" fill="red" text-anchor="middle" dominant-baseline="central">5</text>
<text x="125.00" y="400.00" font-family="Arial, sans-serif" font-size="22" font-weight="bold" fill="red" text-anchor="middle" dominant-baseline="central">6</text>
<text x="138.46" y="315.02" font-family="Arial, sans-serif" font-size="22" font-weight="bold" fill="red" text-anchor="middle" dominant-baseline="central">7</text>
<text x="177.52" y="238.36" font-family="Arial, sans-serif" font-size="22" font-weight="bold" fill="red" text-anchor="middle" dominant-baseline="central">8</text>
<text x="238.36" y="177.52" font-family="Arial, sans-serif" font-size="22" font-weight="bold" fill="red" text-anchor="middle" dominant-baseline="central">9</text>
<text x="469.53" y="186.01" font-family="Arial, sans-serif" font-size="22" font-weight="bold" fill="red" text-anchor="middle" dominant-baseline="central">9</text>
<text x="532.25" y="217.97" font-family="Arial, sans-serif" font-size="22" font-weight="bold" fill="red" text-anchor="middle" dominant-baseline="central">8</text>
<text x="582.03" y="267.75" font-family="Arial, sans-serif" font-size="22" font-weight="bold" fill="red" text-anchor="middle" dominant-baseline="central">7</text>
<text x="613.99" y="330.47" font-family="Arial, sans-serif" font-size="22" font-weight="bold" fill="red" text-anchor="middle" dominant-baseline="central">6</text>
<text x="625.00" y="400.00" font-family="Arial, sans-serif" font-size="22" font-weight="bold" fill="red" text-anchor="middle" dominant-baseline="central">5</text>
<text x="613.99" y="469.53" font-family="Arial, sans-serif" font-size="22" font-weight="bold" fill="red" text-anchor="middle" dominant-baseline="central">4</text>
<text x="582.03" y="532.25" font-family="Arial, sans-serif" font-size="22" font-weight="bold" fill="red" text-anchor="middle" dominant-baseline="central">3</text>
<text x="532.25" y="582.03" font-family="Arial, sans-serif" font-size="22" font-weight="bold" fill="red" text-anchor="middle" dominant-baseline="central">2</text>
<text x="469.53" y="613.99" font-family="Arial, sans-serif" font-size="22" font-weight="bold" fill="red" text-anchor="middle" dominant-baseline="central">1</text>
<text x="330.47" y="613.99" font-family="Arial, sans-serif" font-size="22" font-weight="bold" fill="red" text-anchor="middle" dominant-baseline="central">9</text>
<text x="267.75" y="582.03" font-family="Arial, sans-serif" font-size="22" font-weight="bold" fill="red" text-anchor="middle" dominant-baseline="central">8</text>
<text x="217.97" y="532.25" font-family="Arial, sans-serif" font-size="22" font-weight="bold" fill="red" text-anchor="middle" dominant-baseline="central">7</text>
<text x="186.01" y="469.53" font-family="Arial, sans-serif" font-size="22" font-weight="bold" fill="red" text-anchor="middle" dominant-baseline="central">6</text>
<text x="175.00" y="400.00" font-family="Arial, sans-serif" font-size="22" font-weight="bold" fill="red" text-anchor="middle" dominant-baseline="central">5</text>
<text x="186.01" y="330.47" font-family="Arial, sans-serif" font-size="22" font-weight="bold" fill="red" text-anchor="middle" dominant-baseline="central">4</text>
<text x="217.97" y="267.75" font-family="Arial, sans-serif" font-size="22" font-weight="bold" fill="red" text-anchor="middle" dominant-baseline="central">3</text>
<text x="267.75" y="217.97" font-family="Arial, sans-serif" font-size="22" font-weight="bold" fill="red" text-anchor="middle" dominant-baseline="central">2</text>
<text x="330.47" y="186.01" font-family="Arial, sans-serif" font-size="22" font-weight="bold" fill="red" text-anchor="middle" dominant-baseline="central">1</text>
<text x="400.00" y="225.00" font-family="Arial, sans-serif" font-size="22" font-weight="bold" fill="red" text-anchor="middle" dominant-baseline="central">5</text>
<text x="502.86" y="258.42" font-family="Arial, sans-serif" font-size="22" font-weight="bold" fill="red" text-anchor="middle" dominant-baseline="central">5</text>
<text x="566.43" y="345.92" font-family="Arial, sans-serif" font-size="22" font-weight="bold" fill="red" text-anchor="middle" dominant-baseline="central">5</text>
<text x="566.43" y="454.08" font-family="Arial, sans-serif" font-size="22" font-weight="bold" fill="red" text-anchor="middle" dominant-baseline="central">5</text>
<text x="502.86" y="541.58" font-family="Arial, sans-serif" font-size="22" font-weight="bold" fill="red" text-anchor="middle" dominant-baseline="central">5</text>
<text x="400.00" y="575.00" font-family="Arial, sans-serif" font-size="22" font-weight="bold" fill="red" text-anchor="middle" dominant-baseline="central">4</text>
<text x="297.14" y="541.58" font-family="Arial, sans-serif" font-size="22" font-weight="bold" fill="red" text-anchor="middle" dominant-baseline="central">4</text>
<text x="233.57" y="454.08" font-family="Arial, sans-serif" font-size="22" font-weight="bold" fill="red" text-anchor="middle" dominant-baseline="central">4</text>
<text x="233.57" y="345.92" font-family="Arial, sans-serif" font-size="22" font-weight="bold" fill="red" text-anchor="middle" dominant-baseline="central">4</text>
<text x="297.14" y="258.42" font-family="Arial, sans-serif" font-size="22" font-weight="bold" fill="red" text-anchor="middle" dominant-baseline="central">4</text>
<text x="400.00" y="275.00" font-family="Arial, sans-serif" font-size="22" font-weight="bold" fill="red" text-anchor="middle" dominant-baseline="central">1</text>
<text x="438.63" y="281.12" font-family="Arial, sans-serif" font-size="22" font-weight="bold" fill="red" text-anchor="middle" dominant-baseline="central">1</text>
<text x="473.47" y="298.87" font-family="Arial, sans-serif" font-size="22" font-weight="bold" fill="red" text-anchor="middle" dominant-baseline="central">2</text>
<text x="501.13" y="326.53" font-family="Arial, sans-serif" font-size="22" font-weight="bold" fill="red" text-anchor="middle" dominant-baseline="central">2</text>
<text x="518.88" y="361.37" font-family="Arial, sans-serif" font-size="22" font-weight="bold" fill="red" text-anchor="middle" dominant-baseline="central">3</text>
<text x="525.00" y="400.00" font-family="Arial, sans-serif" font-size="22" font-weight="bold" fill="red" text-anchor="middle" dominant-baseline="central">3</text>
<text x="518.88" y="438.63" font-family="Arial, sans-serif" font-size="22" font-weight="bold" fill="red" text-anchor="middle" dominant-baseline="central">4</text>
<text x="501.13" y="473.47" font-family="Arial, sans-serif" font-size="22" font-weight="bold" fill="red" text-anchor="middle" dominant-baseline="central">4</text>
<text x="473.47" y="501.13" font-family="Arial, sans-serif" font-size="22" font-weight="bold" fill="red" text-anchor="middle" dominant-baseline="central">5</text>
<text x="438.63" y="518.88" font-family="Arial, sans-serif" font-size="22" font-weight="bold" fill="red" text-anchor="middle" dominant-baseline="central">5</text>
<text x="400.00" y="525.00" font-family="Arial, sans-serif" font-size="22" font-weight="bold" fill="red" text-anchor="middle" dominant-baseline="central">6</text>
<text x="361.37" y="518.88" font-family="Arial, sans-serif" font-size="22" font-weight="bold" fill="red" text-anchor="middle" dominant-baseline="central">6</text>
<text x="326.53" y="501.13" font-family="Arial, sans-serif" font-size="22" font-weight="bold" fill="red" text-anchor="middle" dominant-baseline="central">7</text>
<text x="298.87" y="473.47" font-family="Arial, sans-serif" font-size="22" font-weight="bold" fill="red" text-anchor="middle" dominant-baseline="central">7</text>
<text x="281.12" y="438.63" font-family="Arial, sans-serif" font-size="22" font-weight="bold" fill="red" text-anchor="middle" dominant-baseline="central">8</text>
<text x="275.00" y="400.00" font-family="Arial, sans-serif" font-size="22" font-weight="bold" fill="red" text-anchor="middle" dominant-baseline="central">8</text>
<text x="281.12" y="361.37" font-family="Arial, sans-serif" font-size="22" font-weight="bold" fill="red" text-anchor="middle" dominant-baseline="central">9</text>
<text x="298.87" y="326.53" font-family="Arial, sans-serif" font-size="22" font-weight="bold" fill="red" text-anchor="middle" dominant-baseline="central">9</text>
</svg>