<svg width="800" height="800" xmlns="http://www.w3.org/2000/svg">
<rect width="100%" height="100%" fill="#d3d3d3" />
<path d="M 400.000 250.000 A 150 150 0 0 1 446.353 257.342" stroke="#1a1a2e" stroke-width="3.5" fill="none" stroke-linecap="round" />
<path d="M 446.353 257.342 A 150 150 0 0 1 488.168 278.647" stroke="#1a1a2e" stroke-width="3.5" fill="none" stroke-linecap="round" />
<path d="M 488.168 278.647 A 150 150 0 0 1 521.353 311.832" stroke="#1a1a2e" stroke-width="3.5" fill="none" stroke-linecap="round" />
<path d="M 521.353 311.832 A 150 150 0 0 1 542.658 353.647" stroke="#1a1a2e" stroke-width="3.5" fill="none" stroke-linecap="round" />
<path d="M 542.658 353.647 A 150 150 0 0 1 550.000 400.000" stroke="#1a1a2e" stroke-width="3.5" fill="none" stroke-linecap="round" />
<path d="M 550.000 400.000 A 150 150 0 0 1 542.658 446.353" stroke="#1a1a2e" stroke-width="3.5" fill="none" stroke-linecap="round" />
<path d="M 542.658 446.353 A 150 150 0 0 1 521.353 488.168" stroke="#1a1a2e" stroke-width="3.5" fill="none" stroke-linecap="round" />
<path d="M 521.353 488.168 A 150 150 0 0 1 488.168 521.353" stroke="#1a1a2e" stroke-width="3.5" fill="none" stroke-linecap="round" />
<path d="M 488.168 521.353 A 150 150 0 0 1 446.353 542.658" stroke="#1a1a2e" stroke-width="3.5" fill="none" stroke-linecap="round" />
<path d="M 446.353 542.658 A 150 150 0 0 1 400.000 550.000" stroke="#1a1a2e" stroke-width="3.5" fill="none" stroke-linecap="round" />
<path d="M 400.000 550.000 A 150 150 0 0 1 353.647 542.658" stroke="#1a1a2e" stroke-width="3.5" fill="none" stroke-linecap="round" />
<path d="M 353.647 542.658 A 150 150 0 0 1 311.832 521.353" stroke="#1a1a2e" stroke-width="3.5" fill="none" stroke-linecap="round" />
<path d="M 311.832 521.353 A 150 150 0 0 1 278.647 488.168" stroke="#1a1a2e" stroke-width="3.5" fill="none" stroke-linecap="round" />
<path d="M 278.647 488.168 A 150 150 0 0 1 257.342 446.353" stroke="#1a1a2e" stroke-width="3.5" fill="none" stroke-linecap="round" />
<path d="M 257.342 446.353 A 150 150 0 0 1 250.000 400.000" stroke="#1a1a2e" stroke-width="3.5" fill="none" stroke-linecap="round" />
<path d="M 250.000 400.000 A 150 150 0 0 1 257.342 353.647" stroke="#1a1a2e" stroke-width="3.5" fill="none" stroke-linecap="round" />
<path d="M 257.342 353.647 A 150 150 0 0 1 278.647 311.832" stroke="#1a1a2e" stroke-width="3.5" fill="none" stroke-linecap="round" />
<path d="M 278.647 311.832 A 150 150 0 0 1 311.832 278.647" stroke="#1a1a2e" stroke-width="3.5" fill="none" stroke-linecap="round" />
<path d="M 311.832 278.647 A 150 150 0 0 1 353.647 257.342" stroke="#1a1a2e" stroke-width="3.5" fill="none" stroke-linecap="round" />
<path d="M 353.647 257.342 A 150 150 0 0 1 400.000 250.000" stroke="#1a1a2e" stroke-width="3.5" fill="none" stroke-linecap="round" />
<path d="M 400.000 200.000 A 200 200 0 0 1 461.803 209.789" stroke="#1a1a2e" stroke-width="3.5" fill="none" stroke-linecap="round" />
<path d="M 461.803 209.789 A 200 200 0 0 1 517.557 238.197" stroke="#1a1a2e" stroke-width="3.5" fill="none" stroke-linecap="round" />
<path d="M 517.557 238.197 A 200 200 0 0 1 561.803 282.443" stroke="#1a1a2e" stroke-width="3.5" fill="none" stroke-linecap="round" />
<path d="M 561.803 282.443 A 200 200 0 0 1 590.211 338.197" stroke="#1a1a2e" stroke-width="3.5" fill="none" stroke-linecap="round" />
<path d="M 590.211 338.197 A 200 200 0 0 1 600.000 400.000" stroke="#1a1a2e" stroke-width="3.5" fill="none" stroke-linecap="round" />
<path d="M 600.000 400.000 A 200 200 0 0 1 590.211 461.803" stroke="#1a1a2e" stroke-width="3.5" fill="none" stroke-linecap="round" />
<path d="M 590.211 461.803 A 200 200 0 0 1 561.803 517.557" stroke="#1a1a2e" stroke-width="3.5" fill="none" stroke-linecap="round" />
<path d="M 561.803 517.557 A 200 200 0 0 1 517.557 561.803" stroke="#1a1a2e" stroke-width="3.5" fill="none" stroke-linecap="round" />
<path d="M 517.557 561.803 A 200 200 0 0 1 461.803 590.211" stroke="#1a1a2e" stroke-width="3.5" fill="none" stroke-linecap="round" />
<path d="M 461.803 590.211 A 200 200 0 0 1 400.000 600.000" stroke="#1a1a2e" stroke-width="3.5" fill="none" stroke-linecap="round" />
<path d="M 400.000 600.000 A 200 200 0 0 1 338.197 590.211" stroke="#1a1a2e" stroke-width="3.5" fill="none" stroke-linecap="round" />
<path d="M 338.197 590.211 A 200 200 0 0 1 282.443 561.803" stroke="#1a1a2e" stroke-width="3.5" fill="none" stroke-linecap="round" />
<path d="M 282.443 561.803 A 200 200 0 0 1 238.197 517.557" stroke="#1a1a2e" stroke-width="3.5" fill="none" stroke-linecap="round" />
<path d="M 238.197 517.557 A 200 200 0 0 1 209.789 461.803" stroke="#1a1a2e" stroke-width="3.5" fill="none" stroke-linecap="round" />
<path d="M 209.789 461.803 A 200 200 0 0 1 200.000 400.000" stroke="#1a1a2e" stroke-width="3.5" fill="none" stroke-linecap="round" />
<path d="M 200.000 400.000 A 200 200 0 0 1 209.789 338.197" stroke="#1a1a2e" stroke-width="3.5" fill="none" stroke-linecap="round" />
<path d="M 209.789 338.197 A 200 200 0 0 1 238.197 282.443" stroke="#1a1a2e" stroke-width="3.5" fill="none" stroke-linecap="round" />
<path d="M 238.197 282.443 A 200 200 0 0 1 282.443 238.197" stroke="#1a1a2e" stroke-width="3.5" fill="none" stroke-linecap="round" />
<path d="M 282.443 238.197 A 200 200 0 0 1 338.197 209.789" stroke="#1a1a2e" stroke-width="3.5" fill="none" stroke-linecap="round" />
<path d="M 338.197 209.789 A 200 200 0 0 1 400.000 200.000" stroke="#1a1a2e" stroke-width="3.5" fill="none" stroke-linecap="round" />
<path d="M 400.000 150.000 A 250 250 0 0 1 477.254 162.236" stroke="#1a1a2e" stroke-width="3.5" fill="none" stroke-linecap="round" />
<path d="M 477.254 162.236 A 250 250 0 0 1 546.946 197.746" stroke="#1a1a2e" stroke-width="3.5" fill="none" stroke-linecap="round" />
<path d="M 546.946 197.746 A 250 250 0 0 1 602.254 253.054" stroke="#1a1a2e" stroke-width="3.5" fill="none" stroke-linecap="round" />
<path d="M 602.254 253.054 A 250 250 0 0 1 637.764 322.746" stroke="#1a1a2e" stroke-width="3.5" fill="none" stroke-linecap="round" />
<path d="M 637.764 322.746 A 250 250 0 0 1 650.000 400.000" stroke="#1a1a2e" stroke-width="3.5" fill="none" stroke-linecap="round" />
<path d="M 650.000 400.000 A 250 250 0 0 1 637.764 477.254" stroke="#1a1a2e" stroke-width="3.5" fill="none" stroke-linecap="round" />
<path d="M 637.764 477.254 A 250 250 0 0 1 602.254 546.946" stroke="#1a1a2e" stroke-width="3.5" fill="none" stroke-linecap="round" />
<path d="M 602.254 546.946 A 250 250 0 0 1 546.946 602.254" stroke="#1a1a2e" stroke-width="3.5" fill="none" stroke-linecap="round" />
<path d="M 546.946 602.254 A 250 250 0 0 1 477.254 637.764" stroke="#1a1a2e" stroke-width="3.5" fill="none" stroke-linecap="round" />
<path d="M 477.254 637.764 A 250 250 0 0 1 400.000 650.000" stroke="#1a1a2e" stroke-width="3.5" fill="none" stroke-linecap="round" />
<path d="M 400.000 650.000 A 250 250 0 0 1 322.746 637.764" stroke="#1a1a2e" stroke-width="3.5" fill="none" stroke-linecap="round" />
<path d="M 322.746 637.764 A 250 250 0 0 1 253.054 602.254" stroke="#1a1a2e" stroke-width="3.5" fill="none" stroke-linecap="round" />
<path d="M 253.054 602.254 A 250 250 0 0 1 197.746 546.946" stroke="#1a1a2e" stroke-width="3.5" fill="none" stroke-linecap="round" />
<path d="M 197.746 546.946 A 250 250 0 0 1 162.236 477.254" stroke="#1a1a2e" stroke-width="3.5" fill="none" stroke-linecap="round" />
<path d="M 162.236 477.254 A 250 250 0 0 1 150.000 400.000" stroke="#1a1a2e" stroke-width="3.5" fill="none" stroke-linecap="round" />
<path d="M 150.000 400.000 A 250 250 0 0 1 162.236 322.746" stroke="#1a1a2e" stroke-width="3.5" fill="none" stroke-linecap="round" />
<path d="M 162.236 322.746 A 250 250 0 0 1 197.746 253.054" stroke="#1a1a2e" stroke-width="3.5" fill="none" stroke-linecap="round" />
<path d="M 197.746 253.054 A 250 250 0 0 1 253.054 197.746" stroke="#1a1a2e" stroke-width="3.5" fill="none" stroke-linecap="round" />
<path d="M 253.054 197.746 A 250 250 0 0 1 322.746 162.236" stroke="#1a1a2e" stroke-width="3.5" fill="none" stroke-linecap="round" />
<path d="M 322.746 162.236 A 250 250 0 0 1 400.000 150.000" stroke="#1a1a2e" stroke-width="3.5" fill="none" stroke-linecap="round" />
<path d="M 400.000 100.000 A 300 300 0 0 1 492.705 114.683" stroke="#1a1a2e" stroke-width="3.5" fill="none" stroke-linecap="round" />
<path d="M 492.705 114.683 A 300 300 0 0 1 576.336 157.295" stroke="#1a1a2e" stroke-width="3.5" fill="none" stroke-linecap="round" />
<path d="M 576.336 157.295 A 300 300 0 0 1 642.705 223.664" stroke="#1a1a2e" stroke-width="3.5" fill="none" stroke-linecap="round" />
<path d="M 642.705 223.664 A 300 300 0 0 1 685.317 307.295" stroke="#1a1a2e" stroke-width="3.5" fill="none" stroke-linecap="round" />
<path d="M 685.317 307.295 A 300 300 0 0 1 700.000 400.000" stroke="#1a1a2e" stroke-width="3.5" fill="none" stroke-linecap="round" />
<path d="M 700.000 400.000 A 300 300 0 0 1 685.317 492.705" stroke="#1a1a2e" stroke-width="3.5" fill="none" stroke-linecap="round" />
<path d="M 685.317 492.705 A 300 300 0 0 1 642.705 576.336" stroke="#1a1a2e" stroke-width="3.5" fill="none" stroke-linecap="round" />
<path d="M 642.705 576.336 A 300 300 0 0 1 576.336 642.705" stroke="#1a1a2e" stroke-width="3.5" fill="none" stroke-linecap="round" />
<path d="M 576.336 642.705 A 300 300 0 0 1 492.705 685.317" stroke="#1a1a2e" stroke-width="3.5" fill="none" stroke-linecap="round" />
<path d="M 492.705 685.317 A 300 300 0 0 1 400.000 700.000" stroke="#1a1a2e" stroke-width="3.5" fill="none" stroke-linecap="round" />
<path d="M 400.000 700.000 A 300 300 0 0 1 307.295 685.317" stroke="#1a1a2e" stroke-width="3.5" fill="none" stroke-linecap="round" />
<path d="M 307.295 685.317 A 300 300 0 0 1 223.664 642.705" stroke="#1a1a2e" stroke-width="3.5" fill="none" stroke-linecap="round" />
<path d="M 223.664 642.705 A 300 300 0 0 1 157.295 576.336" stroke="#1a1a2e" stroke-width="3.5" fill="none" stroke-linecap="round" />
<path d="M 157.295 576.336 A 300 300 0 0 1 114.683 492.705" stroke="#1a1a2e" stroke-width="3.5" fill="none" stroke-linecap="round" />
<path d="M 114.683 492.705 A 300 300 0 0 1 100.000 400.000" stroke="#1a1a2e" stroke-width="3.5" fill="none" stroke-linecap="round" />
<path d="M 100.000 400.000 A 300 300 0 0 1 114.683 307.295" stroke="#1a1a2e" stroke-width="3.5" fill="none" stroke-linecap="round" />
<path d="M 114.683 307.295 A 300 300 0 0 1 157.295 223.664" stroke="#1a1a2e" stroke-width="3.5" fill="none" stroke-linecap="round" />
<path d="M 157.295 223.664 A 300 300 0 0 1 223.664 157.295" stroke="#1a1a2e" stroke-width="3.5" fill="none" stroke-linecap="round" />
<path d="M 223.664 157.295 A 300 300 0 0 1 307.295 114.683" stroke="#1a1a2e" stroke-width="3.5" fill="none" stroke-linecap="round" />
<path d="M 307.295 114.683 A 300 300 0 0 1 400.000 100.000" stroke="#1a1a2e" stroke-width="3.5" fill="none" stroke-linecap="round" />
<polyline points="400.000,50.000 403.648,51.686 407.260,53.409 410.837,55.170 414.377,56.968 417.881,58.802 421.349,60.671 424.779,62.575 428.172,64.514 431.526,66.487 434.843,68.493 438.121,70.531 441.360,72.602 444.560,74.704 447.720,76.838 450.841,79.001 453.922,81.195 456.962,83.417 459.962,85.668 462.921,87.947 465.839,90.253 468.715,92.586 471.550,94.945 474.343,97.330 477.094,99.739 479.803,102.173 482.469,104.630 485.092,107.110 487.673,109.613 490.211,112.138 492.705,114.683" stroke="#1a1a2e" stroke-width="3.5" fill="none" stroke-linecap="round"/>
<polyline points="400.000,50.000 396.352,51.686 392.740,53.409 389.163,55.170 385.623,56.968 382.119,58.802 378.651,60.671 375.221,62.575 371.828,64.514 368.474,66.487 365.157,68.493 361.879,70.531 358.640,72.602 355.440,74.704 352.280,76.838 349.159,79.001 346.078,81.195 343.038,83.417 340.038,85.668 337.079,87.947 334.161,90.253 331.285,92.586 328.450,94.945 325.657,97.330 322.906,99.739 320.197,102.173 317.531,104.630 314.908,107.110 312.327,109.613 309.789,112.138 307.295,114.683" stroke="#1a1a2e" stroke-width="3.5" fill="none" stroke-linecap="round"/>
<polyline points="492.705,114.683 495.156,117.249 497.564,119.835 499.928,122.440 502.248,125.064 504.524,127.706 506.756,130.365 508.944,133.041 511.088,135.733 513.187,138.440 515.242,141.162 517.252,143.898 519.218,146.648 521.139,149.411 523.016,152.186 524.847,154.973 526.634,157.771 528.376,160.579 530.073,163.397 531.726,166.224 533.333,169.060 534.896,171.903 536.414,174.754 537.887,177.611 539.315,180.475 540.698,183.343 542.037,186.217 543.331,189.094 544.581,191.976 545.786,194.860 546.946,197.746" stroke="#1a1a2e" stroke-width="3.5" fill="none" stroke-linecap="round"/>
<polyline points="307.295,114.683 304.844,117.249 302.436,119.835 300.072,122.440 297.752,125.064 295.476,127.706 293.244,130.365 291.056,133.041 288.912,135.733 286.813,138.440 284.758,141.162 282.748,143.898 280.782,146.648 278.861,149.411 276.984,152.186 275.153,154.973 273.366,157.771 271.624,160.579 269.927,163.397 268.274,166.224 266.667,169.060 265.104,171.903 263.586,174.754 262.113,177.611 260.685,180.475 259.302,183.343 257.963,186.217 256.669,189.094 255.419,191.976 254.214,194.860 253.054,197.746" stroke="#1a1a2e" stroke-width="3.5" fill="none" stroke-linecap="round"/>
<polyline points="546.946,197.746 548.063,200.634 549.134,203.523 550.162,206.412 551.146,209.301 552.086,212.190 552.982,215.077 553.834,217.962 554.643,220.845 555.408,223.724 556.130,226.600 556.810,229.471 557.446,232.337 558.039,235.198 558.590,238.053 559.099,240.901 559.566,243.742 559.990,246.575 560.373,249.400 560.715,252.215 561.015,255.022 561.274,257.818 561.492,260.604 561.670,263.378 561.808,266.141 561.905,268.892 561.963,271.629 561.982,274.354 561.961,277.065 561.902,279.761 561.803,282.443" stroke="#1a1a2e" stroke-width="3.5" fill="none" stroke-linecap="round"/>
<polyline points="253.054,197.746 251.937,200.634 250.866,203.523 249.838,206.412 248.854,209.301 247.914,212.190 247.018,215.077 246.166,217.962 245.357,220.845 244.592,223.724 243.870,226.600 243.190,229.471 242.554,232.337 241.961,235.198 241.410,238.053 240.901,240.901 240.434,243.742 240.010,246.575 239.627,249.400 239.285,252.215 238.985,255.022 238.726,257.818 238.508,260.604 238.330,263.378 238.192,266.141 238.095,268.892 238.037,271.629 238.018,274.354 238.039,277.065 238.098,279.761 238.197,282.443" stroke="#1a1a2e" stroke-width="3.5" fill="none" stroke-linecap="round"/>
<polyline points="561.803,282.443 561.667,285.109 561.493,287.760 561.281,290.394 561.031,293.011 560.745,295.611 560.422,298.193 560.063,300.757 559.668,303.302 559.237,305.827 558.771,308.333 558.271,310.819 557.735,313.284 557.166,315.728 556.563,318.151 555.926,320.552 555.257,322.930 554.555,325.285 553.821,327.618 553.055,329.926 552.258,332.211 551.430,334.471 550.571,336.706 549.682,338.916 548.764,341.100 547.817,343.258 546.841,345.390 545.837,347.496 544.804,349.574 543.745,351.625 542.658,353.647" stroke="#1a1a2e" stroke-width="3.5" fill="none" stroke-linecap="round"/>
<polyline points="238.197,282.443 238.333,285.109 238.507,287.760 238.719,290.394 238.969,293.011 239.255,295.611 239.578,298.193 239.937,300.757 240.332,303.302 240.763,305.827 241.229,308.333 241.729,310.819 242.265,313.284 242.834,315.728 243.437,318.151 244.074,320.552 244.743,322.930 245.445,325.285 246.179,327.618 246.945,329.926 247.742,332.211 248.570,334.471 249.429,336.706 250.318,338.916 251.236,341.100 252.183,343.258 253.159,345.390 254.163,347.496 255.196,349.574 256.255,351.625 257.342,353.647" stroke="#1a1a2e" stroke-width="3.5" fill="none" stroke-linecap="round"/>
<polyline points="542.658,353.647 541.546,355.642 540.407,357.609 539.243,359.546 538.053,361.455 536.839,363.334 535.602,365.183 534.340,367.003 533.056,368.792 531.749,370.551 530.420,372.278 529.069,373.975 527.697,375.640 526.305,377.274 524.893,378.876 523.461,380.446 522.010,381.983 520.541,383.488 519.054,384.960 517.549,386.399 516.028,387.805 514.490,389.178 512.936,390.517 511.367,391.822 509.783,393.093 508.185,394.330 506.573,395.533 504.948,396.702 503.311,397.836 501.661,398.935 500.000,400.000" stroke="#1a1a2e" stroke-width="3.5" fill="none" stroke-linecap="round"/>
<polyline points="257.342,353.647 258.454,355.642 259.593,357.609 260.757,359.546 261.947,361.455 263.161,363.334 264.398,365.183 265.660,367.003 266.944,368.792 268.251,370.551 269.580,372.278 270.931,373.975 272.303,375.640 273.695,377.274 275.107,378.876 276.539,380.446 277.990,381.983 279.459,383.488 280.946,384.960 282.451,386.399 283.972,387.805 285.510,389.178 287.064,390.517 288.633,391.822 290.217,393.093 291.815,394.330 293.427,395.533 295.052,396.702 296.689,397.836 298.339,398.935 300.000,400.000" stroke="#1a1a2e" stroke-width="3.5" fill="none" stroke-linecap="round"/>
<polyline points="605.725,116.844 607.685,120.352 609.594,123.870 611.453,127.397 613.261,130.932 615.018,134.475 616.724,138.025 618.380,141.582 619.985,145.145 621.539,148.713 623.044,152.285 624.497,155.861 625.901,159.440 627.254,163.022 628.557,166.606 629.810,170.190 631.013,173.776 632.166,177.361 633.270,180.945 634.324,184.528 635.329,188.109 636.285,191.687 637.192,195.262 638.050,198.832 638.859,202.399 639.620,205.960 640.333,209.515 640.997,213.063 641.614,216.605 642.183,220.139 642.705,223.664" stroke="#1a1a2e" stroke-width="3.5" fill="none" stroke-linecap="round"/>
<polyline points="605.725,116.844 601.783,116.064 597.847,115.335 593.919,114.657 589.998,114.030 586.085,113.454 582.181,112.929 578.287,112.453 574.402,112.027 570.529,111.651 566.667,111.325 562.816,111.047 558.979,110.819 555.154,110.639 551.343,110.507 547.547,110.423 543.765,110.387 539.999,110.397 536.249,110.455 532.516,110.560 528.800,110.711 525.102,110.907 521.422,111.150 517.760,111.437 514.119,111.769 510.497,112.146 506.895,112.567 503.315,113.031 499.756,113.539 496.219,114.090 492.705,114.683" stroke="#1a1a2e" stroke-width="3.5" fill="none" stroke-linecap="round"/>
<polyline points="642.705,223.664 643.180,227.181 643.608,230.688 643.989,234.185 644.324,237.672 644.612,241.147 644.855,244.610 645.052,248.061 645.204,251.499 645.311,254.923 645.374,258.333 645.392,261.729 645.366,265.109 645.296,268.473 645.183,271.821 645.027,275.153 644.828,278.466 644.587,281.762 644.303,285.040 643.978,288.298 643.612,291.537 643.205,294.756 642.757,297.954 642.269,301.132 641.742,304.288 641.175,307.422 640.569,310.533 639.925,313.622 639.242,316.687 638.522,319.729 637.764,322.746" stroke="#1a1a2e" stroke-width="3.5" fill="none" stroke-linecap="round"/>
<polyline points="492.705,114.683 489.214,115.318 485.746,115.995 482.302,116.713 478.883,117.472 475.489,118.272 472.120,119.111 468.777,119.990 465.461,120.907 462.171,121.864 458.908,122.858 455.673,123.890 452.467,124.960 449.289,126.066 446.139,127.208 443.019,128.386 439.929,129.599 436.869,130.847 433.840,132.129 430.841,133.445 427.874,134.794 424.939,136.176 422.035,137.590 419.164,139.036 416.326,140.513 413.520,142.021 410.748,143.558 408.010,145.126 405.305,146.722 402.635,148.347 400.000,150.000" stroke="#1a1a2e" stroke-width="3.5" fill="none" stroke-linecap="round"/>
<polyline points="637.764,322.746 636.970,325.738 636.139,328.705 635.272,331.647 634.370,334.563 633.432,337.452 632.460,340.314 631.454,343.150 630.414,345.957 629.340,348.736 628.234,351.487 627.096,354.209 625.926,356.902 624.725,359.566 623.492,362.199 622.230,364.802 620.937,367.375 619.616,369.916 618.265,372.427 616.886,374.905 615.480,377.352 614.046,379.767 612.585,382.149 611.098,384.498 609.586,386.814 608.048,389.097 606.485,391.346 604.899,393.561 603.289,395.742 601.656,397.888 600.000,400.000" stroke="#1a1a2e" stroke-width="3.5" fill="none" stroke-linecap="round"/>
<polyline points="400.000,150.000 397.400,151.680 394.834,153.387 392.304,155.121 389.810,156.880 387.352,158.665 384.930,160.474 382.545,162.307 380.196,164.163 377.885,166.043 375.610,167.945 373.373,169.869 371.173,171.814 369.012,173.779 366.888,175.765 364.802,177.770 362.755,179.794 360.746,181.837 358.776,183.897 356.845,185.974 354.952,188.068 353.099,190.178 351.285,192.303 349.510,194.443 347.775,196.598 346.079,198.765 344.423,200.946 342.807,203.140 341.230,205.345 339.693,207.562 338.197,209.789" stroke="#1a1a2e" stroke-width="3.5" fill="none" stroke-linecap="round"/>
<polyline points="600.000,400.000 598.322,402.077 596.624,404.119 594.904,406.125 593.164,408.096 591.404,410.031 589.625,411.930 587.828,413.793 586.012,415.620 584.179,417.410 582.329,419.164 580.463,420.880 578.581,422.560 576.683,424.203 574.771,425.808 572.845,427.376 570.906,428.907 568.954,430.400 566.989,431.855 565.012,433.272 563.025,434.652 561.026,435.994 559.018,437.297 557.000,438.563 554.973,439.790 552.938,440.980 550.895,442.131 548.846,443.244 546.789,444.318 544.726,445.355 542.658,446.353" stroke="#1a1a2e" stroke-width="3.5" fill="none" stroke-linecap="round"/>
<polyline points="338.197,209.789 336.740,212.026 335.323,214.273 333.946,216.528 332.609,218.792 331.313,221.064 330.056,223.342 328.840,225.628 327.664,227.919 326.528,230.215 325.432,232.517 324.376,234.822 323.360,237.131 322.384,239.443 321.448,241.758 320.552,244.074 319.695,246.391 318.879,248.710 318.102,251.028 317.365,253.346 316.667,255.662 316.008,257.978 315.389,260.291 314.809,262.601 314.268,264.908 313.765,267.210 313.302,269.509 312.877,271.803 312.491,274.090 312.142,276.372 311.832,278.647" stroke="#1a1a2e" stroke-width="3.5" fill="none" stroke-linecap="round"/>
<polyline points="542.658,446.353 540.586,447.312 538.509,448.234 536.428,449.117 534.344,449.962 532.257,450.769 530.169,451.537 528.079,452.268 525.988,452.960 523.897,453.615 521.806,454.232 519.716,454.810 517.628,455.351 515.541,455.855 513.457,456.320 511.376,456.749 509.298,457.140 507.225,457.494 505.157,457.810 503.094,458.090 501.036,458.333 498.985,458.540 496.941,458.710 494.905,458.843 492.876,458.941 490.856,459.003 488.845,459.028 486.843,459.019 484.852,458.974 482.871,458.894 480.902,458.779" stroke="#1a1a2e" stroke-width="3.5" fill="none" stroke-linecap="round"/>
<polyline points="311.832,278.647 311.560,280.915 311.325,283.176 311.128,285.428 310.969,287.671 310.846,289.904 310.761,292.128 310.712,294.342 310.699,296.544 310.723,298.735 310.783,300.914 310.878,303.081 311.009,305.234 311.175,307.374 311.376,309.500 311.612,311.612 311.882,313.708 312.186,315.789 312.524,317.854 312.895,319.903 313.300,321.935 313.737,323.949 314.207,325.946 314.709,327.924 315.244,329.883 315.809,331.824 316.406,333.744 317.034,335.645 317.692,337.525 318.380,339.384 319.098,341.221" stroke="#1a1a2e" stroke-width="3.5" fill="none" stroke-linecap="round"/>
<polyline points="732.870,291.844 732.394,295.834 731.871,299.802 731.301,303.748 730.686,307.671 730.025,311.570 729.318,315.445 728.567,319.296 727.772,323.122 726.932,326.922 726.049,330.696 725.123,334.444 724.155,338.164 723.144,341.857 722.092,345.522 720.999,349.159 719.865,352.766 718.691,356.345 717.477,359.893 716.224,363.412 714.932,366.899 713.602,370.356 712.234,373.781 710.830,377.174 709.388,380.535 707.911,383.863 706.398,387.158 704.850,390.420 703.267,393.647 701.650,396.841 700.000,400.000" stroke="#1a1a2e" stroke-width="3.5" fill="none" stroke-linecap="round"/>
<polyline points="732.870,291.844 730.139,288.896 727.384,285.993 724.604,283.135 721.800,280.324 718.973,277.558 716.124,274.838 713.253,272.164 710.361,269.536 707.448,266.955 704.515,264.421 701.563,261.934 698.593,259.493 695.605,257.099 692.599,254.753 689.577,252.453 686.539,250.201 683.486,247.996 680.418,245.839 677.336,243.729 674.241,241.667 671.134,239.652 668.014,237.685 664.883,235.765 661.742,233.894 658.590,232.070 655.429,230.293 652.260,228.565 649.082,226.884 645.897,225.250 642.705,223.664" stroke="#1a1a2e" stroke-width="3.5" fill="none" stroke-linecap="round"/>
<polyline points="700.000,400.000 698.317,403.124 696.602,406.213 694.854,409.266 693.076,412.284 691.267,415.265 689.428,418.209 687.559,421.117 685.661,423.988 683.735,426.821 681.781,429.616 679.800,432.374 677.792,435.093 675.758,437.774 673.699,440.416 671.614,443.019 669.506,445.583 667.373,448.108 665.218,450.593 663.039,453.038 660.839,455.443 658.618,457.808 656.376,460.132 654.113,462.416 651.832,464.659 649.531,466.862 647.212,469.023 644.875,471.143 642.521,473.221 640.150,475.259 637.764,477.254" stroke="#1a1a2e" stroke-width="3.5" fill="none" stroke-linecap="round"/>
<polyline points="642.705,223.664 639.507,222.126 636.304,220.636 633.096,219.192 629.883,217.797 626.668,216.448 623.449,215.147 620.228,213.893 617.005,212.686 613.782,211.526 610.558,210.413 607.334,209.347 604.111,208.327 600.890,207.353 597.671,206.426 594.454,205.546 591.241,204.711 588.032,203.922 584.828,203.178 581.628,202.481 578.435,201.828 575.248,201.221 572.067,200.658 568.895,200.140 565.730,199.667 562.574,199.237 559.428,198.852 556.291,198.510 553.165,198.212 550.050,197.958 546.946,197.746" stroke="#1a1a2e" stroke-width="3.5" fill="none" stroke-linecap="round"/>
<polyline points="637.764,477.254 635.362,479.208 632.946,481.120 630.516,482.991 628.072,484.819 625.615,486.606 623.146,488.350 620.666,490.052 618.174,491.712 615.672,493.330 613.161,494.905 610.640,496.438 608.110,497.929 605.573,499.378 603.028,500.784 600.476,502.148 597.919,503.469 595.356,504.749 592.787,505.986 590.215,507.181 587.639,508.333 585.060,509.444 582.478,510.512 579.894,511.539 577.309,512.524 574.723,513.466 572.137,514.368 569.552,515.227 566.967,516.045 564.384,516.822 561.803,517.557" stroke="#1a1a2e" stroke-width="3.5" fill="none" stroke-linecap="round"/>
<polyline points="546.946,197.746 543.855,197.577 540.776,197.450 537.710,197.365 534.659,197.322 531.621,197.321 528.598,197.361 525.591,197.442 522.600,197.564 519.625,197.726 516.667,197.927 513.726,198.169 510.803,198.449 507.899,198.769 505.014,199.127 502.148,199.524 499.302,199.958 496.476,200.429 493.671,200.938 490.888,201.483 488.126,202.065 485.387,202.683 482.670,203.336 479.976,204.024 477.306,204.747 474.660,205.504 472.038,206.295 469.441,207.119 466.870,207.977 464.323,208.867 461.803,209.789" stroke="#1a1a2e" stroke-width="3.5" fill="none" stroke-linecap="round"/>
<polyline points="561.803,517.557 559.225,518.251 556.651,518.904 554.080,519.517 551.514,520.089 548.953,520.620 546.398,521.111 543.848,521.561 541.306,521.972 538.771,522.343 536.243,522.674 533.724,522.966 531.214,523.218 528.714,523.432 526.224,523.607 523.744,523.744 521.275,523.842 518.818,523.902 516.373,523.925 513.941,523.910 511.522,523.857 509.116,523.768 506.725,523.643 504.349,523.480 501.988,523.282 499.642,523.048 497.313,522.779 495.001,522.474 492.705,522.135 490.427,521.761 488.168,521.353" stroke="#1a1a2e" stroke-width="3.5" fill="none" stroke-linecap="round"/>
<polyline points="461.803,209.789 459.310,210.742 456.843,211.727 454.403,212.743 451.991,213.789 449.607,214.864 447.251,215.969 444.924,217.103 442.625,218.265 440.356,219.455 438.117,220.673 435.908,221.917 433.729,223.188 431.580,224.485 429.462,225.807 427.376,227.155 425.321,228.526 423.298,229.922 421.307,231.341 419.348,232.782 417.421,234.246 415.528,235.732 413.667,237.239 411.840,238.767 410.046,240.316 408.287,241.884 406.561,243.471 404.869,245.076 403.211,246.700 401.588,248.342 400.000,250.000" stroke="#1a1a2e" stroke-width="3.5" fill="none" stroke-linecap="round"/>
<polyline points="488.168,521.353 485.927,520.911 483.705,520.435 481.502,519.927 479.319,519.385 477.157,518.812 475.016,518.206 472.896,517.568 470.797,516.900 468.721,516.200 466.667,515.470 464.636,514.710 462.628,513.920 460.644,513.101 458.684,512.252 456.749,511.376 454.838,510.471 452.953,509.539 451.094,508.579 449.260,507.593 447.453,506.580 445.672,505.542 443.918,504.478 442.192,503.389 440.494,502.275 438.823,501.138 437.181,499.977 435.567,498.792 433.983,497.586 432.428,496.356 430.902,495.106" stroke="#1a1a2e" stroke-width="3.5" fill="none" stroke-linecap="round"/>
<polyline points="400.000,250.000 398.447,251.675 396.928,253.365 395.445,255.072 393.998,256.792 392.586,258.527 391.209,260.276 389.869,262.038 388.564,263.813 387.295,265.599 386.063,267.397 384.867,269.206 383.707,271.025 382.583,272.854 381.496,274.692 380.446,276.539 379.432,278.394 378.455,280.256 377.514,282.126 376.611,284.001 375.744,285.883 374.914,287.770 374.120,289.661 373.364,291.557 372.644,293.456 371.961,295.358 371.315,297.263 370.706,299.169 370.133,301.077 369.598,302.986 369.098,304.894" stroke="#1a1a2e" stroke-width="3.5" fill="none" stroke-linecap="round"/>
<polyline points="732.870,508.156 730.139,511.104 727.384,514.007 724.604,516.865 721.800,519.676 718.973,522.442 716.124,525.162 713.253,527.836 710.361,530.464 707.448,533.045 704.515,535.579 701.563,538.066 698.593,540.507 695.605,542.901 692.599,545.247 689.577,547.547 686.539,549.799 683.486,552.004 680.418,554.161 677.336,556.271 674.241,558.333 671.134,560.348 668.014,562.315 664.883,564.235 661.742,566.106 658.590,567.930 655.429,569.707 652.260,571.435 649.082,573.116 645.897,574.750 642.705,576.336" stroke="#1a1a2e" stroke-width="3.5" fill="none" stroke-linecap="round"/>
<polyline points="732.870,508.156 732.394,504.166 731.871,500.198 731.301,496.252 730.686,492.329 730.025,488.430 729.318,484.555 728.567,480.704 727.772,476.878 726.932,473.078 726.049,469.304 725.123,465.556 724.155,461.836 723.144,458.143 722.092,454.478 720.999,450.841 719.865,447.234 718.691,443.655 717.477,440.107 716.224,436.588 714.932,433.101 713.602,429.644 712.234,426.219 710.830,422.826 709.388,419.465 707.911,416.137 706.398,412.842 704.850,409.580 703.267,406.353 701.650,403.159 700.000,400.000" stroke="#1a1a2e" stroke-width="3.5" fill="none" stroke-linecap="round"/>
<polyline points="642.705,576.336 639.507,577.874 636.304,579.364 633.096,580.808 629.883,582.203 626.668,583.552 623.449,584.853 620.228,586.107 617.005,587.314 613.782,588.474 610.558,589.587 607.334,590.653 604.111,591.673 600.890,592.647 597.671,593.574 594.454,594.454 591.241,595.289 588.032,596.078 584.828,596.822 581.628,597.519 578.435,598.172 575.248,598.779 572.067,599.342 568.895,599.860 565.730,600.333 562.574,600.763 559.428,601.148 556.291,601.490 553.165,601.788 550.050,602.042 546.946,602.254" stroke="#1a1a2e" stroke-width="3.5" fill="none" stroke-linecap="round"/>
<polyline points="700.000,400.000 698.317,396.876 696.602,393.787 694.854,390.734 693.076,387.716 691.267,384.735 689.428,381.791 687.559,378.883 685.661,376.012 683.735,373.179 681.781,370.384 679.800,367.626 677.792,364.907 675.758,362.226 673.699,359.584 671.614,356.981 669.506,354.417 667.373,351.892 665.218,349.407 663.039,346.962 660.839,344.557 658.618,342.192 656.376,339.868 654.113,337.584 651.832,335.341 649.531,333.138 647.212,330.977 644.875,328.857 642.521,326.779 640.150,324.741 637.764,322.746" stroke="#1a1a2e" stroke-width="3.5" fill="none" stroke-linecap="round"/>
<polyline points="546.946,602.254 543.855,602.423 540.776,602.550 537.710,602.635 534.659,602.678 531.621,602.679 528.598,602.639 525.591,602.558 522.600,602.436 519.625,602.274 516.667,602.073 513.726,601.831 510.803,601.551 507.899,601.231 505.014,600.873 502.148,600.476 499.302,600.042 496.476,599.571 493.671,599.062 490.888,598.517 488.126,597.935 485.387,597.317 482.670,596.664 479.976,595.976 477.306,595.253 474.660,594.496 472.038,593.705 469.441,592.881 466.870,592.023 464.323,591.133 461.803,590.211" stroke="#1a1a2e" stroke-width="3.5" fill="none" stroke-linecap="round"/>
<polyline points="637.764,322.746 635.362,320.792 632.946,318.880 630.516,317.009 628.072,315.181 625.615,313.394 623.146,311.650 620.666,309.948 618.174,308.288 615.672,306.670 613.161,305.095 610.640,303.562 608.110,302.071 605.573,300.622 603.028,299.216 600.476,297.852 597.919,296.531 595.356,295.251 592.787,294.014 590.215,292.819 587.639,291.667 585.060,290.556 582.478,289.488 579.894,288.461 577.309,287.476 574.723,286.534 572.137,285.632 569.552,284.773 566.967,283.955 564.384,283.178 561.803,282.443" stroke="#1a1a2e" stroke-width="3.5" fill="none" stroke-linecap="round"/>
<polyline points="461.803,590.211 459.310,589.258 456.843,588.273 454.403,587.257 451.991,586.211 449.607,585.136 447.251,584.031 444.924,582.897 442.625,581.735 440.356,580.545 438.117,579.327 435.908,578.083 433.729,576.812 431.580,575.515 429.462,574.193 427.376,572.845 425.321,571.474 423.298,570.078 421.307,568.659 419.348,567.218 417.421,565.754 415.528,564.268 413.667,562.761 411.840,561.233 410.046,559.684 408.287,558.116 406.561,556.529 404.869,554.924 403.211,553.300 401.588,551.658 400.000,550.000" stroke="#1a1a2e" stroke-width="3.5" fill="none" stroke-linecap="round"/>
<polyline points="561.803,282.443 559.225,281.749 556.651,281.096 554.080,280.483 551.514,279.911 548.953,279.380 546.398,278.889 543.848,278.439 541.306,278.028 538.771,277.657 536.243,277.326 533.724,277.034 531.214,276.782 528.714,276.568 526.224,276.393 523.744,276.256 521.275,276.158 518.818,276.098 516.373,276.075 513.941,276.090 511.522,276.143 509.116,276.232 506.725,276.357 504.349,276.520 501.988,276.718 499.642,276.952 497.313,277.221 495.001,277.526 492.705,277.865 490.427,278.239 488.168,278.647" stroke="#1a1a2e" stroke-width="3.5" fill="none" stroke-linecap="round"/>
<polyline points="400.000,550.000 398.447,548.325 396.928,546.635 395.445,544.928 393.998,543.208 392.586,541.473 391.209,539.724 389.869,537.962 388.564,536.187 387.295,534.401 386.063,532.603 384.867,530.794 383.707,528.975 382.583,527.146 381.496,525.308 380.446,523.461 379.432,521.606 378.455,519.744 377.514,517.874 376.611,515.999 375.744,514.117 374.914,512.230 374.120,510.339 373.364,508.443 372.644,506.544 371.961,504.642 371.315,502.737 370.706,500.831 370.133,498.923 369.598,497.014 369.098,495.106" stroke="#1a1a2e" stroke-width="3.5" fill="none" stroke-linecap="round"/>
<polyline points="488.168,278.647 485.927,279.089 483.705,279.565 481.502,280.073 479.319,280.615 477.157,281.188 475.016,281.794 472.896,282.432 470.797,283.100 468.721,283.800 466.667,284.530 464.636,285.290 462.628,286.080 460.644,286.899 458.684,287.748 456.749,288.624 454.838,289.529 452.953,290.461 451.094,291.421 449.260,292.407 447.453,293.420 445.672,294.458 443.918,295.522 442.192,296.611 440.494,297.725 438.823,298.862 437.181,300.023 435.567,301.208 433.983,302.414 432.428,303.644 430.902,304.894" stroke="#1a1a2e" stroke-width="3.5" fill="none" stroke-linecap="round"/>
<polyline points="605.725,683.156 601.783,683.936 597.847,684.665 593.919,685.343 589.998,685.970 586.085,686.546 582.181,687.071 578.287,687.547 574.402,687.973 570.529,688.349 566.667,688.675 562.816,688.953 558.979,689.181 555.154,689.361 551.343,689.493 547.547,689.577 543.765,689.613 539.999,689.603 536.249,689.545 532.516,689.440 528.800,689.289 525.102,689.093 521.422,688.850 517.760,688.563 514.119,688.231 510.497,687.854 506.895,687.433 503.315,686.969 499.756,686.461 496.219,685.910 492.705,685.317" stroke="#1a1a2e" stroke-width="3.5" fill="none" stroke-linecap="round"/>
<polyline points="605.725,683.156 607.685,679.648 609.594,676.130 611.453,672.603 613.261,669.068 615.018,665.525 616.724,661.975 618.380,658.418 619.985,654.855 621.539,651.287 623.044,647.715 624.497,644.139 625.901,640.560 627.254,636.978 628.557,633.394 629.810,629.810 631.013,626.224 632.166,622.639 633.270,619.055 634.324,615.472 635.329,611.891 636.285,608.313 637.192,604.738 638.050,601.168 638.859,597.601 639.620,594.040 640.333,590.485 640.997,586.937 641.614,583.395 642.183,579.861 642.705,576.336" stroke="#1a1a2e" stroke-width="3.5" fill="none" stroke-linecap="round"/>
<polyline points="492.705,685.317 489.214,684.682 485.746,684.005 482.302,683.287 478.883,682.528 475.489,681.728 472.120,680.889 468.777,680.010 465.461,679.093 462.171,678.136 458.908,677.142 455.673,676.110 452.467,675.040 449.289,673.934 446.139,672.792 443.019,671.614 439.929,670.401 436.869,669.153 433.840,667.871 430.841,666.555 427.874,665.206 424.939,663.824 422.035,662.410 419.164,660.964 416.326,659.487 413.520,657.979 410.748,656.442 408.010,654.874 405.305,653.278 402.635,651.653 400.000,650.000" stroke="#1a1a2e" stroke-width="3.5" fill="none" stroke-linecap="round"/>
<polyline points="642.705,576.336 643.180,572.819 643.608,569.312 643.989,565.815 644.324,562.328 644.612,558.853 644.855,555.390 645.052,551.939 645.204,548.501 645.311,545.077 645.374,541.667 645.392,538.271 645.366,534.891 645.296,531.527 645.183,528.179 645.027,524.847 644.828,521.534 644.587,518.238 644.303,514.960 643.978,511.702 643.612,508.463 643.205,505.244 642.757,502.046 642.269,498.868 641.742,495.712 641.175,492.578 640.569,489.467 639.925,486.378 639.242,483.313 638.522,480.271 637.764,477.254" stroke="#1a1a2e" stroke-width="3.5" fill="none" stroke-linecap="round"/>
<polyline points="400.000,650.000 397.400,648.320 394.834,646.613 392.304,644.879 389.810,643.120 387.352,641.335 384.930,639.526 382.545,637.693 380.196,635.837 377.885,633.957 375.610,632.055 373.373,630.131 371.173,628.186 369.012,626.221 366.888,624.235 364.802,622.230 362.755,620.206 360.746,618.163 358.776,616.103 356.845,614.026 354.952,611.932 353.099,609.822 351.285,607.697 349.510,605.557 347.775,603.402 346.079,601.235 344.423,599.054 342.807,596.860 341.230,594.655 339.693,592.438 338.197,590.211" stroke="#1a1a2e" stroke-width="3.5" fill="none" stroke-linecap="round"/>
<polyline points="637.764,477.254 636.970,474.262 636.139,471.295 635.272,468.353 634.370,465.437 633.432,462.548 632.460,459.686 631.454,456.850 630.414,454.043 629.340,451.264 628.234,448.513 627.096,445.791 625.926,443.098 624.725,440.434 623.492,437.801 622.230,435.198 620.937,432.625 619.616,430.084 618.265,427.573 616.886,425.095 615.480,422.648 614.046,420.233 612.585,417.851 611.098,415.502 609.586,413.186 608.048,410.903 606.485,408.654 604.899,406.439 603.289,404.258 601.656,402.112 600.000,400.000" stroke="#1a1a2e" stroke-width="3.5" fill="none" stroke-linecap="round"/>
<polyline points="338.197,590.211 336.740,587.974 335.323,585.727 333.946,583.472 332.609,581.208 331.313,578.936 330.056,576.658 328.840,574.372 327.664,572.081 326.528,569.785 325.432,567.483 324.376,565.178 323.360,562.869 322.384,560.557 321.448,558.242 320.552,555.926 319.695,553.609 318.879,551.290 318.102,548.972 317.365,546.654 316.667,544.338 316.008,542.022 315.389,539.709 314.809,537.399 314.268,535.092 313.765,532.790 313.302,530.491 312.877,528.197 312.491,525.910 312.142,523.628 311.832,521.353" stroke="#1a1a2e" stroke-width="3.5" fill="none" stroke-linecap="round"/>
<polyline points="600.000,400.000 598.322,397.923 596.624,395.881 594.904,393.875 593.164,391.904 591.404,389.969 589.625,388.070 587.828,386.207 586.012,384.380 584.179,382.590 582.329,380.836 580.463,379.120 578.581,377.440 576.683,375.797 574.771,374.192 572.845,372.624 570.906,371.093 568.954,369.600 566.989,368.145 565.012,366.728 563.025,365.348 561.026,364.006 559.018,362.703 557.000,361.437 554.973,360.210 552.938,359.020 550.895,357.869 548.846,356.756 546.789,355.682 544.726,354.645 542.658,353.647" stroke="#1a1a2e" stroke-width="3.5" fill="none" stroke-linecap="round"/>
<polyline points="311.832,521.353 311.560,519.085 311.325,516.824 311.128,514.572 310.969,512.329 310.846,510.096 310.761,507.872 310.712,505.658 310.699,503.456 310.723,501.265 310.783,499.086 310.878,496.919 311.009,494.766 311.175,492.626 311.376,490.500 311.612,488.388 311.882,486.292 312.186,484.211 312.524,482.146 312.895,480.097 313.300,478.065 313.737,476.051 314.207,474.054 314.709,472.076 315.244,470.117 315.809,468.176 316.406,466.256 317.034,464.355 317.692,462.475 318.380,460.616 319.098,458.779" stroke="#1a1a2e" stroke-width="3.5" fill="none" stroke-linecap="round"/>
<polyline points="542.658,353.647 540.586,352.688 538.509,351.766 536.428,350.883 534.344,350.038 532.257,349.231 530.169,348.463 528.079,347.732 525.988,347.040 523.897,346.385 521.806,345.768 519.716,345.190 517.628,344.649 515.541,344.145 513.457,343.680 511.376,343.251 509.298,342.860 507.225,342.506 505.157,342.190 503.094,341.910 501.036,341.667 498.985,341.460 496.941,341.290 494.905,341.157 492.876,341.059 490.856,340.997 488.845,340.972 486.843,340.981 484.852,341.026 482.871,341.106 480.902,341.221" stroke="#1a1a2e" stroke-width="3.5" fill="none" stroke-linecap="round"/>
<polyline points="400.000,750.000 396.352,748.314 392.740,746.591 389.163,744.830 385.623,743.032 382.119,741.198 378.651,739.329 375.221,737.425 371.828,735.486 368.474,733.513 365.157,731.507 361.879,729.469 358.640,727.398 355.440,725.296 352.280,723.162 349.159,720.999 346.078,718.805 343.038,716.583 340.038,714.332 337.079,712.053 334.161,709.747 331.285,707.414 328.450,705.055 325.657,702.670 322.906,700.261 320.197,697.827 317.531,695.370 314.908,692.890 312.327,690.387 309.789,687.862 307.295,685.317" stroke="#1a1a2e" stroke-width="3.5" fill="none" stroke-linecap="round"/>
<polyline points="400.000,750.000 403.648,748.314 407.260,746.591 410.837,744.830 414.377,743.032 417.881,741.198 421.349,739.329 424.779,737.425 428.172,735.486 431.526,733.513 434.843,731.507 438.121,729.469 441.360,727.398 444.560,725.296 447.720,723.162 450.841,720.999 453.922,718.805 456.962,716.583 459.962,714.332 462.921,712.053 465.839,709.747 468.715,707.414 471.550,705.055 474.343,702.670 477.094,700.261 479.803,697.827 482.469,695.370 485.092,692.890 487.673,690.387 490.211,687.862 492.705,685.317" stroke="#1a1a2e" stroke-width="3.5" fill="none" stroke-linecap="round"/>
<polyline points="307.295,685.317 304.844,682.751 302.436,680.165 300.072,677.560 297.752,674.936 295.476,672.294 293.244,669.635 291.056,666.959 288.912,664.267 286.813,661.560 284.758,658.838 282.748,656.102 280.782,653.352 278.861,650.589 276.984,647.814 275.153,645.027 273.366,642.229 271.624,639.421 269.927,636.603 268.274,633.776 266.667,630.940 265.104,628.097 263.586,625.246 262.113,622.389 260.685,619.525 259.302,616.657 257.963,613.783 256.669,610.906 255.419,608.024 254.214,605.140 253.054,602.254" stroke="#1a1a2e" stroke-width="3.5" fill="none" stroke-linecap="round"/>
<polyline points="492.705,685.317 495.156,682.751 497.564,680.165 499.928,677.560 502.248,674.936 504.524,672.294 506.756,669.635 508.944,666.959 511.088,664.267 513.187,661.560 515.242,658.838 517.252,656.102 519.218,653.352 521.139,650.589 523.016,647.814 524.847,645.027 526.634,642.229 528.376,639.421 530.073,636.603 531.726,633.776 533.333,630.940 534.896,628.097 536.414,625.246 537.887,622.389 539.315,619.525 540.698,616.657 542.037,613.783 543.331,610.906 544.581,608.024 545.786,605.140 546.946,602.254" stroke="#1a1a2e" stroke-width="3.5" fill="none" stroke-linecap="round"/>
<polyline points="253.054,602.254 251.937,599.366 250.866,596.477 249.838,593.588 248.854,590.699 247.914,587.810 247.018,584.923 246.166,582.038 245.357,579.155 244.592,576.276 243.870,573.400 243.190,570.529 242.554,567.663 241.961,564.802 241.410,561.947 240.901,559.099 240.434,556.258 240.010,553.425 239.627,550.600 239.285,547.785 238.985,544.978 238.726,542.182 238.508,539.396 238.330,536.622 238.192,533.859 238.095,531.108 238.037,528.371 238.018,525.646 238.039,522.935 238.098,520.239 238.197,517.557" stroke="#1a1a2e" stroke-width="3.5" fill="none" stroke-linecap="round"/>
<polyline points="546.946,602.254 548.063,599.366 549.134,596.477 550.162,593.588 551.146,590.699 552.086,587.810 552.982,584.923 553.834,582.038 554.643,579.155 555.408,576.276 556.130,573.400 556.810,570.529 557.446,567.663 558.039,564.802 558.590,561.947 559.099,559.099 559.566,556.258 559.990,553.425 560.373,550.600 560.715,547.785 561.015,544.978 561.274,542.182 561.492,539.396 561.670,536.622 561.808,533.859 561.905,531.108 561.963,528.371 561.982,525.646 561.961,522.935 561.902,520.239 561.803,517.557" stroke="#1a1a2e" stroke-width="3.5" fill="none" stroke-linecap="round"/>
<polyline points="238.197,517.557 238.333,514.891 238.507,512.240 238.719,509.606 238.969,506.989 239.255,504.389 239.578,501.807 239.937,499.243 240.332,496.698 240.763,494.173 241.229,491.667 241.729,489.181 242.265,486.716 242.834,484.272 243.437,481.849 244.074,479.448 244.743,477.070 245.445,474.715 246.179,472.382 246.945,470.074 247.742,467.789 248.570,465.529 249.429,463.294 250.318,461.084 251.236,458.900 252.183,456.742 253.159,454.610 254.163,452.504 255.196,450.426 256.255,448.375 257.342,446.353" stroke="#1a1a2e" stroke-width="3.5" fill="none" stroke-linecap="round"/>
<polyline points="561.803,517.557 561.667,514.891 561.493,512.240 561.281,509.606 561.031,506.989 560.745,504.389 560.422,501.807 560.063,499.243 559.668,496.698 559.237,494.173 558.771,491.667 558.271,489.181 557.735,486.716 557.166,484.272 556.563,481.849 555.926,479.448 555.257,477.070 554.555,474.715 553.821,472.382 553.055,470.074 552.258,467.789 551.430,465.529 550.571,463.294 549.682,461.084 548.764,458.900 547.817,456.742 546.841,454.610 545.837,452.504 544.804,450.426 543.745,448.375 542.658,446.353" stroke="#1a1a2e" stroke-width="3.5" fill="none" stroke-linecap="round"/>
<polyline points="257.342,446.353 258.454,444.358 259.593,442.391 260.757,440.454 261.947,438.545 263.161,436.666 264.398,434.817 265.660,432.997 266.944,431.208 268.251,429.449 269.580,427.722 270.931,426.025 272.303,424.360 273.695,422.726 275.107,421.124 276.539,419.554 277.990,418.017 279.459,416.512 280.946,415.040 282.451,413.601 283.972,412.195 285.510,410.822 287.064,409.483 288.633,408.178 290.217,406.907 291.815,405.670 293.427,404.467 295.052,403.298 296.689,402.164 298.339,401.065 300.000,400.000" stroke="#1a1a2e" stroke-width="3.5" fill="none" stroke-linecap="round"/>
<polyline points="542.658,446.353 541.546,444.358 540.407,442.391 539.243,440.454 538.053,438.545 536.839,436.666 535.602,434.817 534.340,432.997 533.056,431.208 531.749,429.449 530.420,427.722 529.069,426.025 527.697,424.360 526.305,422.726 524.893,421.124 523.461,419.554 522.010,418.017 520.541,416.512 519.054,415.040 517.549,413.601 516.028,412.195 514.490,410.822 512.936,409.483 511.367,408.178 509.783,406.907 508.185,405.670 506.573,404.467 504.948,403.298 503.311,402.164 501.661,401.065 500.000,400.000" stroke="#1a1a2e" stroke-width="3.5" fill="none" stroke-linecap="round"/>
<polyline points="194.275,683.156 192.315,679.648 190.406,676.130 188.547,672.603 186.739,669.068 184.982,665.525 183.276,661.975 181.620,658.418 180.015,654.855 178.461,651.287 176.956,647.715 175.503,644.139 174.099,640.560 172.746,636.978 171.443,633.394 170.190,629.810 168.987,626.224 167.834,622.639 166.730,619.055 165.676,615.472 164.671,611.891 163.715,608.313 162.808,604.738 161.950,601.168 161.141,597.601 160.380,594.040 159.667,590.485 159.003,586.937 158.386,583.395 157.817,579.861 157.295,576.336" stroke="#1a1a2e" stroke-width="3.5" fill="none" stroke-linecap="round"/>
<polyline points="194.275,683.156 198.217,683.936 202.153,684.665 206.081,685.343 210.002,685.970 213.915,686.546 217.819,687.071 221.713,687.547 225.598,687.973 229.471,688.349 233.333,688.675 237.184,688.953 241.021,689.181 244.846,689.361 248.657,689.493 252.453,689.577 256.235,689.613 260.001,689.603 263.751,689.545 267.484,689.440 271.200,689.289 274.898,689.093 278.578,688.850 282.240,688.563 285.881,688.231 289.503,687.854 293.105,687.433 296.685,686.969 300.244,686.461 303.781,685.910 307.295,685.317" stroke="#1a1a2e" stroke-width="3.5" fill="none" stroke-linecap="round"/>
<polyline points="157.295,576.336 156.820,572.819 156.392,569.312 156.011,565.815 155.676,562.328 155.388,558.853 155.145,555.390 154.948,551.939 154.796,548.501 154.689,545.077 154.626,541.667 154.608,538.271 154.634,534.891 154.704,531.527 154.817,528.179 154.973,524.847 155.172,521.534 155.413,518.238 155.697,514.960 156.022,511.702 156.388,508.463 156.795,505.244 157.243,502.046 157.731,498.868 158.258,495.712 158.825,492.578 159.431,489.467 160.075,486.378 160.758,483.313 161.478,480.271 162.236,477.254" stroke="#1a1a2e" stroke-width="3.5" fill="none" stroke-linecap="round"/>
<polyline points="307.295,685.317 310.786,684.682 314.254,684.005 317.698,683.287 321.117,682.528 324.511,681.728 327.880,680.889 331.223,680.010 334.539,679.093 337.829,678.136 341.092,677.142 344.327,676.110 347.533,675.040 350.711,673.934 353.861,672.792 356.981,671.614 360.071,670.401 363.131,669.153 366.160,667.871 369.159,666.555 372.126,665.206 375.061,663.824 377.965,662.410 380.836,660.964 383.674,659.487 386.480,657.979 389.252,656.442 391.990,654.874 394.695,653.278 397.365,651.653 400.000,650.000" stroke="#1a1a2e" stroke-width="3.5" fill="none" stroke-linecap="round"/>
<polyline points="162.236,477.254 163.030,474.262 163.861,471.295 164.728,468.353 165.630,465.437 166.568,462.548 167.540,459.686 168.546,456.850 169.586,454.043 170.660,451.264 171.766,448.513 172.904,445.791 174.074,443.098 175.275,440.434 176.508,437.801 177.770,435.198 179.063,432.625 180.384,430.084 181.735,427.573 183.114,425.095 184.520,422.648 185.954,420.233 187.415,417.851 188.902,415.502 190.414,413.186 191.952,410.903 193.515,408.654 195.101,406.439 196.711,404.258 198.344,402.112 200.000,400.000" stroke="#1a1a2e" stroke-width="3.5" fill="none" stroke-linecap="round"/>
<polyline points="400.000,650.000 402.600,648.320 405.166,646.613 407.696,644.879 410.190,643.120 412.648,641.335 415.070,639.526 417.455,637.693 419.804,635.837 422.115,633.957 424.390,632.055 426.627,630.131 428.827,628.186 430.988,626.221 433.112,624.235 435.198,622.230 437.245,620.206 439.254,618.163 441.224,616.103 443.155,614.026 445.048,611.932 446.901,609.822 448.715,607.697 450.490,605.557 452.225,603.402 453.921,601.235 455.577,599.054 457.193,596.860 458.770,594.655 460.307,592.438 461.803,590.211" stroke="#1a1a2e" stroke-width="3.5" fill="none" stroke-linecap="round"/>
<polyline points="200.000,400.000 201.678,397.923 203.376,395.881 205.096,393.875 206.836,391.904 208.596,389.969 210.375,388.070 212.172,386.207 213.988,384.380 215.821,382.590 217.671,380.836 219.537,379.120 221.419,377.440 223.317,375.797 225.229,374.192 227.155,372.624 229.094,371.093 231.046,369.600 233.011,368.145 234.988,366.728 236.975,365.348 238.974,364.006 240.982,362.703 243.000,361.437 245.027,360.210 247.062,359.020 249.105,357.869 251.154,356.756 253.211,355.682 255.274,354.645 257.342,353.647" stroke="#1a1a2e" stroke-width="3.5" fill="none" stroke-linecap="round"/>
<polyline points="461.803,590.211 463.260,587.974 464.677,585.727 466.054,583.472 467.391,581.208 468.687,578.936 469.944,576.658 471.160,574.372 472.336,572.081 473.472,569.785 474.568,567.483 475.624,565.178 476.640,562.869 477.616,560.557 478.552,558.242 479.448,555.926 480.305,553.609 481.121,551.290 481.898,548.972 482.635,546.654 483.333,544.338 483.992,542.022 484.611,539.709 485.191,537.399 485.732,535.092 486.235,532.790 486.698,530.491 487.123,528.197 487.509,525.910 487.858,523.628 488.168,521.353" stroke="#1a1a2e" stroke-width="3.5" fill="none" stroke-linecap="round"/>
<polyline points="257.342,353.647 259.414,352.688 261.491,351.766 263.572,350.883 265.656,350.038 267.743,349.231 269.831,348.463 271.921,347.732 274.012,347.040 276.103,346.385 278.194,345.768 280.284,345.190 282.372,344.649 284.459,344.145 286.543,343.680 288.624,343.251 290.702,342.860 292.775,342.506 294.843,342.190 296.906,341.910 298.964,341.667 301.015,341.460 303.059,341.290 305.095,341.157 307.124,341.059 309.144,340.997 311.155,340.972 313.157,340.981 315.148,341.026 317.129,341.106 319.098,341.221" stroke="#1a1a2e" stroke-width="3.5" fill="none" stroke-linecap="round"/>
<polyline points="488.168,521.353 488.440,519.085 488.675,516.824 488.872,514.572 489.031,512.329 489.154,510.096 489.239,507.872 489.288,505.658 489.301,503.456 489.277,501.265 489.217,499.086 489.122,496.919 488.991,494.766 488.825,492.626 488.624,490.500 488.388,488.388 488.118,486.292 487.814,484.211 487.476,482.146 487.105,480.097 486.700,478.065 486.263,476.051 485.793,474.054 485.291,472.076 484.756,470.117 484.191,468.176 483.594,466.256 482.966,464.355 482.308,462.475 481.620,460.616 480.902,458.779" stroke="#1a1a2e" stroke-width="3.5" fill="none" stroke-linecap="round"/>
<polyline points="67.130,508.156 67.606,504.166 68.129,500.198 68.699,496.252 69.314,492.329 69.975,488.430 70.682,484.555 71.433,480.704 72.228,476.878 73.068,473.078 73.951,469.304 74.877,465.556 75.845,461.836 76.856,458.143 77.908,454.478 79.001,450.841 80.135,447.234 81.309,443.655 82.523,440.107 83.776,436.588 85.068,433.101 86.398,429.644 87.766,426.219 89.170,422.826 90.612,419.465 92.089,416.137 93.602,412.842 95.150,409.580 96.733,406.353 98.350,403.159 100.000,400.000" stroke="#1a1a2e" stroke-width="3.5" fill="none" stroke-linecap="round"/>
<polyline points="67.130,508.156 69.861,511.104 72.616,514.007 75.396,516.865 78.200,519.676 81.027,522.442 83.876,525.162 86.747,527.836 89.639,530.464 92.552,533.045 95.485,535.579 98.437,538.066 101.407,540.507 104.395,542.901 107.401,545.247 110.423,547.547 113.461,549.799 116.514,552.004 119.582,554.161 122.664,556.271 125.759,558.333 128.866,560.348 131.986,562.315 135.117,564.235 138.258,566.106 141.410,567.930 144.571,569.707 147.740,571.435 150.918,573.116 154.103,574.750 157.295,576.336" stroke="#1a1a2e" stroke-width="3.5" fill="none" stroke-linecap="round"/>
<polyline points="100.000,400.000 101.683,396.876 103.398,393.787 105.146,390.734 106.924,387.716 108.733,384.735 110.572,381.791 112.441,378.883 114.339,376.012 116.265,373.179 118.219,370.384 120.200,367.626 122.208,364.907 124.242,362.226 126.301,359.584 128.386,356.981 130.494,354.417 132.627,351.892 134.782,349.407 136.961,346.962 139.161,344.557 141.382,342.192 143.624,339.868 145.887,337.584 148.168,335.341 150.469,333.138 152.788,330.977 155.125,328.857 157.479,326.779 159.850,324.741 162.236,322.746" stroke="#1a1a2e" stroke-width="3.5" fill="none" stroke-linecap="round"/>
<polyline points="157.295,576.336 160.493,577.874 163.696,579.364 166.904,580.808 170.117,582.203 173.332,583.552 176.551,584.853 179.772,586.107 182.995,587.314 186.218,588.474 189.442,589.587 192.666,590.653 195.889,591.673 199.110,592.647 202.329,593.574 205.546,594.454 208.759,595.289 211.968,596.078 215.172,596.822 218.372,597.519 221.565,598.172 224.752,598.779 227.933,599.342 231.105,599.860 234.270,600.333 237.426,600.763 240.572,601.148 243.709,601.490 246.835,601.788 249.950,602.042 253.054,602.254" stroke="#1a1a2e" stroke-width="3.5" fill="none" stroke-linecap="round"/>
<polyline points="162.236,322.746 164.638,320.792 167.054,318.880 169.484,317.009 171.928,315.181 174.385,313.394 176.854,311.650 179.334,309.948 181.826,308.288 184.328,306.670 186.839,305.095 189.360,303.562 191.890,302.071 194.427,300.622 196.972,299.216 199.524,297.852 202.081,296.531 204.644,295.251 207.213,294.014 209.785,292.819 212.361,291.667 214.940,290.556 217.522,289.488 220.106,288.461 222.691,287.476 225.277,286.534 227.863,285.632 230.448,284.773 233.033,283.955 235.616,283.178 238.197,282.443" stroke="#1a1a2e" stroke-width="3.5" fill="none" stroke-linecap="round"/>
<polyline points="253.054,602.254 256.145,602.423 259.224,602.550 262.290,602.635 265.341,602.678 268.379,602.679 271.402,602.639 274.409,602.558 277.400,602.436 280.375,602.274 283.333,602.073 286.274,601.831 289.197,601.551 292.101,601.231 294.986,600.873 297.852,600.476 300.698,600.042 303.524,599.571 306.329,599.062 309.112,598.517 311.874,597.935 314.613,597.317 317.330,596.664 320.024,595.976 322.694,595.253 325.340,594.496 327.962,593.705 330.559,592.881 333.130,592.023 335.677,591.133 338.197,590.211" stroke="#1a1a2e" stroke-width="3.5" fill="none" stroke-linecap="round"/>
<polyline points="238.197,282.443 240.775,281.749 243.349,281.096 245.920,280.483 248.486,279.911 251.047,279.380 253.602,278.889 256.152,278.439 258.694,278.028 261.229,277.657 263.757,277.326 266.276,277.034 268.786,276.782 271.286,276.568 273.776,276.393 276.256,276.256 278.725,276.158 281.182,276.098 283.627,276.075 286.059,276.090 288.478,276.143 290.884,276.232 293.275,276.357 295.651,276.520 298.012,276.718 300.358,276.952 302.687,277.221 304.999,277.526 307.295,277.865 309.573,278.239 311.832,278.647" stroke="#1a1a2e" stroke-width="3.5" fill="none" stroke-linecap="round"/>
<polyline points="338.197,590.211 340.690,589.258 343.157,588.273 345.597,587.257 348.009,586.211 350.393,585.136 352.749,584.031 355.076,582.897 357.375,581.735 359.644,580.545 361.883,579.327 364.092,578.083 366.271,576.812 368.420,575.515 370.538,574.193 372.624,572.845 374.679,571.474 376.702,570.078 378.693,568.659 380.652,567.218 382.579,565.754 384.472,564.268 386.333,562.761 388.160,561.233 389.954,559.684 391.713,558.116 393.439,556.529 395.131,554.924 396.789,553.300 398.412,551.658 400.000,550.000" stroke="#1a1a2e" stroke-width="3.5" fill="none" stroke-linecap="round"/>
<polyline points="311.832,278.647 314.073,279.089 316.295,279.565 318.498,280.073 320.681,280.615 322.843,281.188 324.984,281.794 327.104,282.432 329.203,283.100 331.279,283.800 333.333,284.530 335.364,285.290 337.372,286.080 339.356,286.899 341.316,287.748 343.251,288.624 345.162,289.529 347.047,290.461 348.906,291.421 350.740,292.407 352.547,293.420 354.328,294.458 356.082,295.522 357.808,296.611 359.506,297.725 361.177,298.862 362.819,300.023 364.433,301.208 366.017,302.414 367.572,303.644 369.098,304.894" stroke="#1a1a2e" stroke-width="3.5" fill="none" stroke-linecap="round"/>
<polyline points="400.000,550.000 401.553,548.325 403.072,546.635 404.555,544.928 406.002,543.208 407.414,541.473 408.791,539.724 410.131,537.962 411.436,536.187 412.705,534.401 413.937,532.603 415.133,530.794 416.293,528.975 417.417,527.146 418.504,525.308 419.554,523.461 420.568,521.606 421.545,519.744 422.486,517.874 423.389,515.999 424.256,514.117 425.086,512.230 425.880,510.339 426.636,508.443 427.356,506.544 428.039,504.642 428.685,502.737 429.294,500.831 429.867,498.923 430.402,497.014 430.902,495.106" stroke="#1a1a2e" stroke-width="3.5" fill="none" stroke-linecap="round"/>
<polyline points="67.130,291.844 69.861,288.896 72.616,285.993 75.396,283.135 78.200,280.324 81.027,277.558 83.876,274.838 86.747,272.164 89.639,269.536 92.552,266.955 95.485,264.421 98.437,261.934 101.407,259.493 104.395,257.099 107.401,254.753 110.423,252.453 113.461,250.201 116.514,247.996 119.582,245.839 122.664,243.729 125.759,241.667 128.866,239.652 131.986,237.685 135.117,235.765 138.258,233.894 141.410,232.070 144.571,230.293 147.740,228.565 150.918,226.884 154.103,225.250 157.295,223.664" stroke="#1a1a2e" stroke-width="3.5" fill="none" stroke-linecap="round"/>
<polyline points="67.130,291.844 67.606,295.834 68.129,299.802 68.699,303.748 69.314,307.671 69.975,311.570 70.682,315.445 71.433,319.296 72.228,323.122 73.068,326.922 73.951,330.696 74.877,334.444 75.845,338.164 76.856,341.857 77.908,345.522 79.001,349.159 80.135,352.766 81.309,356.345 82.523,359.893 83.776,363.412 85.068,366.899 86.398,370.356 87.766,373.781 89.170,377.174 90.612,380.535 92.089,383.863 93.602,387.158 95.150,390.420 96.733,393.647 98.350,396.841 100.000,400.000" stroke="#1a1a2e" stroke-width="3.5" fill="none" stroke-linecap="round"/>
<polyline points="157.295,223.664 160.493,222.126 163.696,220.636 166.904,219.192 170.117,217.797 173.332,216.448 176.551,215.147 179.772,213.893 182.995,212.686 186.218,211.526 189.442,210.413 192.666,209.347 195.889,208.327 199.110,207.353 202.329,206.426 205.546,205.546 208.759,204.711 211.968,203.922 215.172,203.178 218.372,202.481 221.565,201.828 224.752,201.221 227.933,200.658 231.105,200.140 234.270,199.667 237.426,199.237 240.572,198.852 243.709,198.510 246.835,198.212 249.950,197.958 253.054,197.746" stroke="#1a1a2e" stroke-width="3.5" fill="none" stroke-linecap="round"/>
<polyline points="100.000,400.000 101.683,403.124 103.398,406.213 105.146,409.266 106.924,412.284 108.733,415.265 110.572,418.209 112.441,421.117 114.339,423.988 116.265,426.821 118.219,429.616 120.200,432.374 122.208,435.093 124.242,437.774 126.301,440.416 128.386,443.019 130.494,445.583 132.627,448.108 134.782,450.593 136.961,453.038 139.161,455.443 141.382,457.808 143.624,460.132 145.887,462.416 148.168,464.659 150.469,466.862 152.788,469.023 155.125,471.143 157.479,473.221 159.850,475.259 162.236,477.254" stroke="#1a1a2e" stroke-width="3.5" fill="none" stroke-linecap="round"/>
<polyline points="253.054,197.746 256.145,197.577 259.224,197.450 262.290,197.365 265.341,197.322 268.379,197.321 271.402,197.361 274.409,197.442 277.400,197.564 280.375,197.726 283.333,197.927 286.274,198.169 289.197,198.449 292.101,198.769 294.986,199.127 297.852,199.524 300.698,199.958 303.524,200.429 306.329,200.938 309.112,201.483 311.874,202.065 314.613,202.683 317.330,203.336 320.024,204.024 322.694,204.747 325.340,205.504 327.962,206.295 330.559,207.119 333.130,207.977 335.677,208.867 338.197,209.789" stroke="#1a1a2e" stroke-width="3.5" fill="none" stroke-linecap="round"/>
<polyline points="162.236,477.254 164.638,479.208 167.054,481.120 169.484,482.991 171.928,484.819 174.385,486.606 176.854,488.350 179.334,490.052 181.826,491.712 184.328,493.330 186.839,494.905 189.360,496.438 191.890,497.929 194.427,499.378 196.972,500.784 199.524,502.148 202.081,503.469 204.644,504.749 207.213,505.986 209.785,507.181 212.361,508.333 214.940,509.444 217.522,510.512 220.106,511.539 222.691,512.524 225.277,513.466 227.863,514.368 230.448,515.227 233.033,516.045 235.616,516.822 238.197,517.557" stroke="#1a1a2e" stroke-width="3.5" fill="none" stroke-linecap="round"/>
<polyline points="338.197,209.789 340.690,210.742 343.157,211.727 345.597,212.743 348.009,213.789 350.393,214.864 352.749,215.969 355.076,217.103 357.375,218.265 359.644,219.455 361.883,220.673 364.092,221.917 366.271,223.188 368.420,224.485 370.538,225.807 372.624,227.155 374.679,228.526 376.702,229.922 378.693,231.341 380.652,232.782 382.579,234.246 384.472,235.732 386.333,237.239 388.160,238.767 389.954,240.316 391.713,241.884 393.439,243.471 395.131,245.076 396.789,246.700 398.412,248.342 400.000,250.000" stroke="#1a1a2e" stroke-width="3.5" fill="none" stroke-linecap="round"/>
<polyline points="238.197,517.557 240.775,518.251 243.349,518.904 245.920,519.517 248.486,520.089 251.047,520.620 253.602,521.111 256.152,521.561 258.694,521.972 261.229,522.343 263.757,522.674 266.276,522.966 268.786,523.218 271.286,523.432 273.776,523.607 276.256,523.744 278.725,523.842 281.182,523.902 283.627,523.925 286.059,523.910 288.478,523.857 290.884,523.768 293.275,523.643 295.651,523.480 298.012,523.282 300.358,523.048 302.687,522.779 304.999,522.474 307.295,522.135 309.573,521.761 311.832,521.353" stroke="#1a1a2e" stroke-width="3.5" fill="none" stroke-linecap="round"/>
<polyline points="400.000,250.000 401.553,251.675 403.072,253.365 404.555,255.072 406.002,256.792 407.414,258.527 408.791,260.276 410.131,262.038 411.436,263.813 412.705,265.599 413.937,267.397 415.133,269.206 416.293,271.025 417.417,272.854 418.504,274.692 419.554,276.539 420.568,278.394 421.545,280.256 422.486,282.126 423.389,284.001 424.256,285.883 425.086,287.770 425.880,289.661 426.636,291.557 427.356,293.456 428.039,295.358 428.685,297.263 429.294,299.169 429.867,301.077 430.402,302.986 430.902,304.894" stroke="#1a1a2e" stroke-width="3.5" fill="none" stroke-linecap="round"/>
<polyline points="311.832,521.353 314.073,520.911 316.295,520.435 318.498,519.927 320.681,519.385 322.843,518.812 324.984,518.206 327.104,517.568 329.203,516.900 331.279,516.200 333.333,515.470 335.364,514.710 337.372,513.920 339.356,513.101 341.316,512.252 343.251,511.376 345.162,510.471 347.047,509.539 348.906,508.579 350.740,507.593 352.547,506.580 354.328,505.542 356.082,504.478 357.808,503.389 359.506,502.275 361.177,501.138 362.819,499.977 364.433,498.792 366.017,497.586 367.572,496.356 369.098,495.106" stroke="#1a1a2e" stroke-width="3.5" fill="none" stroke-linecap="round"/>
<polyline points="194.275,116.844 198.217,116.064 202.153,115.335 206.081,114.657 210.002,114.030 213.915,113.454 217.819,112.929 221.713,112.453 225.598,112.027 229.471,111.651 233.333,111.325 237.184,111.047 241.021,110.819 244.846,110.639 248.657,110.507 252.453,110.423 256.235,110.387 260.001,110.397 263.751,110.455 267.484,110.560 271.200,110.711 274.898,110.907 278.578,111.150 282.240,111.437 285.881,111.769 289.503,112.146 293.105,112.567 296.685,113.031 300.244,113.539 303.781,114.090 307.295,114.683" stroke="#1a1a2e" stroke-width="3.5" fill="none" stroke-linecap="round"/>
<polyline points="194.275,116.844 192.315,120.352 190.406,123.870 188.547,127.397 186.739,130.932 184.982,134.475 183.276,138.025 181.620,141.582 180.015,145.145 178.461,148.713 176.956,152.285 175.503,155.861 174.099,159.440 172.746,163.022 171.443,166.606 170.190,170.190 168.987,173.776 167.834,177.361 166.730,180.945 165.676,184.528 164.671,188.109 163.715,191.687 162.808,195.262 161.950,198.832 161.141,202.399 160.380,205.960 159.667,209.515 159.003,213.063 158.386,216.605 157.817,220.139 157.295,223.664" stroke="#1a1a2e" stroke-width="3.5" fill="none" stroke-linecap="round"/>
<polyline points="307.295,114.683 310.786,115.318 314.254,115.995 317.698,116.713 321.117,117.472 324.511,118.272 327.880,119.111 331.223,119.990 334.539,120.907 337.829,121.864 341.092,122.858 344.327,123.890 347.533,124.960 350.711,126.066 353.861,127.208 356.981,128.386 360.071,129.599 363.131,130.847 366.160,132.129 369.159,133.445 372.126,134.794 375.061,136.176 377.965,137.590 380.836,139.036 383.674,140.513 386.480,142.021 389.252,143.558 391.990,145.126 394.695,146.722 397.365,148.347 400.000,150.000" stroke="#1a1a2e" stroke-width="3.5" fill="none" stroke-linecap="round"/>
<polyline points="157.295,223.664 156.820,227.181 156.392,230.688 156.011,234.185 155.676,237.672 155.388,241.147 155.145,244.610 154.948,248.061 154.796,251.499 154.689,254.923 154.626,258.333 154.608,261.729 154.634,265.109 154.704,268.473 154.817,271.821 154.973,275.153 155.172,278.466 155.413,281.762 155.697,285.040 156.022,288.298 156.388,291.537 156.795,294.756 157.243,297.954 157.731,301.132 158.258,304.288 158.825,307.422 159.431,310.533 160.075,313.622 160.758,316.687 161.478,319.729 162.236,322.746" stroke="#1a1a2e" stroke-width="3.5" fill="none" stroke-linecap="round"/>
<polyline points="400.000,150.000 402.600,151.680 405.166,153.387 407.696,155.121 410.190,156.880 412.648,158.665 415.070,160.474 417.455,162.307 419.804,164.163 422.115,166.043 424.390,167.945 426.627,169.869 428.827,171.814 430.988,173.779 433.112,175.765 435.198,177.770 437.245,179.794 439.254,181.837 441.224,183.897 443.155,185.974 445.048,188.068 446.901,190.178 448.715,192.303 450.490,194.443 452.225,196.598 453.921,198.765 455.577,200.946 457.193,203.140 458.770,205.345 460.307,207.562 461.803,209.789" stroke="#1a1a2e" stroke-width="3.5" fill="none" stroke-linecap="round"/>
<polyline points="162.236,322.746 163.030,325.738 163.861,328.705 164.728,331.647 165.630,334.563 166.568,337.452 167.540,340.314 168.546,343.150 169.586,345.957 170.660,348.736 171.766,351.487 172.904,354.209 174.074,356.902 175.275,359.566 176.508,362.199 177.770,364.802 179.063,367.375 180.384,369.916 181.735,372.427 183.114,374.905 184.520,377.352 185.954,379.767 187.415,382.149 188.902,384.498 190.414,386.814 191.952,389.097 193.515,391.346 195.101,393.561 196.711,395.742 198.344,397.888 200.000,400.000" stroke="#1a1a2e" stroke-width="3.5" fill="none" stroke-linecap="round"/>
<polyline points="461.803,209.789 463.260,212.026 464.677,214.273 466.054,216.528 467.391,218.792 468.687,221.064 469.944,223.342 471.160,225.628 472.336,227.919 473.472,230.215 474.568,232.517 475.624,234.822 476.640,237.131 477.616,239.443 478.552,241.758 479.448,244.074 480.305,246.391 481.121,248.710 481.898,251.028 482.635,253.346 483.333,255.662 483.992,257.978 484.611,260.291 485.191,262.601 485.732,264.908 486.235,267.210 486.698,269.509 487.123,271.803 487.509,274.090 487.858,276.372 488.168,278.647" stroke="#1a1a2e" stroke-width="3.5" fill="none" stroke-linecap="round"/>
<polyline points="200.000,400.000 201.678,402.077 203.376,404.119 205.096,406.125 206.836,408.096 208.596,410.031 210.375,411.930 212.172,413.793 213.988,415.620 215.821,417.410 217.671,419.164 219.537,420.880 221.419,422.560 223.317,424.203 225.229,425.808 227.155,427.376 229.094,428.907 231.046,430.400 233.011,431.855 234.988,433.272 236.975,434.652 238.974,435.994 240.982,437.297 243.000,438.563 245.027,439.790 247.062,440.980 249.105,442.131 251.154,443.244 253.211,444.318 255.274,445.355 257.342,446.353" stroke="#1a1a2e" stroke-width="3.5" fill="none" stroke-linecap="round"/>
<polyline points="488.168,278.647 488.440,280.915 488.675,283.176 488.872,285.428 489.031,287.671 489.154,289.904 489.239,292.128 489.288,294.342 489.301,296.544 489.277,298.735 489.217,300.914 489.122,303.081 488.991,305.234 488.825,307.374 488.624,309.500 488.388,311.612 488.118,313.708 487.814,315.789 487.476,317.854 487.105,319.903 486.700,321.935 486.263,323.949 485.793,325.946 485.291,327.924 484.756,329.883 484.191,331.824 483.594,333.744 482.966,335.645 482.308,337.525 481.620,339.384 480.902,341.221" stroke="#1a1a2e" stroke-width="3.5" fill="none" stroke-linecap="round"/>
<polyline points="257.342,446.353 259.414,447.312 261.491,448.234 263.572,449.117 265.656,449.962 267.743,450.769 269.831,451.537 271.921,452.268 274.012,452.960 276.103,453.615 278.194,454.232 280.284,454.810 282.372,455.351 284.459,455.855 286.543,456.320 288.624,456.749 290.702,457.140 292.775,457.494 294.843,457.810 296.906,458.090 298.964,458.333 301.015,458.540 303.059,458.710 305.095,458.843 307.124,458.941 309.144,459.003 311.155,459.028 313.157,459.019 315.148,458.974 317.129,458.894 319.098,458.779" stroke="#1a1a2e" stroke-width="3.5" fill="none" stroke-linecap="round"/>
<circle cx="400.0" cy="400.0" r="100" fill="#666666" stroke="#1a1a2e" stroke-width="3.5" />
<text x="400.000" y="82.500" font-family="Arial, sans-serif" font-size="22" font-weight="bold" fill="red" text-anchor="middle" dominant-baseline="central">7</text>
<text x="586.622" y="143.137" font-family="Arial, sans-serif" font-size="22" font-weight="bold" fill="red" text-anchor="middle" dominant-baseline="central">4</text>
<text x="701.960" y="301.887" font-family="Arial, sans-serif" font-size="22" font-weight="bold" fill="red" text-anchor="middle" dominant-baseline="central">3</text>
<text x="701.960" y="498.113" font-family="Arial, sans-serif" font-size="22" font-weight="bold" fill="red" text-anchor="middle" dominant-baseline="central">2</text>
<text x="586.622" y="656.863" font-family="Arial, sans-serif" font-size="22" font-weight="bold" fill="red" text-anchor="middle" dominant-baseline="central">3</text>
<text x="400.000" y="717.500" font-family="Arial, sans-serif" font-size="22" font-weight="bold" fill="red" text-anchor="middle" dominant-baseline="central">4</text>
<text x="213.378" y="656.863" font-family="Arial, sans-serif" font-size="22" font-weight="bold" fill="red" text-anchor="middle" dominant-baseline="central">7</text>
<text x="98.040" y="498.113" font-family="Arial, sans-serif" font-size="22" font-weight="bold" fill="red" text-anchor="middle" dominant-baseline="central">4</text>
<text x="98.040" y="301.887" font-family="Arial, sans-serif" font-size="22" font-weight="bold" fill="red" text-anchor="middle" dominant-baseline="central">7</text>
<text x="213.378" y="143.137" font-family="Arial, sans-serif" font-size="22" font-weight="bold" fill="red" text-anchor="middle" dominant-baseline="central">4</text>
<text x="400.000" y="125.000" font-family="Arial, sans-serif" font-size="22" font-weight="bold" fill="red" text-anchor="middle" dominant-baseline="central">1</text>
<text x="484.980" y="138.459" font-family="Arial, sans-serif" font-size="22" font-weight="bold" fill="red" text-anchor="middle" dominant-baseline="central">2</text>
<text x="622.480" y="238.359" font-family="Arial, sans-serif" font-size="22" font-weight="bold" fill="red" text-anchor="middle" dominant-baseline="central">4</text>
<text x="661.541" y="315.020" font-family="Arial, sans-serif" font-size="22" font-weight="bold" fill="red" text-anchor="middle" dominant-baseline="central">5</text>
<text x="675.000" y="400.000" font-family="Arial, sans-serif" font-size="22" font-weight="bold" fill="red" text-anchor="middle" dominant-baseline="central">6</text>
<text x="661.541" y="484.980" font-family="Arial, sans-serif" font-size="22" font-weight="bold" fill="red" text-anchor="middle" dominant-baseline="central">7</text>
<text x="622.480" y="561.641" font-family="Arial, sans-serif" font-size="22" font-weight="bold" fill="red" text-anchor="middle" dominant-baseline="central">8</text>
<text x="561.641" y="622.480" font-family="Arial, sans-serif" font-size="22" font-weight="bold" fill="red" text-anchor="middle" dominant-baseline="central">9</text>
<text x="400.000" y="675.000" font-family="Arial, sans-serif" font-size="22" font-weight="bold" fill="red" text-anchor="middle" dominant-baseline="central">1</text>
<text x="315.020" y="661.541" font-family="Arial, sans-serif" font-size="22" font-weight="bold" fill="red" text-anchor="middle" dominant-baseline="central">2</text>
<text x="238.359" y="622.480" font-family="Arial, sans-serif" font-size="22" font-weight="bold" fill="red" text-anchor="middle" dominant-baseline="central">3</text>
<text x="177.520" y="561.641" font-family="Arial, sans-serif" font-size="22" font-weight="bold" fill="red" text-anchor="middle" dominant-baseline="central">4</text>
<text x="138.459" y="484.980" font-family="Arial, sans-serif" font-size="22" font-weight="bold" fill="red" text-anchor="middle" dominant-baseline="central">5</text>
<text x="125.000" y="400.000" font-family="Arial, sans-serif" font-size="22" font-weight="bold" fill="red" text-anchor="middle" dominant-baseline="central">6</text>
<text x="138.459" y="315.020" font-family="Arial, sans-serif" font-size="22" font-weight="bold" fill="red" text-anchor="middle" dominant-baseline="central">7</text>
<text x="177.520" y="238.359" font-family="Arial, sans-serif" font-size="22" font-weight="bold" fill="red" text-anchor="middle" dominant-baseline="central">8</text>
<text x="238.359" y="177.520" font-family="Arial, sans-serif" font-size="22" font-weight="bold" fill="red" text-anchor="middle" dominant-baseline="central">9</text>
<text x="469.529" y="186.012" font-family="Arial, sans-serif" font-size="22" font-weight="bold" fill="red" text-anchor="middle" dominant-baseline="central">9</text>
<text x="532.252" y="217.971" font-family="Arial, sans-serif" font-size="22" font-weight="bold" fill="red" text-anchor="middle" dominant-baseline="central">8</text>
<text x="582.029" y="267.748" font-family="Arial, sans-serif" font-size="22" font-weight="bold" fill="red" text-anchor="middle" dominant-baseline="central">7</text>
<text x="613.988" y="330.471" font-family="Arial, sans-serif" font-size="22" font-weight="bold" fill="red" text-anchor="middle" dominant-baseline="central">6</text>
<text x="625.000" y="400.000" font-family="Arial, sans-serif" font-size="22" font-weight="bold" fill="red" text-anchor="middle" dominant-baseline="central">5</text>
<text x="613.988" y="469.529" font-family="Arial, sans-serif" font-size="22" font-weight="bold" fill="red" text-anchor="middle" dominant-baseline="central">4</text>
<text x="582.029" y="532.252" font-family="Arial, sans-serif" font-size="22" font-weight="bold" fill="red" text-anchor="middle" dominant-baseline="central">3</text>
<text x="532.252" y="582.029" font-family="Arial, sans-serif" font-size="22" font-weight="bold" fill="red" text-anchor="middle" dominant-baseline="central">2</text>
<text x="469.529" y="613.988" font-family="Arial, sans-serif" font-size="22" font-weight="bold" fill="red" text-anchor="middle" dominant-baseline="central">1</text>
<text x="330.471" y="613.988" font-family="Arial, sans-serif" font-size="22" font-weight="bold" fill="red" text-anchor="middle" dominant-baseline="central">9</text>
<text x="267.748" y="582.029" font-family="Arial, sans-serif" font-size="22" font-weight="bold" fill="red" text-anchor="middle" dominant-baseline="central">8</text>
<text x="217.971" y="532.252" font-family="Arial, sans-serif" font-size="22" font-weight="bold" fill="red" text-anchor="middle" dominant-baseline="central">7</text>
<text x="186.012" y="469.529" font-family="Arial, sans-serif" font-size="22" font-weight="bold" fill="red" text-anchor="middle" dominant-baseline="central">6</text>
<text x="175.000" y="400.000" font-family="Arial, sans-serif" font-size="22" font-weight="bold" fill="red" text-anchor="middle" dominant-baseline="central">5</text>
<text x="186.012" y="330.471" font-family="Arial, sans-serif" font-size="22" font-weight="bold" fill="red" text-anchor="middle" dominant-baseline="central">4</text>
<text x="217.971" y="267.748" font-family="Arial, sans-serif" font-size="22" font-weight="bold" fill="red" text-anchor="middle" dominant-baseline="central">3</text>
<text x="267.748" y="217.971" font-family="Arial, sans-serif" font-size="22" font-weight="bold" fill="red" text-anchor="middle" dominant-baseline="central">2</text>
<text x="330.471" y="186.012" font-family="Arial, sans-serif" font-size="22" font-weight="bold" fill="red" text-anchor="middle" dominant-baseline="central">1</text>
<text x="400.000" y="225.000" font-family="Arial, sans-serif" font-size="22" font-weight="bold" fill="red" text-anchor="middle" dominant-baseline="central">5</text>
<text x="502.862" y="258.422" font-family="Arial, sans-serif" font-size="22" font-weight="bold" fill="red" text-anchor="middle" dominant-baseline="central">5</text>
<text x="566.435" y="345.922" font-family="Arial, sans-serif" font-size="22" font-weight="bold" fill="red" text-anchor="middle" dominant-baseline="central">5</text>
<text x="566.435" y="454.078" font-family="Arial, sans-serif" font-size="22" font-weight="bold" fill="red" text-anchor="middle" dominant-baseline="central">5</text>
<text x="502.862" y="541.578" font-family="Arial, sans-serif" font-size="22" font-weight="bold" fill="red" text-anchor="middle" dominant-baseline="central">5</text>
<text x="400.000" y="575.000" font-family="Arial, sans-serif" font-size="22" font-weight="bold" fill="red" text-anchor="middle" dominant-baseline="central">4</text>
<text x="297.138" y="541.578" font-family="Arial, sans-serif" font-size="22" font-weight="bold" fill="red" text-anchor="middle" dominant-baseline="central">4</text>
<text x="233.565" y="454.078" font-family="Arial, sans-serif" font-size="22" font-weight="bold" fill="red" text-anchor="middle" dominant-baseline="central">4</text>
<text x="233.565" y="345.922" font-family="Arial, sans-serif" font-size="22" font-weight="bold" fill="red" text-anchor="middle" dominant-baseline="central">4</text>
<text x="297.138" y="258.422" font-family="Arial, sans-serif" font-size="22" font-weight="bold" fill="red" text-anchor="middle" dominant-baseline="central">4</text>
<text x="400.000" y="275.000" font-family="Arial, sans-serif" font-size="22" font-weight="bold" fill="red" text-anchor="middle" dominant-baseline="central">1</text>
<text x="438.627" y="281.118" font-family="Arial, sans-serif" font-size="22" font-weight="bold" fill="red" text-anchor="middle" dominant-baseline="central">1</text>
<text x="473.473" y="298.873" font-family="Arial, sans-serif" font-size="22" font-weight="bold" fill="red" text-anchor="middle" dominant-baseline="central">2</text>
<text x="501.127" y="326.527" font-family="Arial, sans-serif" font-size="22" font-weight="bold" fill="red" text-anchor="middle" dominant-baseline="central">2</text>
<text x="518.882" y="361.373" font-family="Arial, sans-serif" font-size="22" font-weight="bold" fill="red" text-anchor="middle" dominant-baseline="central">3</text>
<text x="525.000" y="400.000" font-family="Arial, sans-serif" font-size="22" font-weight="bold" fill="red" text-anchor="middle" dominant-baseline="central">3</text>
<text x="518.882" y="438.627" font-family="Arial, sans-serif" font-size="22" font-weight="bold" fill="red" text-anchor="middle" dominant-baseline="central">4</text>
<text x="501.127" y="473.473" font-family="Arial, sans-serif" font-size="22" font-weight="bold" fill="red" text-anchor="middle" dominant-baseline="central">4</text>
<text x="473.473" y="501.127" font-family="Arial, sans-serif" font-size="22" font-weight="bold" fill="red" text-anchor="middle" dominant-baseline="central">5</text>
<text x="438.627" y="518.882" font-family="Arial, sans-serif" font-size="22" font-weight="bold" fill="red" text-anchor="middle" dominant-baseline="central">5</text>
<text x="400.000" y="525.000" font-family="Arial, sans-serif" font-size="22" font-weight="bold" fill="red" text-anchor="middle" dominant-baseline="central">6</text>
<text x="361.373" y="518.882" font-family="Arial, sans-serif" font-size="22" font-weight="bold" fill="red" text-anchor="middle" dominant-baseline="central">6</text>
<text x="326.527" y="501.127" font-family="Arial, sans-serif" font-size="22" font-weight="bold" fill="red" text-anchor="middle" dominant-baseline="central">7</text>
<text x="298.873" y="473.473" font-family="Arial, sans-serif" font-size="22" font-weight="bold" fill="red" text-anchor="middle" dominant-baseline="central">7</text>
<text x="281.118" y="438.627" font-family="Arial, sans-serif" font-size="22" font-weight="bold" fill="red" text-anchor="middle" dominant-baseline="central">8</text>
<text x="275.000" y="400.000" font-family="Arial, sans-serif" font-size="22" font-weight="bold" fill="red" text-anchor="middle" dominant-baseline="central">8</text>
<text x="281.118" y="361.373" font-family="Arial, sans-serif" font-size="22" font-weight="bold" fill="red" text-anchor="middle" dominant-baseline="central">9</text>
<text x="298.873" y="326.527" font-family="Arial, sans-serif" font-size="22" font-weight="bold" fill="red" text-anchor="middle" dominant-baseline="central">9</text>
</svg>